<svg width="37" height="38" viewBox="0 0 37 38" fill="none" xmlns="http://www.w3.org/2000/svg">
<rect y="0.0507812" width="36.3827" height="37.1406" rx="18.1913" fill="url(#paint0_linear_942_959)"/>
<g clip-path="url(#clip0_942_959)">
<path d="M10.6133 12.802C10.6133 12.2915 10.784 11.8704 11.1254 11.5387C11.4668 11.2069 11.9107 11.041 12.457 11.041C12.9935 11.041 13.4276 11.2043 13.7593 11.531C14.1007 11.8679 14.2714 12.3068 14.2714 12.8479C14.2714 13.3379 14.1056 13.7462 13.7739 14.0729C13.4325 14.4098 12.9838 14.5782 12.4277 14.5782H12.4131C11.8766 14.5782 11.4425 14.4098 11.1108 14.0729C10.7791 13.736 10.6133 13.3124 10.6133 12.802ZM10.8035 26.2004V15.9717H14.052V26.2004H10.8035ZM15.8518 26.2004H19.1002V20.4889C19.1002 20.1315 19.1393 19.8559 19.2173 19.662C19.3539 19.3149 19.5612 19.0214 19.8392 18.7815C20.1172 18.5416 20.4659 18.4217 20.8854 18.4217C21.978 18.4217 22.5243 19.1924 22.5243 20.7339V26.2004H25.7727V20.3357C25.7727 18.8249 25.4313 17.679 24.7484 16.8981C24.0656 16.1171 23.1632 15.7267 22.0414 15.7267C20.783 15.7267 19.8026 16.2932 19.1002 17.4263V17.457H19.0856L19.1002 17.4263V15.9717H15.8518C15.8713 16.2983 15.881 17.314 15.881 19.0188C15.881 20.7236 15.8713 23.1175 15.8518 26.2004Z" fill="white"/>
</g>
<defs>
<linearGradient id="paint0_linear_942_959" x1="-1.61073" y1="-1.45244" x2="45.1149" y2="77.497" gradientUnits="userSpaceOnUse">
<stop offset="0.09375" stop-color="#38D26F"/>
<stop offset="0.739583" stop-color="#357AFF"/>
</linearGradient>
<clipPath id="clip0_942_959">
<rect width="15.1594" height="15.1594" fill="white" transform="translate(10.6133 11.041)"/>
</clipPath>
</defs>
</svg>
