<svg width="37" height="38" viewBox="0 0 37 38" fill="none" xmlns="http://www.w3.org/2000/svg">
<rect width="36.3827" height="37.1406" rx="18.1913" fill="url(#paint0_linear_942_959)"/>
<g clip-path="url(#clip0_942_959)">
<path d="M10.6133 12.7512C10.6133 12.2407 10.784 11.8197 11.1254 11.4879C11.4668 11.1561 11.9107 10.9902 12.457 10.9902C12.9935 10.9902 13.4276 11.1536 13.7593 11.4802C14.1007 11.8171 14.2714 12.2561 14.2714 12.7971C14.2714 13.2871 14.1056 13.6954 13.7739 14.0221C13.4325 14.359 12.9838 14.5274 12.4277 14.5274H12.4131C11.8766 14.5274 11.4425 14.359 11.1108 14.0221C10.7791 13.6852 10.6133 13.2616 10.6133 12.7512ZM10.8035 26.1496V15.9209H14.052V26.1496H10.8035ZM15.8518 26.1496H19.1002V20.4381C19.1002 20.0808 19.1393 19.8051 19.2173 19.6112C19.3539 19.2641 19.5612 18.9706 19.8392 18.7307C20.1172 18.4908 20.4659 18.3709 20.8854 18.3709C21.978 18.3709 22.5243 19.1416 22.5243 20.6831V26.1496H25.7727V20.2849C25.7727 18.7741 25.4313 17.6282 24.7484 16.8473C24.0656 16.0663 23.1632 15.6759 22.0414 15.6759C20.783 15.6759 19.8026 16.2424 19.1002 17.3756V17.4062H19.0856L19.1002 17.3756V15.9209H15.8518C15.8713 16.2475 15.881 17.2633 15.881 18.9681C15.881 20.6729 15.8713 23.0667 15.8518 26.1496Z" fill="white"/>
</g>
<defs>
<linearGradient id="paint0_linear_942_959" x1="-1.61073" y1="-1.50322" x2="45.1149" y2="77.4462" gradientUnits="userSpaceOnUse">
<stop offset="0.09375" stop-color="#38D26F"/>
<stop offset="0.739583" stop-color="#357AFF"/>
</linearGradient>
<clipPath id="clip0_942_959">
<rect width="15.1594" height="15.1594" fill="white" transform="translate(10.6133 10.9902)"/>
</clipPath>
</defs>
</svg>
