<svg width="55" height="75" viewBox="0 0 55 75" fill="none" xmlns="http://www.w3.org/2000/svg">
<path d="M3.41222 63.4742L2.99609 63.9091V64.5111V71.9991V73.4991H4.49609H51.7281H53.2281V71.9991V60.6711V59.1711H51.7281H28.2436L40.5061 46.6544C43.2897 43.8704 45.4944 41.3427 47.0952 39.0754C48.7715 36.7279 49.9737 34.3421 50.669 31.9181C51.4218 29.515 51.7881 26.8706 51.7881 23.9991C51.7881 19.6784 50.8408 15.8256 48.8958 12.4913C46.9538 9.16219 44.1796 6.56972 40.6166 4.71859C37.0991 2.85762 33.0108 1.95508 28.4001 1.95508C22.9801 1.95508 18.1056 3.19545 13.8197 5.71178C9.59961 8.16293 6.09913 11.7853 3.30107 16.5154L2.65728 17.6037L3.62098 18.4223L12.549 26.0063L13.9005 27.1543L14.8085 25.6312C16.7228 22.4201 18.6973 20.1828 20.6963 18.8098C22.736 17.4522 25.0641 16.7631 27.7281 16.7631C30.3167 16.7631 32.2725 17.4743 33.7371 18.782L33.7468 18.7907L33.7567 18.7992C35.231 20.0702 36.0201 21.8351 36.0201 24.2871C36.0201 25.5058 35.7998 26.7371 35.3463 27.9877C34.8972 29.1628 34.147 30.4765 33.0561 31.9311L33.0561 31.9311L33.0498 31.9395C32.0082 33.3488 30.611 34.9972 28.8459 36.8888L3.41222 63.4742Z" stroke="#12AC49" stroke-width="3"/>
</svg>
