<svg width="56" height="75" viewBox="0 0 56 75" fill="none" xmlns="http://www.w3.org/2000/svg">
<path d="M13.821 70.9324L13.8308 70.9367L13.8407 70.9408C17.8208 72.6274 22.1826 73.4597 26.9059 73.4597C32.2063 73.4597 36.8898 72.4987 40.9116 70.5219L40.9207 70.5174C44.9819 68.4867 48.1735 65.6859 50.4444 62.1075L50.4444 62.1075L50.4512 62.0966C52.7288 58.4386 53.8459 54.221 53.8459 49.4957C53.8459 45.2623 52.9725 41.5156 51.1652 38.3104C49.4428 35.0793 47.0473 32.5702 43.9846 30.8256C42.1254 29.7042 40.1236 28.9348 37.9889 28.512L52.4197 11.9863L52.7899 11.5625V10.9997V3.51172V2.01172H51.2899H8.66588H7.16588V3.51172V14.8397V16.3397H8.66588H29.9006L17.8973 30.2768L17.5339 30.6988V31.2557V38.7437V40.8722L19.5384 40.1563C20.2875 39.8888 21.2489 39.6841 22.4471 39.5643L22.4839 39.5606L22.5204 39.5551C23.7314 39.3735 24.9049 39.2837 26.0419 39.2837C28.6354 39.2837 30.7826 39.7063 32.5285 40.4948C34.2718 41.2821 35.5311 42.3738 36.3804 43.7539L36.3912 43.7714L36.4024 43.7886C37.3025 45.1652 37.7899 46.8827 37.7899 49.0157C37.7899 51.0013 37.3114 52.7028 36.3885 54.1685L36.3844 54.175L36.3804 54.1816C35.5125 55.5919 34.2894 56.7191 32.6672 57.5618C31.0611 58.3331 29.0923 58.7477 26.7139 58.7477C24.1787 58.7477 21.8444 58.2189 19.6901 57.1709C17.5273 56.1187 15.9222 54.748 14.81 53.0797L13.8008 51.5659L12.5072 52.8451L3.86716 61.3891L2.88767 62.3577L3.76954 63.416C6.48256 66.6716 9.84011 69.1781 13.821 70.9324Z" stroke="#12AC49" stroke-width="3"/>
</svg>
