<svg width="57" height="75" viewBox="0 0 57 75" fill="none" xmlns="http://www.w3.org/2000/svg">
<path d="M14.0036 70.4243L14.0133 70.4286L14.0231 70.4326C18.0671 72.1176 22.5223 72.948 27.368 72.948C32.7371 72.948 37.4877 71.9532 41.5748 69.9097L41.5836 69.9052C45.711 67.8077 48.9625 64.9091 51.2934 61.2072C53.6323 57.4924 54.788 53.2749 54.788 48.6C54.788 44.3479 53.8752 40.4299 52.0299 36.8738C50.1737 33.2325 47.4522 30.3406 43.8947 28.2163C40.3361 25.9881 35.9493 24.924 30.824 24.924C28.436 24.924 26.2949 25.1549 24.419 25.639C24.0376 25.7274 23.6629 25.827 23.2951 25.9377L24.4013 15.828H49.544H51.044V14.328V3V1.5H49.544H25.9691H24.296H12.488H11.1289L10.9953 2.85257L7.92326 33.9566L7.85281 34.6699L8.36359 35.1729L14.6036 41.3168L15.5234 42.2225L16.556 41.448C18.2233 40.1975 19.9227 39.3244 21.655 38.8047L21.6698 38.8003L21.6845 38.7956C23.4973 38.2108 25.5469 37.908 27.848 37.908C29.953 37.908 31.8061 38.3161 33.4359 39.1028C35.041 39.8777 36.298 40.9997 37.2347 42.4872L37.2451 42.5038L37.2559 42.5201C38.213 43.9556 38.732 45.7635 38.732 48.024C38.732 50.1376 38.2217 51.9293 37.2422 53.4529L37.2422 53.4528L37.2347 53.4648C36.3082 54.9362 34.9946 56.098 33.2427 56.9458L33.2339 56.95L33.2252 56.9544C31.5547 57.7896 29.5221 58.236 27.08 58.236C24.4091 58.236 21.9768 57.7039 19.7613 56.6558C17.6021 55.6041 15.9991 54.2345 14.8881 52.568L13.8789 51.0542L12.5853 52.3334L3.94528 60.8774L2.9658 61.846L3.84767 62.9043C6.56492 66.165 9.95862 68.6715 14.0036 70.4243Z" stroke="#12AC49" stroke-width="3"/>
</svg>
