<svg width="56" height="75" viewBox="0 0 56 75" fill="none" xmlns="http://www.w3.org/2000/svg">
<path d="M15.0314 70.1859L15.0447 70.1936L15.0583 70.2011C19.0112 72.382 23.4241 73.4597 28.2629 73.4597C33.0498 73.4597 37.4361 72.3443 41.3887 70.0955C45.3183 67.8597 48.45 64.8326 50.7611 61.0262C53.0873 57.1948 54.2429 52.923 54.2429 48.2477C54.2429 43.7219 53.1935 39.6716 51.0521 36.1462C48.9419 32.6085 46.1367 29.8323 42.6459 27.8452C39.1388 25.7845 35.2285 24.7637 30.9509 24.7637C30.7548 24.7637 30.5607 24.7655 30.3686 24.7691L44.9392 4.38396L46.6348 2.01172H43.7189H28.7429H27.9564L27.5091 2.65859L8.78915 29.7306L8.78911 29.7306L8.78301 29.7395C4.55571 35.9484 2.37891 42.2212 2.37891 48.5357C2.37891 53.1427 3.50022 57.3756 5.7546 61.2013L5.76266 61.2149L5.77101 61.2285C8.07961 64.9629 11.1734 67.9523 15.0314 70.1859ZM37.0295 42.7323L37.035 42.7422L37.0405 42.7519C37.9205 44.2918 38.3789 46.0777 38.3789 48.1517C38.3789 50.2207 37.9225 52.0446 37.0349 53.6573C36.1357 55.2274 34.9391 56.4794 33.4329 57.4315C31.9662 58.2963 30.2578 58.7477 28.2629 58.7477C26.273 58.7477 24.5263 58.2983 22.9869 57.4251C21.491 56.4774 20.301 55.2332 19.4049 53.6748C18.5754 52.0597 18.1469 50.229 18.1469 48.1517C18.1469 46.0696 18.5773 44.2765 19.3995 42.7341C20.2971 41.1698 21.4871 39.9586 22.9796 39.0742L22.9865 39.0701L22.9934 39.0659C24.5345 38.1302 26.2779 37.6517 28.2629 37.6517C30.2656 37.6517 31.9796 38.1067 33.4502 38.9782C34.9353 39.8582 36.1273 41.097 37.0295 42.7323Z" stroke="#12AC49" stroke-width="3"/>
</svg>
