<svg width="93" height="98" viewBox="0 0 93 98" fill="none" xmlns="http://www.w3.org/2000/svg">
<path d="M1.34348 1.03877C1.03176 1.14836 0.762887 1.35408 0.575601 1.6263C0.388315 1.89852 0.292292 2.22317 0.301371 2.55347V66.077C0.301371 66.8707 1.02237 67.5917 1.81607 67.5917H8.72613L10.2408 67.6856L21.8858 79.3306C22.7038 80.2576 24.5699 79.5215 24.5366 78.2885V67.6856L35.1395 67.5917H56.3453C56.7422 67.5767 57.1188 67.4123 57.3997 67.1314C57.6806 66.8505 57.845 66.4739 57.86 66.077V17.7005C57.8502 17.2998 57.6882 16.9179 57.4067 16.6326C57.1253 16.3472 56.7457 16.1799 56.3453 16.1646C55.9448 16.1799 55.5652 16.3472 55.2838 16.6326C55.0024 16.9179 54.8403 17.2998 54.8306 17.7005V64.5623H35.1395L23.0219 64.6562C22.6249 64.6712 22.2483 64.8356 21.9674 65.1165C21.6866 65.3973 21.5222 65.7739 21.5072 66.1709V74.5956L11.9464 65.0349C11.6584 64.783 11.2867 64.648 10.9043 64.6562L8.72613 64.5623H3.33077V4.06817H41.1983C41.5989 4.05844 41.9808 3.89637 42.2662 3.61496C42.5515 3.33354 42.7189 2.95395 42.7342 2.55347C42.7189 2.15299 42.5515 1.77339 42.2662 1.49198C41.9808 1.21057 41.5989 1.0485 41.1983 1.03877H1.81607C1.65951 1.01409 1.50005 1.01409 1.34348 1.03877ZM46.7845 1.03877C46.4728 1.14836 46.2039 1.35408 46.0166 1.6263C45.8293 1.89852 45.7333 2.22317 45.7424 2.55347V11.6417C45.7424 12.4354 46.4634 13.1564 47.2571 13.1564H56.3453C57.5782 13.1867 58.3144 11.3236 57.3874 10.5056L48.2992 1.41744C48.1031 1.2255 47.8594 1.08925 47.5932 1.02269C47.327 0.956139 47.0478 0.961688 46.7845 1.03877ZM48.7718 6.1524L52.7494 10.127H48.7718V6.1524ZM9.38957 10.127V13.1564H36.6542V10.127H9.38957ZM9.38957 19.2152V22.2446H48.7718V19.2152H9.38957ZM9.38957 28.3034V31.3328H48.7718V28.3034H9.38957ZM9.38957 37.3916V40.421H48.7718V37.3916H9.38957ZM9.38957 46.4798V49.5092H48.7718V46.4798H9.38957ZM9.38957 55.568V58.5974H24.5366V55.568H9.38957ZM79.5383 79.4245L60.7015 79.5184L41.7678 79.6154C41.7042 79.6114 41.6405 79.6114 41.5769 79.6154C41.5134 79.6114 41.4496 79.6114 41.3861 79.6154C41.1952 79.7365 40.8196 79.994 40.8196 79.994L25.7665 87.4676C24.7304 87.9523 24.7304 89.7305 25.7665 90.2152L40.6287 97.504L41.3861 97.9766H41.7678L60.7924 97.8826L79.3505 97.7857C79.4763 97.8015 79.6035 97.8015 79.7292 97.7857C79.7898 97.7918 79.8534 97.7918 79.917 97.7857H85.5032C89.502 97.7857 92.7132 94.4897 92.6981 90.497V86.6193C92.6829 82.6145 89.3718 79.4094 85.4093 79.4245H79.7292C79.6656 79.4205 79.6019 79.4205 79.5383 79.4245ZM78.1206 82.4539L78.2115 87.2828L43.2825 87.1858V82.6417L60.7015 82.5509L78.1206 82.4539ZM81.15 82.4539H85.4093C87.7268 82.4539 89.6596 84.2655 89.6687 86.6193V90.5C89.6777 92.866 87.8631 94.7624 85.5032 94.7624H81.2439L81.15 82.4539ZM40.2531 83.5899V93.9081L29.9289 88.8005L40.2531 83.5899ZM43.2825 90.2183L78.2115 90.3091V94.7624L60.7924 94.8532L43.2825 94.9502V90.2183Z" fill="url(#paint0_linear_28_99)"/>
<defs>
<linearGradient id="paint0_linear_28_99" x1="-3.78982" y1="-2.9494" x2="119.861" y2="200.208" gradientUnits="userSpaceOnUse">
<stop offset="0.09375" stop-color="#38D26F"/>
<stop offset="0.739583" stop-color="#357AFF"/>
</linearGradient>
</defs>
</svg>
