<svg width="105" height="95" viewBox="0 0 105 95" fill="none" xmlns="http://www.w3.org/2000/svg">
<path d="M35.0316 66.5482C39.1682 63.9847 41.9304 59.4055 41.9304 54.1915C41.9304 46.1806 35.4131 39.6633 27.4022 39.6633C19.3913 39.6633 12.874 46.1806 12.874 54.1915C12.874 59.4053 15.6362 63.9847 19.7727 66.5482C8.51128 69.8525 0.263672 80.2769 0.263672 92.5931C0.263672 93.026 0.435655 93.4412 0.741786 93.7473C1.04792 94.0535 1.46312 94.2254 1.89605 94.2254H52.908C53.3409 94.2254 53.7561 94.0535 54.0623 93.7473C54.3684 93.4412 54.5404 93.026 54.5404 92.5931C54.5404 80.2771 46.293 69.8525 35.0316 66.5482ZM16.1388 54.1915C16.1388 47.9809 21.1916 42.928 27.4022 42.928C33.6128 42.928 38.6657 47.9809 38.6657 54.1915C38.6657 60.4004 33.6157 65.4521 27.4075 65.4547H27.3971C21.1888 65.4518 16.1388 60.4004 16.1388 54.1915ZM3.58373 90.9607C4.42543 78.557 14.7841 68.7221 27.3969 68.7195L27.4022 68.7197L27.4075 68.7195C40.0201 68.7223 50.3786 78.557 51.2203 90.9607H3.58373ZM36.2608 35.6411C36.5831 35.7511 36.9318 35.7576 37.258 35.6596C37.5842 35.5616 37.8716 35.364 38.0798 35.0944L45.5543 25.4216H99.0228C102.173 25.4216 104.736 22.8585 104.736 19.7082V6.45552C104.736 3.30523 102.173 0.742188 99.0228 0.742188H40.8692C37.7189 0.742188 35.1558 3.30523 35.1558 6.45552V34.0962C35.1558 34.4368 35.2623 34.7689 35.4605 35.0459C35.6586 35.323 35.9384 35.5311 36.2608 35.6411ZM38.4206 6.45552C38.4206 5.10534 39.519 4.00695 40.8692 4.00695H99.0228C100.373 4.00695 101.471 5.10534 101.471 6.45552V19.7082C101.471 21.0584 100.373 22.1568 99.0228 22.1568H44.7526C44.5032 22.1568 44.2571 22.214 44.0332 22.3239C43.8093 22.4338 43.6135 22.5936 43.461 22.791L38.4206 29.314V6.45552ZM99.0228 33.4882H56.1728C53.0225 33.4882 50.4594 36.0512 50.4594 39.2015V51.0712C50.4594 54.2215 53.0225 56.7845 56.1728 56.7845H94.8521L101.812 65.7918C102.02 66.0614 102.308 66.259 102.634 66.357C102.96 66.4551 103.309 66.4486 103.631 66.3384C103.954 66.2284 104.233 66.0204 104.432 65.7433C104.63 65.4663 104.736 65.1342 104.736 64.7936V39.2015C104.736 36.0512 102.173 33.4882 99.0228 33.4882ZM101.471 60.0113L96.9452 54.1539C96.7926 53.9566 96.5969 53.7968 96.373 53.6869C96.1491 53.5769 95.903 53.5198 95.6536 53.5197H56.1728C54.8226 53.5197 53.7242 52.4214 53.7242 51.0712V39.2015C53.7242 37.8513 54.8226 36.7529 56.1728 36.7529H99.0228C100.373 36.7529 101.471 37.8513 101.471 39.2015V60.0113ZM83.5035 13.0818C83.5035 12.6488 83.6755 12.2336 83.9816 11.9275C84.2878 11.6214 84.703 11.4494 85.1359 11.4494H92.9014C93.3343 11.4494 93.7495 11.6214 94.0556 11.9275C94.3618 12.2336 94.5337 12.6488 94.5337 13.0818C94.5337 13.5147 94.3618 13.9299 94.0556 14.236C93.7495 14.5422 93.3343 14.7142 92.9014 14.7142H85.1361C84.9217 14.7142 84.7094 14.672 84.5114 14.59C84.3133 14.5079 84.1333 14.3877 83.9817 14.2361C83.8301 14.0845 83.7099 13.9046 83.6278 13.7065C83.5458 13.5084 83.5035 13.2962 83.5035 13.0818ZM45.3582 13.0818C45.3582 12.6488 45.5302 12.2336 45.8363 11.9275C46.1425 11.6214 46.5577 11.4494 46.9906 11.4494H61.3637C61.7967 11.4494 62.2119 11.6214 62.518 11.9275C62.8241 12.2336 62.9961 12.6488 62.9961 13.0818C62.9961 13.5147 62.8241 13.9299 62.518 14.236C62.2119 14.5422 61.7967 14.7142 61.3637 14.7142H46.9906C46.5577 14.7142 46.1425 14.5422 45.8363 14.236C45.5302 13.9299 45.3582 13.5147 45.3582 13.0818ZM66.8036 13.0818C66.8036 12.6488 66.9756 12.2336 67.2818 11.9275C67.5879 11.6214 68.0031 11.4494 68.436 11.4494H78.8043C79.2372 11.4494 79.6524 11.6214 79.9586 11.9275C80.2647 12.2336 80.4367 12.6488 80.4367 13.0818C80.4367 13.5147 80.2647 13.9299 79.9586 14.236C79.6524 14.5422 79.2372 14.7142 78.8043 14.7142H68.436C68.0031 14.7142 67.5879 14.5422 67.2818 14.236C66.9756 13.9299 66.8036 13.5147 66.8036 13.0818ZM95.1369 45.1362C95.1369 45.5692 94.9649 45.9844 94.6588 46.2905C94.3527 46.5966 93.9375 46.7686 93.5045 46.7686H83.1362C82.7033 46.7686 82.2881 46.5966 81.982 46.2905C81.6758 45.9844 81.5039 45.5692 81.5039 45.1362C81.5039 44.7033 81.6758 44.2881 81.982 43.982C82.2881 43.6758 82.7033 43.5039 83.1362 43.5039H93.5045C93.9375 43.5039 94.3527 43.6758 94.6588 43.982C94.9649 44.2881 95.1369 44.7033 95.1369 45.1362ZM77.6965 45.1362C77.6965 45.5692 77.5246 45.9844 77.2184 46.2905C76.9123 46.5966 76.4971 46.7686 76.0642 46.7686H61.6908C61.2579 46.7686 60.8427 46.5966 60.5366 46.2905C60.2304 45.9844 60.0584 45.5692 60.0584 45.1362C60.0584 44.7033 60.2304 44.2881 60.5366 43.982C60.8427 43.6758 61.2579 43.5039 61.6908 43.5039H76.0642C76.4971 43.5039 76.9123 43.6758 77.2184 43.982C77.5246 44.2881 77.6965 44.7033 77.6965 45.1362Z" fill="url(#paint0_linear_28_77)"/>
<defs>
<linearGradient id="paint0_linear_28_77" x1="-4.36153" y1="-3.04144" x2="105.32" y2="208.38" gradientUnits="userSpaceOnUse">
<stop offset="0.09375" stop-color="#38D26F"/>
<stop offset="0.739583" stop-color="#357AFF"/>
</linearGradient>
</defs>
</svg>
