<svg width="97" height="95" viewBox="0 0 97 95" fill="none" xmlns="http://www.w3.org/2000/svg">
<path d="M25.7894 78.5361H5.00313C3.88658 78.5361 3.51239 78.5361 3.51239 76.4288V71.4157C3.51239 71.0011 3.35428 70.6035 3.07284 70.3103C2.79139 70.0171 2.40967 69.8524 2.01165 69.8524C1.61363 69.8524 1.23191 70.0171 0.950464 70.3103C0.669021 70.6035 0.510907 71.0011 0.510907 71.4157V76.4288C0.397791 77.0945 0.4313 77.7784 0.608906 78.4287C0.786511 79.079 1.10357 79.6788 1.53617 80.1828C1.96878 80.6868 2.50561 81.082 3.10619 81.3383C3.70676 81.5947 4.35539 81.7056 5.00313 81.6628H25.7894C26.1874 81.6628 26.5692 81.4981 26.8506 81.2049C27.1321 80.9117 27.2902 80.5141 27.2902 80.0995C27.2902 79.6848 27.1321 79.2872 26.8506 78.994C26.5692 78.7008 26.1874 78.5361 25.7894 78.5361ZM2.01165 66.4944C2.40967 66.4944 2.79139 66.3297 3.07284 66.0365C3.35428 65.7433 3.51239 65.3457 3.51239 64.9311V13.2539L48.9349 13.3352V39.401C48.9349 39.8156 49.093 40.2132 49.3744 40.5064C49.6559 40.7996 50.0376 40.9643 50.4356 40.9643C50.8336 40.9643 51.2154 40.7996 51.4968 40.5064C51.7783 40.2132 51.9364 39.8156 51.9364 39.401V13.3352C51.9438 12.4897 51.6287 11.6757 51.0602 11.0722C50.4918 10.4687 49.7165 10.1251 48.9049 10.1168H4.78502L11.6484 4.07196H55.27C55.9069 4.07196 56.5176 4.33549 56.9679 4.80458C57.4182 5.27366 57.6712 5.90988 57.6712 6.57327V38.2983C57.6712 38.7129 57.8293 39.1106 58.1108 39.4037C58.3922 39.6969 58.7739 39.8616 59.1719 39.8616C59.57 39.8616 59.9517 39.6969 60.2331 39.4037C60.5146 39.1106 60.6727 38.7129 60.6727 38.2983V6.57327C60.6727 5.08065 60.1035 3.64915 59.0903 2.5937C58.0771 1.53826 56.7029 0.945313 55.27 0.945313H11.1001C10.7456 0.945089 10.4024 1.07581 10.1317 1.31426L1.21726 9.1809C1.00651 9.40605 0.841782 9.67338 0.733017 9.96673C0.593698 10.1998 0.516993 10.4676 0.510907 10.7421V64.9373C0.512495 65.3508 0.671309 65.7469 0.952581 66.0387C1.23385 66.3305 1.61467 66.4944 2.01165 66.4944Z" fill="white"/>
<path d="M54.8222 38.8426C55.2203 38.8426 55.602 38.6779 55.8834 38.3847C56.1649 38.0915 56.323 37.6939 56.323 37.2792V10.2004C56.3214 8.969 55.8517 7.78838 55.0165 6.91687C54.1814 6.04535 53.0489 5.5539 51.8668 5.55004L14.3562 5.46875C13.9582 5.46875 13.5765 5.63346 13.295 5.92664C13.0136 6.21982 12.8555 6.61745 12.8555 7.03207C12.8555 7.44669 13.0136 7.84433 13.295 8.13751C13.5765 8.43069 13.9582 8.59539 14.3562 8.59539L51.8688 8.67669C52.2562 8.67779 52.6274 8.83874 52.9012 9.12432C53.175 9.40989 53.329 9.79682 53.3295 10.2004V37.2792C53.3295 37.6924 53.4865 38.0888 53.7662 38.3817C54.0459 38.6747 54.4256 38.8404 54.8222 38.8426ZM75.4925 68.604C75.0945 68.604 74.7127 68.7688 74.4313 69.0619C74.1498 69.3551 73.9917 69.7527 73.9917 70.1674V83.1659C73.9945 83.471 73.9259 83.7722 73.7916 84.0434C72.9472 85.7214 68.9452 91.2014 52.9373 91.2014C36.9294 91.2014 32.9274 85.7276 32.073 84.0476C31.9391 83.777 31.8704 83.4765 31.8729 83.1721V70.8302C31.8729 70.4156 31.7148 70.018 31.4333 69.7248C31.1519 69.4316 30.7702 69.2669 30.3721 69.2669C29.9741 69.2669 29.5924 69.4316 29.311 69.7248C29.0295 70.018 28.8714 70.4156 28.8714 70.8302V83.1659C28.8672 83.977 29.0512 84.7772 29.4077 85.4984C30.7563 88.1518 35.7288 94.328 52.9373 94.328C70.1458 94.328 75.1163 88.1581 76.455 85.5067C76.8143 84.7857 76.9998 83.9845 76.9952 83.1721V70.1674C76.9952 69.9619 76.9563 69.7584 76.8808 69.5686C76.8052 69.3788 76.6945 69.2064 76.555 69.0612C76.4154 68.916 76.2497 68.8009 76.0674 68.7225C75.8851 68.644 75.6897 68.6038 75.4925 68.604Z" fill="white"/>
<path d="M95.5319 55.2225L55.8283 41.4069C55.5251 41.3006 55.1969 41.3006 54.8938 41.4069L10.1697 56.3439C9.87104 56.4463 9.61075 56.6436 9.42546 56.9082C9.24016 57.1728 9.13919 57.4912 9.13676 57.8187C9.13433 58.1462 9.23057 58.4663 9.41191 58.7338C9.59326 59.0013 9.85058 59.2028 10.1477 59.31L51.9684 74.0344C52.1231 74.0889 52.2853 74.1171 52.4486 74.1178C52.6205 74.1175 52.791 74.0865 52.9528 74.0261L83.65 62.6076V70.1115C82.6153 70.437 81.7082 71.1 81.0623 72.0028C80.4164 72.9057 80.0659 74.0007 80.0623 75.1267V78.2783C80.0623 79.6759 80.5952 81.0162 81.5439 82.0044C82.4925 82.9926 83.7792 83.5478 85.1208 83.5478C86.4624 83.5478 87.749 82.9926 88.6977 82.0044C89.6463 81.0162 90.1793 79.6759 90.1793 78.2783V75.1225C90.1765 74.0067 89.8333 72.9207 89.1991 72.0215C88.565 71.1222 87.6728 70.4563 86.6515 70.1199V61.4903L95.5579 58.1782C95.8521 58.0689 96.1063 57.8667 96.2849 57.5998C96.4635 57.3329 96.5578 57.0145 96.5545 56.6892C96.5512 56.3638 96.4505 56.0476 96.2665 55.7847C96.0825 55.5218 95.8243 55.3253 95.5279 55.2225H95.5319ZM87.1698 78.2783C87.1698 78.8466 86.9531 79.3917 86.5673 79.7935C86.1815 80.1954 85.6583 80.4211 85.1128 80.4211C84.5672 80.4211 84.044 80.1954 83.6582 79.7935C83.2725 79.3917 83.0558 78.8466 83.0558 78.2783V75.1225C83.0558 74.8411 83.109 74.5625 83.2123 74.3025C83.3157 74.0425 83.4672 73.8063 83.6582 73.6073C83.8493 73.4084 84.076 73.2505 84.3256 73.1428C84.5752 73.0351 84.8426 72.9797 85.1128 72.9797C85.3829 72.9797 85.6504 73.0351 85.9 73.1428C86.1495 73.2505 86.3763 73.4084 86.5673 73.6073C86.7583 73.8063 86.9098 74.0425 87.0132 74.3025C87.1166 74.5625 87.1698 74.8411 87.1698 75.1225V78.2783ZM84.9367 58.8098L53.0949 55.2308C52.8965 55.2035 52.6948 55.2179 52.5018 55.273C52.3088 55.3282 52.1283 55.423 51.971 55.5518C51.8137 55.6807 51.6827 55.8411 51.5858 56.0235C51.4888 56.2059 51.4279 56.4066 51.4065 56.6139C51.3852 56.8212 51.4038 57.0308 51.4614 57.2305C51.519 57.4302 51.6144 57.6158 51.7418 57.7765C51.8693 57.9373 52.0264 58.0698 52.2038 58.1663C52.3812 58.2629 52.5753 58.3215 52.7748 58.3387L78.4455 61.2235L52.4326 70.9036L15.4263 57.8718L55.342 44.5314L90.4614 56.7524L84.9367 58.8098Z" fill="white"/>
</svg>
