<svg width="38" height="38" viewBox="0 0 38 38" fill="none" xmlns="http://www.w3.org/2000/svg">
<rect x="0.960938" y="0.457031" width="36.3827" height="37.1406" rx="18.1913" fill="url(#paint0_linear_1254_1503)"/>
<g clip-path="url(#clip0_1254_1503)">
<path d="M11.5742 13.2082C11.5742 12.6978 11.7449 12.2767 12.0864 11.9449C12.4278 11.6131 12.8717 11.4473 13.4179 11.4473C13.9545 11.4473 14.3886 11.6106 14.7202 11.9373C15.0617 12.2741 15.2324 12.7131 15.2324 13.2541C15.2324 13.7441 15.0666 14.1525 14.7349 14.4791C14.3935 14.816 13.9447 14.9845 13.3887 14.9845H13.374C12.8375 14.9845 12.4034 14.816 12.0717 14.4791C11.7401 14.1423 11.5742 13.7186 11.5742 13.2082ZM11.7644 26.6067V16.3779H15.0129V26.6067H11.7644ZM16.8127 26.6067H20.0612V20.8951C20.0612 20.5378 20.1002 20.2622 20.1782 20.0682C20.3148 19.7211 20.5221 19.4276 20.8001 19.1878C21.0781 18.9479 21.4269 18.8279 21.8463 18.8279C22.9389 18.8279 23.4852 19.5986 23.4852 21.1401V26.6067H26.7337V20.742C26.7337 19.2311 26.3922 18.0853 25.7094 17.3043C25.0265 16.5234 24.1242 16.1329 23.0023 16.1329C21.7439 16.1329 20.7635 16.6995 20.0612 17.8326V17.8632H20.0465L20.0612 17.8326V16.3779H16.8127C16.8322 16.7046 16.842 17.7203 16.842 19.4251C16.842 21.1299 16.8322 23.5237 16.8127 26.6067Z" fill="white"/>
</g>
<defs>
<linearGradient id="paint0_linear_1254_1503" x1="-0.64979" y1="-1.04619" x2="46.0758" y2="77.9032" gradientUnits="userSpaceOnUse">
<stop offset="0.09375" stop-color="#38D26F"/>
<stop offset="0.739583" stop-color="#357AFF"/>
</linearGradient>
<clipPath id="clip0_1254_1503">
<rect width="15.1594" height="15.1594" fill="white" transform="translate(11.5742 11.4473)"/>
</clipPath>
</defs>
</svg>
