<svg width="37" height="38" viewBox="0 0 37 38" fill="none" xmlns="http://www.w3.org/2000/svg">
<rect x="0.417969" y="0.457031" width="36.3827" height="37.1406" rx="18.1913" fill="url(#paint0_linear_1254_1504)"/>
<g clip-path="url(#clip0_1254_1504)">
<path d="M16.0848 19.027C16.0848 17.6317 17.2156 16.5002 18.611 16.5002C20.0063 16.5002 21.1377 17.6317 21.1377 19.027C21.1377 20.4223 20.0063 21.5538 18.611 21.5538C17.2156 21.5538 16.0848 20.4223 16.0848 19.027ZM14.7189 19.027C14.7189 21.1766 16.4613 22.9191 18.611 22.9191C20.7606 22.9191 22.5031 21.1766 22.5031 19.027C22.5031 16.8774 20.7606 15.1349 18.611 15.1349C16.4613 15.1349 14.7189 16.8774 14.7189 19.027ZM21.7476 14.9806C21.7476 15.4826 22.1547 15.8904 22.6574 15.8904C23.1594 15.8904 23.5672 15.4826 23.5672 14.9806C23.5672 14.4785 23.16 14.0714 22.6574 14.0714C22.1547 14.0714 21.7476 14.4785 21.7476 14.9806ZM15.5485 25.1967C14.8095 25.163 14.4078 25.0399 14.1409 24.9359C13.787 24.7981 13.5348 24.634 13.269 24.3689C13.0039 24.1038 12.8392 23.8516 12.7021 23.4977C12.598 23.2307 12.4749 22.8291 12.4413 22.0901C12.4045 21.2911 12.3972 21.0511 12.3972 19.027C12.3972 17.0029 12.4052 16.7635 12.4413 15.9639C12.4749 15.2249 12.5986 14.8239 12.7021 14.5563C12.8399 14.2024 13.0039 13.9502 13.269 13.6844C13.5341 13.4193 13.7864 13.2546 14.1409 13.1175C14.4078 13.0134 14.8095 12.8904 15.5485 12.8567C16.3475 12.8199 16.5875 12.8126 18.611 12.8126C20.6351 12.8126 20.8745 12.8206 21.6741 12.8567C22.4131 12.8904 22.8141 13.014 23.0817 13.1175C23.4355 13.2546 23.6878 13.4193 23.9535 13.6844C24.2186 13.9496 24.3827 14.2024 24.5205 14.5563C24.6245 14.8232 24.7476 15.2249 24.7813 15.9639C24.818 16.7635 24.8254 17.0029 24.8254 19.027C24.8254 21.0505 24.818 21.2905 24.7813 22.0901C24.7476 22.8291 24.6239 23.2307 24.5205 23.4977C24.3827 23.8516 24.2186 24.1038 23.9535 24.3689C23.6884 24.634 23.4355 24.7981 23.0817 24.9359C22.8147 25.0399 22.4131 25.163 21.6741 25.1967C20.8751 25.2334 20.6351 25.2408 18.611 25.2408C16.5875 25.2408 16.3475 25.2334 15.5485 25.1967ZM15.486 11.4932C14.6791 11.5299 14.128 11.6579 13.6462 11.8452C13.1478 12.0387 12.7254 12.2983 12.3035 12.7195C11.8823 13.1408 11.6227 13.5632 11.4292 14.0622C11.2419 14.5441 11.1139 15.0951 11.0772 15.902C11.0398 16.7102 11.0312 16.9686 11.0312 19.027C11.0312 21.0854 11.0398 21.3438 11.0772 22.1519C11.1139 22.9589 11.2419 23.5099 11.4292 23.9918C11.6227 24.4901 11.8817 24.9132 12.3035 25.3344C12.7247 25.7557 13.1472 26.0147 13.6462 26.2087C14.1286 26.3961 14.6791 26.5241 15.486 26.5608C16.2948 26.5975 16.5526 26.6067 18.611 26.6067C20.67 26.6067 20.9277 26.5981 21.7359 26.5608C22.5429 26.5241 23.0939 26.3961 23.5757 26.2087C24.0741 26.0147 24.4966 25.7557 24.9184 25.3344C25.3397 24.9132 25.5986 24.4901 25.7927 23.9918C25.9801 23.5099 26.1086 22.9589 26.1448 22.1519C26.1815 21.3431 26.1901 21.0854 26.1901 19.027C26.1901 16.9686 26.1815 16.7102 26.1448 15.902C26.108 15.0951 25.9801 14.5441 25.7927 14.0622C25.5986 13.5638 25.3397 13.1414 24.9184 12.7195C24.4972 12.2983 24.0741 12.0387 23.5764 11.8452C23.0939 11.6579 22.5429 11.5293 21.7365 11.4932C20.9284 11.4564 20.67 11.4473 18.6116 11.4473C16.5526 11.4473 16.2948 11.4558 15.486 11.4932Z" fill="white"/>
</g>
<defs>
<linearGradient id="paint0_linear_1254_1504" x1="-1.19276" y1="-1.04619" x2="45.5328" y2="77.9032" gradientUnits="userSpaceOnUse">
<stop offset="0.09375" stop-color="#38D26F"/>
<stop offset="0.739583" stop-color="#357AFF"/>
</linearGradient>
<clipPath id="clip0_1254_1504">
<rect width="15.1594" height="15.1594" fill="white" transform="translate(11.0312 11.4473)"/>
</clipPath>
</defs>
</svg>
