<svg width="89" height="89" viewBox="0 0 89 89" fill="none" xmlns="http://www.w3.org/2000/svg">
<mask id="path-1-inside-1_28_84" fill="white">
<path d="M44.5038 8.29492C39.6122 8.29492 34.8305 9.74545 30.7633 12.4631C26.6961 15.1807 23.5261 19.0433 21.6541 23.5626C19.7822 28.0818 19.2924 33.0546 20.2467 37.8522C21.201 42.6498 23.5565 47.0567 27.0154 50.5156C30.4743 53.9745 34.8812 56.33 39.6788 57.2843C44.4763 58.2386 49.4492 57.7488 53.9684 55.8769C58.4877 54.0049 62.3503 50.8349 65.0679 46.7677C67.7855 42.7005 69.2361 37.9188 69.2361 33.0272C69.2288 26.47 66.6207 20.1835 61.9841 15.5469C57.3475 10.9103 51.0609 8.30224 44.5038 8.29492ZM45.9586 31.5562V24.3229C48.8359 24.2945 51.6465 24.1829 54.3503 23.9901C54.8867 26.3394 55.2098 28.7323 55.3158 31.1397C52.3209 31.3823 49.1789 31.5234 45.9586 31.5562ZM55.3416 34.0556C55.2826 36.5915 54.9847 39.1162 54.452 41.5962C51.7063 41.8001 48.855 41.9197 45.9587 41.95V34.4657C49.1805 34.4333 52.33 34.2947 55.3416 34.0556ZM45.9586 21.4133V16.6375C47.7791 16.5603 49.5857 16.2856 51.3469 15.8185C52.2524 17.5159 53.0007 19.2927 53.5823 21.1266C51.1199 21.2907 48.569 21.3871 45.9586 21.4133ZM44.5038 11.2046C47.0505 11.21 49.5762 11.6642 51.9653 12.5463C49.5687 13.3873 47.0434 13.8021 44.5038 13.7719C41.9642 13.8021 39.4389 13.3873 37.0423 12.5463C39.4313 11.6642 41.9571 11.21 44.5038 11.2046ZM37.098 15.6424C39.033 16.2184 41.0318 16.5526 43.0489 16.6375V21.4133C40.2105 21.3848 37.4405 21.2742 34.7807 21.0829C35.3801 19.2004 36.156 17.3789 37.098 15.6424ZM33.0363 31.0866C33.1453 28.682 33.4711 26.2921 34.0097 23.9461C36.9095 24.1681 39.9429 24.2923 43.0489 24.3229V31.5562C39.5936 31.521 36.2251 31.3626 33.0363 31.0866ZM43.0489 34.4657V41.9499C39.9176 41.9172 36.8361 41.7814 33.8878 41.5464C33.358 39.0648 33.0632 36.5388 33.0072 34.002C36.2159 34.274 39.5915 34.4309 43.0489 34.4657ZM33.6583 14.1172C33.8887 14.2641 34.1391 14.4003 34.3924 14.5359C33.335 16.5476 32.4768 18.6578 31.83 20.8365C30.1133 20.669 28.4509 20.4689 26.8634 20.2326C28.6742 17.74 30.9894 15.6564 33.6583 14.1172ZM25.187 22.9069C27.0619 23.2141 29.0304 23.4743 31.0924 23.6875C30.576 26.0269 30.2561 28.4053 30.136 30.798C27.5715 30.508 25.1669 30.1378 22.963 29.6953C23.3232 27.3249 24.0748 25.0309 25.187 22.9069ZM22.6812 33.0272C22.6812 32.887 22.6995 32.7514 22.7022 32.6118C24.9797 33.0575 27.4588 33.4273 30.0893 33.7178C30.1239 36.2517 30.3791 38.7778 30.8522 41.2673C28.4004 41.0069 26.0855 40.6738 23.9456 40.2778C23.1139 37.9507 22.6863 35.4985 22.6812 33.0272ZM33.6583 51.9372C30.1666 49.9316 27.2934 47.0047 25.3528 43.4764C27.3089 43.789 29.3904 44.0486 31.5547 44.2591C32.2303 46.776 33.182 49.2106 34.3924 51.5184C34.1391 51.6541 33.8887 51.7903 33.6583 51.9372ZM43.0489 44.8595V49.4169C41.0318 49.5018 39.033 49.836 37.098 50.412C36.0865 48.5356 35.267 46.5618 34.652 44.5208C37.3742 44.7162 40.1918 44.8302 43.0489 44.8595ZM44.5038 54.8498C41.9571 54.8444 39.4314 54.3902 37.0424 53.508C39.4389 52.6671 41.9642 52.2523 44.5038 52.2825C47.0434 52.2523 49.5686 52.6671 51.9652 53.508C49.5762 54.3902 47.0504 54.8444 44.5038 54.8498ZM51.3469 50.2359C49.5857 49.7688 47.7791 49.4941 45.9586 49.4169V44.8595C48.58 44.8326 51.1717 44.7379 53.6842 44.571C53.0895 46.5302 52.3067 48.4274 51.3469 50.2359ZM55.3493 51.9373C54.9489 51.6814 54.5332 51.4503 54.1045 51.2454C55.2342 49.0383 56.1299 46.719 56.7768 44.3254C59.1859 44.1051 61.4949 43.8217 63.6548 43.4765C61.7142 47.0048 58.841 49.9317 55.3493 51.9373ZM66.3264 33.0272C66.3213 35.4985 65.8936 37.9507 65.0619 40.2778C62.7291 40.7094 60.1811 41.0627 57.484 41.3329C57.961 38.8454 58.2204 36.3211 58.2591 33.7886C61.1343 33.4884 63.8385 33.0945 66.3053 32.6118C66.308 32.7514 66.3264 32.887 66.3264 33.0272ZM66.0445 29.6953C63.6548 30.1752 61.0245 30.5679 58.2166 30.8679C58.1006 28.4725 57.7844 26.0909 57.2713 23.7482C59.5635 23.5283 61.7523 23.2458 63.8206 22.9069C64.9328 25.0309 65.6844 27.3249 66.0445 29.6953ZM56.5369 20.8935C55.9176 18.7939 55.1032 16.7569 54.1045 14.809C54.5332 14.6041 54.9489 14.373 55.3493 14.1172C58.0182 15.6564 60.3333 17.74 62.1442 20.2326C60.3615 20.4979 58.4802 20.7151 56.5369 20.8935Z"/>
</mask>
<path d="M44.5038 8.29492L44.5908 -69.705L44.5473 -69.7051H44.5038V8.29492ZM69.2361 33.0272L147.236 33.0272V32.9837L147.236 32.9402L69.2361 33.0272ZM45.9586 31.5562H-32.0414V110.356L46.7543 109.552L45.9586 31.5562ZM45.9586 24.3229L45.1884 -53.6733L-32.0414 -52.9107V24.3229H45.9586ZM54.3503 23.9901L130.394 6.63002L115.51 -58.5685L48.8031 -53.8124L54.3503 23.9901ZM55.3158 31.1397L61.6118 108.885L136.548 102.817L133.24 27.7081L55.3158 31.1397ZM55.3416 34.0556L133.32 35.869L135.33 -50.5389L49.1696 -43.6998L55.3416 34.0556ZM54.452 41.5962L60.228 119.382L118.45 115.059L130.712 57.9787L54.452 41.5962ZM45.9587 41.95H-32.0413V120.77L46.7744 119.946L45.9587 41.95ZM45.9587 34.4657L45.174 -43.5303L-32.0413 -42.7535L-32.0413 34.4657H45.9587ZM45.9586 21.4133H-32.0414V100.2L46.7415 99.4094L45.9586 21.4133ZM45.9586 16.6375L42.6512 -61.2923L-32.0414 -58.1223V16.6375H45.9586ZM51.3469 15.8185L120.166 -20.895L91.0792 -75.419L31.3476 -59.574L51.3469 15.8185ZM53.5823 21.1266L58.7691 98.954L157.997 92.341L127.933 -2.45369L53.5823 21.1266ZM44.5038 11.2046L44.6685 -66.7952L44.5038 -66.7956L44.3391 -66.7952L44.5038 11.2046ZM51.9653 12.5463L77.7924 86.1463L282.205 14.4154L78.9839 -60.6247L51.9653 12.5463ZM44.5038 13.7719L45.431 -64.2226L44.5038 -64.2336L43.5765 -64.2226L44.5038 13.7719ZM37.0423 12.5463L10.0237 -60.6247L-193.197 14.4154L11.2152 86.1463L37.0423 12.5463ZM37.098 15.6424L59.3515 -59.1158L-1.29148 -77.1676L-31.4629 -21.5517L37.098 15.6424ZM43.0489 16.6375H121.049V-58.1486L46.329 -61.2935L43.0489 16.6375ZM43.0489 21.4133L42.2658 99.4094L121.049 100.2V21.4133H43.0489ZM34.7807 21.0829L-39.5424 -2.58333L-69.5886 91.776L29.1837 98.8818L34.7807 21.0829ZM33.0363 31.0866L-44.8837 27.5535L-48.2746 102.339L26.309 108.796L33.0363 31.0866ZM34.0097 23.9461L39.9633 -53.8264L-26.9872 -58.9515L-42.0124 6.49217L34.0097 23.9461ZM43.0489 24.3229H121.049V-52.9136L43.8161 -53.6733L43.0489 24.3229ZM43.0489 31.5562L42.2542 109.552L121.049 110.355V31.5562H43.0489ZM43.0489 34.4657H121.049V-42.7528L43.8343 -43.5303L43.0489 34.4657ZM43.0489 41.9499L42.2329 119.946L121.049 120.77V41.9499H43.0489ZM33.8878 41.5464L-42.393 57.8324L-30.2556 114.682L27.6915 119.3L33.8878 41.5464ZM33.0072 34.002L39.597 -43.7192L-46.8871 -51.052L-44.9738 35.7213L33.0072 34.002ZM33.6583 14.1172L75.5974 -51.6484L35.691 -77.097L-5.3095 -53.4514L33.6583 14.1172ZM34.3924 14.5359L103.436 50.8251L139.449 -17.6919L71.2097 -54.2281L34.3924 14.5359ZM31.83 20.8365L24.257 98.468L88.2938 104.715L106.605 43.0347L31.83 20.8365ZM26.8634 20.2326L-36.2414 -25.6127L-111.84 78.4464L15.3799 97.3826L26.8634 20.2326ZM25.187 22.9069L37.8001 -54.0665L-17.7835 -63.1746L-43.9124 -13.277L25.187 22.9069ZM31.0924 23.6875L107.259 40.5012L126.112 -44.9049L39.1134 -53.899L31.0924 23.6875ZM30.136 30.798L21.3713 108.304L103.876 117.634L108.038 34.7079L30.136 30.798ZM22.963 29.6953L-54.1517 17.9772L-65.3279 91.5259L7.60956 106.169L22.963 29.6953ZM22.6812 33.0272H-55.3188V33.108L-55.3187 33.1887L22.6812 33.0272ZM22.7022 32.6118L37.6815 -43.9363L-53.5018 -61.7795L-55.2834 31.1162L22.7022 32.6118ZM30.0893 33.7178L108.082 32.6534L107.142 -36.2482L38.65 -43.811L30.0893 33.7178ZM30.8522 41.2673L22.614 118.831L127.096 129.928L107.481 26.7059L30.8522 41.2673ZM23.9456 40.2778L-49.5044 66.5283L-34.3947 108.806L9.75255 116.976L23.9456 40.2778ZM33.6583 51.9372L-5.19228 119.573L35.7607 143.097L75.5856 117.71L33.6583 51.9372ZM25.3528 43.4764L37.6605 -33.5464L-119.878 -58.72L-42.9913 81.0674L25.3528 43.4764ZM31.5547 44.2591L106.888 24.037L92.8804 -28.1442L39.1056 -33.3745L31.5547 44.2591ZM34.3924 51.5184L71.2343 120.269L139.375 83.7542L103.469 15.2907L34.3924 51.5184ZM43.0489 44.8595H121.049V-32.3447L43.8488 -33.1364L43.0489 44.8595ZM43.0489 49.4169L46.3285 127.348L121.049 124.203L121.049 49.4169H43.0489ZM37.098 50.412L-31.5612 87.4244L-1.45597 143.27L59.351 125.17L37.098 50.412ZM34.652 44.5208L40.2364 -33.279L-72.6958 -41.3852L-40.0315 67.0234L34.652 44.5208ZM44.5038 54.8498L44.3381 132.85L44.5038 132.85L44.6694 132.85L44.5038 54.8498ZM37.0424 53.508L11.2158 -20.0922L-193.195 51.6363L10.0227 126.679L37.0424 53.508ZM44.5038 52.2825L43.5757 130.277L44.5038 130.288L45.4319 130.277L44.5038 52.2825ZM51.9652 53.508L78.9849 126.679L282.203 51.6363L77.7917 -20.0922L51.9652 53.508ZM51.3469 50.2359L31.3478 125.628L91.2109 141.508L120.245 86.8018L51.3469 50.2359ZM45.9586 49.4169H-32.0414V124.177L42.6514 127.347L45.9586 49.4169ZM45.9586 44.8595L45.1578 -33.1364L-32.0414 -32.3437L-32.0414 44.8595H45.9586ZM53.6842 44.571L128.322 67.2264L161.093 -40.7378L48.5129 -33.2574L53.6842 44.571ZM55.3493 51.9373L13.3447 117.661L53.1925 143.128L94.1996 119.573L55.3493 51.9373ZM54.1045 51.2454L-15.3287 15.7062L-51.844 87.0466L20.4594 121.616L54.1045 51.2454ZM56.7768 44.3254L49.6734 -33.3505L-4.36344 -28.4088L-18.5214 23.9739L56.7768 44.3254ZM63.6548 43.4765L131.999 81.0676L208.887 -58.7211L51.3466 -33.5463L63.6548 43.4765ZM66.3264 33.0272L144.326 33.1887L144.326 33.108V33.0272H66.3264ZM65.0619 40.2778L79.2539 116.976L123.402 108.807L138.512 66.5283L65.0619 40.2778ZM57.484 41.3329L-19.1199 26.6409L-38.8227 129.371L65.2592 118.944L57.484 41.3329ZM58.2591 33.7886L50.1609 -43.7899L-18.6751 -36.6044L-19.7319 32.5976L58.2591 33.7886ZM66.3053 32.6118L144.291 31.1162L142.509 -61.7782L51.3271 -43.9365L66.3053 32.6118ZM66.0445 29.6953L81.4 106.169L154.335 91.524L143.159 17.9775L66.0445 29.6953ZM58.2166 30.8679L-19.692 34.6418L-15.6925 117.208L66.5031 108.426L58.2166 30.8679ZM57.2713 23.7482L49.8212 -53.8952L-37.7421 -45.4932L-18.9228 40.4355L57.2713 23.7482ZM63.8206 22.9069L132.92 -13.277L106.791 -63.1753L51.2065 -54.0664L63.8206 22.9069ZM56.5369 20.8935L-18.2766 42.9604L-0.147186 104.425L63.6669 98.567L56.5369 20.8935ZM54.1045 14.809L20.4632 -55.5633L-51.8957 -20.9722L-15.3042 50.3959L54.1045 14.809ZM55.3493 14.1172L94.3171 -53.4514L53.2731 -77.1221L13.3483 -51.6089L55.3493 14.1172ZM62.1442 20.2326L73.6244 97.3831L200.851 78.4514L125.249 -25.6127L62.1442 20.2326ZM44.5038 -69.7051C24.1853 -69.7051 4.32302 -63.6799 -12.5712 -52.3916L74.0977 77.3177C65.3379 83.1708 55.0391 86.2949 44.5038 86.2949V-69.7051ZM-12.5712 -52.3916C-29.4655 -41.1032 -42.6329 -25.0586 -50.4085 -6.28674L93.7167 53.4119C89.685 63.1453 82.8576 71.4646 74.0977 77.3177L-12.5712 -52.3916ZM-50.4085 -6.28674C-58.184 12.4851 -60.2185 33.1412 -56.2545 53.0693L96.748 22.6352C98.8033 32.9681 97.7484 43.6785 93.7167 53.4119L-50.4085 -6.28674ZM-56.2545 53.0693C-52.2906 72.9974 -42.5063 91.3025 -28.1389 105.67L82.1697 -4.63875C89.6194 2.81088 94.6926 12.3023 96.748 22.6352L-56.2545 53.0693ZM-28.1389 105.67C-13.7715 120.037 4.53359 129.822 24.4617 133.786L54.8958 -19.217C65.2287 -17.1616 74.7201 -12.0884 82.1697 -4.63875L-28.1389 105.67ZM24.4617 133.786C44.3898 137.749 65.0459 135.715 83.8177 127.939L24.1191 -16.1857C33.8525 -20.2174 44.5628 -21.2723 54.8958 -19.217L24.4617 133.786ZM83.8177 127.939C102.59 120.164 118.634 106.996 129.923 90.1022L0.213298 3.43325C6.06643 -5.32658 14.3857 -12.154 24.1191 -16.1857L83.8177 127.939ZM129.923 90.1022C141.211 73.208 147.236 53.3457 147.236 33.0272L-8.76393 33.0272C-8.76393 22.4918 -5.63983 12.1931 0.213298 3.43325L129.923 90.1022ZM147.236 32.9402C147.206 5.72632 136.382 -20.3643 117.138 -39.6074L6.82974 70.7013C-3.14017 60.7313 -8.74815 47.2138 -8.76388 33.1142L147.236 32.9402ZM117.138 -39.6074C97.8953 -58.8505 71.8047 -69.6747 44.5908 -69.705L44.4168 86.2949C30.3172 86.2791 16.7996 80.6712 6.82974 70.7013L117.138 -39.6074ZM123.959 31.5562V24.3229H-32.0414V31.5562H123.959ZM46.7288 102.319C51.1077 102.276 55.5142 102.105 59.8975 101.793L48.8031 -53.8124C47.7787 -53.7394 46.564 -53.6869 45.1884 -53.6733L46.7288 102.319ZM-21.6933 41.3502C-22.2018 39.1226 -22.5082 36.8538 -22.6087 34.5713L133.24 27.7081C132.928 20.6108 131.975 13.5562 130.394 6.63002L-21.6933 41.3502ZM49.0198 -46.6058C47.9492 -46.5191 46.6447 -46.4549 45.163 -46.4397L46.7543 109.552C51.7132 109.502 56.6925 109.284 61.6118 108.885L49.0198 -46.6058ZM-22.6374 32.2422C-22.5824 29.8786 -22.3048 27.5254 -21.8082 25.2138L130.712 57.9787C132.274 50.707 133.148 43.3044 133.32 35.869L-22.6374 32.2422ZM48.676 -36.1896C47.6413 -36.1128 46.4456 -36.0594 45.143 -36.0457L46.7744 119.946C51.2645 119.899 55.7713 119.713 60.228 119.382L48.676 -36.1896ZM123.959 41.95V34.4657H-32.0413V41.95H123.959ZM46.7434 112.462C51.6705 112.412 56.6195 112.2 61.5135 111.811L49.1696 -43.6998C48.0406 -43.6102 46.6905 -43.5456 45.174 -43.5303L46.7434 112.462ZM123.959 21.4133V16.6375H-32.0414V21.4133H123.959ZM49.2661 94.5674C56.7258 94.2508 64.1292 93.1254 71.3462 91.2109L31.3476 -59.574C35.0422 -60.5541 38.8323 -61.1302 42.6512 -61.2923L49.2661 94.5674ZM-17.4726 52.5319C-18.8075 50.0296 -19.9106 47.4103 -20.768 44.7069L127.933 -2.45369C125.912 -8.82489 123.312 -14.9978 120.166 -20.895L-17.4726 52.5319ZM48.3955 -56.7007C47.466 -56.6388 46.3853 -56.5949 45.1757 -56.5827L46.7415 99.4094C50.7526 99.3692 54.7738 99.2202 58.7691 98.954L48.3955 -56.7007ZM44.3391 89.2044C37.7202 89.1905 31.1557 88.01 24.9466 85.7173L78.9839 -60.6247C67.9968 -64.6817 56.3807 -66.7705 44.6685 -66.7952L44.3391 89.2044ZM26.1381 -61.0537C32.3348 -63.2282 38.8644 -64.3007 45.431 -64.2226L43.5765 91.7664C55.2225 91.9048 66.8027 90.0027 77.7924 86.1463L26.1381 -61.0537ZM43.5765 -64.2226C50.1432 -64.3007 56.6728 -63.2282 62.8695 -61.0537L11.2152 86.1463C22.2049 90.0027 33.7851 91.9048 45.431 91.7664L43.5765 -64.2226ZM64.061 85.7173C57.8519 88.01 51.2873 89.1905 44.6685 89.2044L44.3391 -66.7952C32.6269 -66.7705 21.0107 -64.6817 10.0237 -60.6247L64.061 85.7173ZM14.8445 90.4005C22.9488 92.813 31.3206 94.2129 39.7689 94.5685L46.329 -61.2935C50.7431 -61.1077 55.1172 -60.3762 59.3515 -59.1158L14.8445 90.4005ZM-34.9511 16.6375V21.4133H121.049V16.6375H-34.9511ZM43.8321 -56.5827C42.4957 -56.5961 41.3346 -56.6472 40.3776 -56.7161L29.1837 98.8818C33.5465 99.1957 37.9254 99.3658 42.2658 99.4094L43.8321 -56.5827ZM109.104 44.749C108.213 47.5473 107.059 50.2552 105.659 52.8365L-31.4629 -21.5517C-34.7474 -15.4974 -37.4525 -9.14644 -39.5424 -2.58333L109.104 44.749ZM110.956 34.6196C110.853 36.903 110.543 39.1723 110.032 41.4L-42.0124 6.49217C-43.6011 13.4119 -44.5621 20.461 -44.8837 27.5535L110.956 34.6196ZM28.0561 101.719C32.8475 102.085 37.6195 102.273 42.2817 102.319L43.8161 -53.6733C42.2663 -53.6886 40.9715 -53.7492 39.9633 -53.8264L28.0561 101.719ZM-34.9511 24.3229V31.5562H121.049V24.3229H-34.9511ZM43.8437 -46.4398C42.2225 -46.4563 40.8387 -46.5297 39.7635 -46.6228L26.309 108.796C31.6115 109.255 36.9647 109.498 42.2542 109.552L43.8437 -46.4398ZM-34.9511 34.4657V41.9499H121.049V34.4657H-34.9511ZM43.865 -36.0458C42.4267 -36.0609 41.1429 -36.1227 40.0841 -36.2071L27.6915 119.3C32.5293 119.685 37.4085 119.895 42.2329 119.946L43.865 -36.0458ZM110.169 25.2604C110.662 27.5702 110.936 29.9213 110.988 32.2826L-44.9738 35.7213C-44.8099 43.1564 -43.9458 50.5595 -42.393 57.8324L110.169 25.2604ZM26.4174 111.723C31.6695 112.168 36.985 112.409 42.2636 112.462L43.8343 -43.5303C42.1979 -43.5468 40.7623 -43.6204 39.597 -43.7192L26.4174 111.723ZM-8.28086 79.8827C-5.25113 81.8148 -2.58995 83.2115 -2.42502 83.2998L71.2097 -54.2281C71.2125 -54.2266 71.2428 -54.2104 71.2886 -54.1857C71.3352 -54.1606 71.4072 -54.1217 71.4974 -54.0726C71.6735 -53.9768 71.9578 -53.8208 72.3122 -53.6211C72.9918 -53.2381 74.163 -52.5631 75.5974 -51.6484L-8.28086 79.8827ZM-34.6518 -21.7533C-38.0738 -15.2426 -40.8513 -8.41288 -42.9445 -1.36171L106.605 43.0347C105.805 45.7285 104.744 48.3377 103.436 50.8251L-34.6518 -21.7533ZM39.4031 -56.795C38.8005 -56.8538 38.4564 -56.9011 38.3469 -56.9174L15.3799 97.3826C18.4454 97.8389 21.4261 98.1918 24.257 98.468L39.4031 -56.795ZM89.9682 66.0779C85.3464 72.4395 79.4377 77.7574 72.6261 81.6858L-5.3095 -53.4514C-17.4589 -46.4446 -27.9979 -36.9595 -36.2414 -25.6127L89.9682 66.0779ZM12.5739 99.8803C16.1031 100.459 19.6098 100.916 23.0714 101.274L39.1134 -53.899C38.451 -53.9675 38.0208 -54.0304 37.8001 -54.0665L12.5739 99.8803ZM-45.0738 6.87379C-46.5274 13.4585 -47.4279 20.1532 -47.7659 26.888L108.038 34.7079C107.94 36.6574 107.679 38.5953 107.259 40.5012L-45.0738 6.87379ZM38.9007 -46.708C38.5915 -46.743 38.3818 -46.7727 38.27 -46.7899C38.1561 -46.8074 38.174 -46.8073 38.3165 -46.7787L7.60956 106.169C12.2687 107.105 16.8939 107.798 21.3713 108.304L38.9007 -46.708ZM100.078 41.4134C99.1398 47.586 97.1827 53.5598 94.2864 59.0908L-43.9124 -13.277C-49.0331 -3.49806 -52.4934 7.06387 -54.1517 17.9772L100.078 41.4134ZM100.681 33.0272C100.681 34.6736 100.628 36.0184 100.583 36.8939C100.56 37.3368 100.538 37.7 100.522 37.9424C100.507 38.176 100.494 38.3549 100.492 38.386C100.491 38.3965 100.491 38.4039 100.491 38.4018C100.492 38.3834 100.49 38.417 100.491 38.3955C100.491 38.392 100.492 38.3863 100.492 38.3796C100.494 38.3557 100.498 38.2956 100.504 38.221C100.514 38.075 100.533 37.7963 100.554 37.4482C100.596 36.7638 100.66 35.5792 100.688 34.1075L-55.2834 31.1162C-55.2565 29.7142 -55.1959 28.599 -55.1585 27.9836C-55.1394 27.6701 -55.1226 27.4258 -55.1147 27.3143C-55.111 27.2604 -55.0997 27.1035 -55.1104 27.2526C-55.1166 27.3394 -55.1692 28.058 -55.2148 28.9517C-55.2629 29.8964 -55.3188 31.3107 -55.3188 33.0272H100.681ZM7.72296 109.16C12.4329 110.082 17.0816 110.756 21.5286 111.247L38.65 -43.811C38.2624 -43.8538 37.9804 -43.8921 37.8023 -43.9188C37.6218 -43.9458 37.5845 -43.9553 37.6815 -43.9363L7.72296 109.16ZM-47.9035 34.7822C-47.8071 41.8462 -47.0954 48.8884 -45.7765 55.8288L107.481 26.7059C107.854 28.6671 108.055 30.6572 108.082 32.6534L-47.9035 34.7822ZM39.0904 -36.2964C38.4289 -36.3667 38.1126 -36.4249 38.1387 -36.42L9.75255 116.976C14.0583 117.772 18.3719 118.38 22.614 118.831L39.0904 -36.2964ZM97.3957 14.0273C99.5566 20.0736 100.668 26.4448 100.681 32.8657L-55.3187 33.1887C-55.2951 44.5521 -53.3287 55.8278 -49.5044 66.5283L97.3957 14.0273ZM72.5088 -15.6988C81.4165 -10.5822 88.7462 -3.11544 93.6969 5.88544L-42.9913 81.0674C-34.1594 97.1248 -21.0833 110.445 -5.19228 119.573L72.5088 -15.6988ZM13.0451 120.499C16.8294 121.104 20.5209 121.554 24.0038 121.893L39.1056 -33.3745C38.26 -33.4568 37.7883 -33.526 37.6605 -33.5464L13.0451 120.499ZM-43.7783 64.4813C-41.6131 72.5475 -38.5631 80.3498 -34.6841 87.7461L103.469 15.2907C104.927 18.0713 106.074 21.0045 106.888 24.037L-43.7783 64.4813ZM-2.44958 -17.2324C-2.60964 -17.1466 -5.25667 -15.7561 -8.26905 -13.8359L75.5856 117.71C74.16 118.619 72.9968 119.29 72.3232 119.669C71.9719 119.867 71.6903 120.022 71.5165 120.117C71.4274 120.165 71.3564 120.203 71.3107 120.228C71.2658 120.252 71.2363 120.268 71.2343 120.269L-2.44958 -17.2324ZM-34.9511 44.8595V49.4169H121.049V44.8595H-34.9511ZM39.7694 -28.5141C31.3212 -28.1586 22.9494 -26.7587 14.845 -24.3463L59.351 125.17C55.1166 126.431 50.7425 127.162 46.3285 127.348L39.7694 -28.5141ZM105.757 13.3996C107.237 16.1447 108.436 19.0322 109.336 22.0181L-40.0315 67.0234C-37.9019 74.0915 -35.064 80.9265 -31.5612 87.4244L105.757 13.3996ZM29.0676 122.321C33.4447 122.635 37.8593 122.81 42.2491 122.855L43.8488 -33.1364C42.5244 -33.15 41.3038 -33.2024 40.2364 -33.279L29.0676 122.321ZM44.6694 -23.15C51.2883 -23.136 57.853 -21.9554 64.0621 -19.6626L10.0227 126.679C21.0098 130.736 32.626 132.825 44.3381 132.85L44.6694 -23.15ZM62.869 127.108C56.6722 129.283 50.1425 130.355 43.5757 130.277L45.4319 -25.7119C33.7859 -25.8505 22.2057 -23.9485 11.2158 -20.0922L62.869 127.108ZM45.4319 130.277C38.8651 130.355 32.3354 129.283 26.1386 127.108L77.7917 -20.0922C66.8019 -23.9485 55.2217 -25.8505 43.5757 -25.7119L45.4319 130.277ZM24.9454 -19.6626C31.1546 -21.9554 37.7193 -23.136 44.3381 -23.15L44.6694 132.85C56.3816 132.825 67.9978 130.736 78.9849 126.679L24.9454 -19.6626ZM71.346 -25.1566C64.129 -27.071 56.7256 -28.1964 49.2659 -28.513L42.6514 127.347C38.8325 127.185 35.0424 126.609 31.3478 125.628L71.346 -25.1566ZM123.959 49.4169V44.8595H-32.0414V49.4169H123.959ZM46.7594 122.855C50.7129 122.815 54.7675 122.671 58.8555 122.399L48.5129 -33.2574C47.5759 -33.1951 46.4471 -33.1496 45.1578 -33.1364L46.7594 122.855ZM-20.9532 21.9156C-20.0875 19.0638 -18.9482 16.3025 -17.5511 13.6701L120.245 86.8018C123.562 80.5523 126.266 73.9967 128.322 67.2264L-20.9532 21.9156ZM97.3538 -13.7865C94.2646 -15.7609 91.0571 -17.5437 87.7496 -19.1251L20.4594 121.616C18.0093 120.444 15.6333 119.124 13.3447 117.661L97.3538 -13.7865ZM123.538 86.7845C127.147 79.7334 130.008 72.3238 132.075 64.6769L-18.5214 23.9739C-17.7484 21.1141 -16.6784 18.3432 -15.3287 15.7062L123.538 86.7845ZM63.8802 122.001C67.7964 121.643 71.858 121.155 75.963 120.499L51.3466 -33.5463C51.1317 -33.5119 50.5753 -33.433 49.6734 -33.3505L63.8802 122.001ZM-4.68922 5.88538C0.261526 -3.11552 7.59128 -10.5823 16.4989 -15.6989L94.1996 119.573C110.091 110.446 123.167 97.125 131.999 81.0676L-4.68922 5.88538ZM-11.6734 32.8657C-11.6601 26.4448 -10.549 20.0736 -8.38814 14.0273L138.512 66.5283C142.336 55.8278 144.303 44.5521 144.326 33.1887L-11.6734 32.8657ZM50.8699 -36.4202C50.9469 -36.4345 50.8813 -36.4206 50.6649 -36.3905C50.4516 -36.3609 50.1328 -36.3211 49.7087 -36.2786L65.2592 118.944C69.761 118.493 74.4793 117.859 79.2539 116.976L50.8699 -36.4202ZM134.088 56.0249C135.419 49.0859 136.142 42.0442 136.25 34.9795L-19.7319 32.5976C-19.7013 30.598 -19.4965 28.6048 -19.1199 26.6409L134.088 56.0249ZM66.3572 111.367C71.1582 110.866 76.1919 110.156 81.2836 109.16L51.3271 -43.9365C51.4303 -43.9567 51.3778 -43.9439 51.1593 -43.912C50.9439 -43.8805 50.6116 -43.837 50.1609 -43.7899L66.3572 111.367ZM-11.6803 34.1075C-11.6521 35.5792 -11.5882 36.7638 -11.5466 37.4482C-11.5254 37.7963 -11.5062 38.075 -11.496 38.221C-11.4907 38.2956 -11.4864 38.3557 -11.4847 38.3796C-11.4842 38.3863 -11.4838 38.392 -11.4836 38.3955C-11.482 38.417 -11.4844 38.3835 -11.4831 38.4018C-11.4829 38.4039 -11.4835 38.3965 -11.4842 38.386C-11.4865 38.3549 -11.4993 38.176 -11.5145 37.9424C-11.5303 37.7 -11.5528 37.3368 -11.5754 36.8939C-11.62 36.0184 -11.6736 34.6736 -11.6736 33.0272H144.326C144.326 31.3107 144.27 29.8964 144.222 28.9517C144.177 28.058 144.124 27.3394 144.118 27.2526C144.107 27.1035 144.119 27.2604 144.122 27.3143C144.13 27.4258 144.147 27.6701 144.166 27.9836C144.203 28.599 144.264 29.7142 144.291 31.1162L-11.6803 34.1075ZM50.6891 -46.7783C50.8713 -46.8149 50.8928 -46.8143 50.7412 -46.7916C50.593 -46.7695 50.3235 -46.7327 49.9301 -46.6907L66.5031 108.426C71.2815 107.916 76.307 107.192 81.4 106.169L50.6891 -46.7783ZM136.125 27.094C135.799 20.3538 134.909 13.6528 133.465 7.06092L-18.9228 40.4355C-19.3403 38.5291 -19.5976 36.5911 -19.692 34.6418L136.125 27.094ZM64.7214 101.392C68.6221 101.017 72.5382 100.519 76.4346 99.8801L51.2065 -54.0664C50.9664 -54.0271 50.5048 -53.9608 49.8212 -53.8952L64.7214 101.392ZM-5.27884 59.0907C-8.17519 53.5597 -10.1323 47.5858 -11.0703 41.4132L143.159 17.9775C141.501 7.06407 138.041 -3.49793 132.92 -13.277L-5.27884 59.0907ZM131.35 -1.17333C129.355 -7.93831 126.731 -14.5017 123.513 -20.7779L-15.3042 50.3959C-16.5246 48.0156 -17.5198 45.5262 -18.2766 42.9604L131.35 -1.17333ZM87.7459 85.1813C91.0534 83.6001 94.2609 81.8175 97.3503 79.8433L13.3483 -51.6089C15.6369 -53.0714 18.013 -54.392 20.4632 -55.5633L87.7459 85.1813ZM16.3815 81.6858C9.56983 77.7574 3.66111 72.4395 -0.960593 66.0779L125.249 -25.6127C117.006 -36.9595 106.467 -46.4446 94.3171 -53.4514L16.3815 81.6858ZM50.6639 -56.9179C50.6085 -56.9097 50.2107 -56.8537 49.4069 -56.7799L63.6669 98.567C66.7498 98.284 70.1145 97.9054 73.6244 97.3831L50.6639 -56.9179Z" fill="url(#paint0_linear_28_84)" mask="url(#path-1-inside-1_28_84)"/>
<mask id="path-3-inside-2_28_84" fill="white">
<path d="M83.7816 15.5468V12.4305C85.1531 12.0764 86.3483 11.2343 87.1432 10.062C87.9381 8.88972 88.2783 7.46776 88.0998 6.06266C87.9213 4.65755 87.2365 3.36577 86.1737 2.42945C85.111 1.49314 83.7432 0.976563 82.3268 0.976562C80.9104 0.976563 79.5426 1.49314 78.4799 2.42945C77.4171 3.36577 76.7323 4.65755 76.5538 6.06266C76.3754 7.46776 76.7155 8.88972 77.5104 10.062C78.3054 11.2343 79.5006 12.0764 80.872 12.4305V14.0919H70.3007C67.6325 10.442 64.22 7.39995 60.2888 5.16692C56.3575 2.93388 51.9971 1.56071 47.4957 1.13818C42.9943 0.715642 38.4544 1.25337 34.1763 2.71581C29.8982 4.17825 25.9792 6.53209 22.6784 9.62174V6.81772C22.6784 6.62665 22.6408 6.43745 22.5677 6.26092C22.4946 6.08439 22.3875 5.92399 22.2524 5.78888C22.1173 5.65378 21.9569 5.54662 21.7803 5.47352C21.6038 5.40043 21.4146 5.36283 21.2235 5.36288H12.2879C11.9338 3.99146 11.0917 2.79627 9.91942 2.00133C8.74714 1.20638 7.32518 0.866271 5.92008 1.04474C4.51497 1.22321 3.22319 1.90802 2.28688 2.97079C1.35056 4.03356 0.833984 5.40133 0.833984 6.81772C0.833984 8.23411 1.35056 9.60189 2.28688 10.6647C3.22319 11.7274 4.51497 12.4122 5.92008 12.5907C7.32518 12.7692 8.74714 12.4291 9.91942 11.6341C11.0917 10.8392 11.9338 9.64398 12.2879 8.27256H19.7687V12.6371H19.83C15.0824 18.362 12.4874 25.5675 12.4945 33.0048C12.7152 41.2887 15.2349 49.348 19.7721 56.2823H8.12998V53.166C9.5014 52.8119 10.6966 51.9698 11.4915 50.7975C12.2865 49.6252 12.6266 48.2033 12.4481 46.7982C12.2696 45.3931 11.5848 44.1013 10.5221 43.165C9.45931 42.2287 8.09153 41.7121 6.67514 41.7121C5.25875 41.7121 3.89098 42.2287 2.82821 43.165C1.76544 44.1013 1.08064 45.3931 0.902165 46.7982C0.723693 48.2033 1.0638 49.6252 1.85875 50.7975C2.65369 51.9698 3.84888 52.8119 5.2203 53.166V57.7371C5.22025 57.9282 5.25785 58.1174 5.33094 58.2939C5.40404 58.4705 5.5112 58.6309 5.6463 58.766C5.78141 58.9011 5.94181 59.0082 6.11834 59.0813C6.29487 59.1544 6.48408 59.192 6.67514 59.192H21.8027C22.3592 59.928 22.9291 60.6512 23.5266 61.3444C24.495 62.4749 25.342 63.704 26.0538 65.0113H18.3139C18.1228 65.0113 17.9336 65.0489 17.7571 65.122C17.5805 65.1951 17.4201 65.3022 17.285 65.4373C17.1499 65.5724 17.0428 65.7328 16.9697 65.9094C16.8966 66.0859 16.859 66.2751 16.859 66.4662V76.65H13.7428C13.3887 75.2786 12.5465 74.0834 11.3743 73.2885C10.202 72.4935 8.78002 72.1534 7.37492 72.3319C5.96981 72.5104 4.67803 73.1952 3.74172 74.2579C2.8054 75.3207 2.28882 76.6885 2.28882 78.1049C2.28882 79.5213 2.8054 80.8891 3.74172 81.9518C4.67803 83.0146 5.96981 83.6994 7.37492 83.8779C8.78002 84.0563 10.202 83.7162 11.3743 82.9213C12.5465 82.1263 13.3887 80.9311 13.7428 79.5597H18.3139C18.5049 79.5598 18.6941 79.5222 18.8707 79.4491C19.0472 79.376 19.2076 79.2688 19.3427 79.1337C19.4778 78.9986 19.585 78.8382 19.6581 78.6617C19.7312 78.4852 19.7687 78.296 19.7687 78.1049V67.921H27.3693C28.1047 69.9419 28.4865 72.0743 28.4977 74.2248V74.8755C27.9163 75.3916 27.4846 76.0549 27.248 76.7955C27.0115 77.5361 26.9789 78.3268 27.1535 79.0844C27.3282 79.842 27.7037 80.5385 28.2407 81.1008C28.7776 81.6631 29.4561 82.0704 30.2048 82.2798C30.0425 82.7171 29.9571 83.1793 29.9526 83.6458V84.2027C29.9539 85.2861 30.3849 86.3248 31.1511 87.0908C31.9172 87.8568 32.9559 88.2876 34.0393 88.2888H54.9626C56.046 88.2876 57.0847 87.8568 57.8509 87.0908C58.617 86.3248 59.0481 85.2861 59.0494 84.2027V83.6458C59.0448 83.1793 58.9595 82.7172 58.7971 82.2798C59.5458 82.0704 60.2243 81.6631 60.7613 81.1008C61.2982 80.5385 61.6738 79.842 61.8484 79.0844C62.0231 78.3268 61.9904 77.5361 61.7539 76.7955C61.5174 76.0549 61.0857 75.3916 60.5042 74.8755V74.2248C60.5667 69.4748 62.3305 64.9047 65.4754 61.3444C65.6714 61.1171 65.8576 60.879 66.0492 60.6468H70.6881V75.1952C70.688 75.3863 70.7256 75.5755 70.7987 75.752C70.8718 75.9285 70.979 76.0889 71.1141 76.224C71.2492 76.3591 71.4096 76.4663 71.5861 76.5394C71.7627 76.6125 71.9519 76.6501 72.1429 76.65H76.714C77.0681 78.0215 77.9102 79.2167 79.0825 80.0116C80.2548 80.8065 81.6768 81.1467 83.0819 80.9682C84.487 80.7897 85.7788 80.1049 86.7151 79.0421C87.6514 77.9794 88.168 76.6116 88.168 75.1952C88.168 73.7788 87.6514 72.411 86.7151 71.3483C85.7788 70.2855 84.487 69.6007 83.0819 69.4222C81.6768 69.2438 80.2548 69.5839 79.0825 70.3788C77.9102 71.1738 77.0681 72.3689 76.714 73.7404H73.5978V59.192C73.5978 59.0009 73.5602 58.8117 73.4871 58.6352C73.414 58.4586 73.3069 58.2982 73.1718 58.1631C73.0367 58.028 72.8763 57.9209 72.6997 57.8478C72.5232 57.7747 72.334 57.7371 72.1429 57.7371H68.2558C71.909 52.4839 74.4604 46.5451 75.7562 40.279H80.872V43.3953C79.5006 43.7494 78.3054 44.5915 77.5104 45.7638C76.7155 46.9361 76.3754 48.358 76.5538 49.7631C76.7323 51.1683 77.4171 52.46 78.4799 53.3964C79.5426 54.3327 80.9104 54.8492 82.3268 54.8492C83.7432 54.8492 85.111 54.3327 86.1737 53.3964C87.2365 52.46 87.9213 51.1683 88.0998 49.7631C88.2783 48.358 87.9381 46.9361 87.1432 45.7638C86.3483 44.5915 85.1531 43.7494 83.7816 43.3953V38.8242C83.7817 38.6331 83.7441 38.4439 83.671 38.2674C83.5979 38.0909 83.4908 37.9305 83.3556 37.7954C83.2205 37.6603 83.0601 37.5531 82.8836 37.48C82.7071 37.4069 82.5179 37.3693 82.3268 37.3694H76.2194C76.4049 35.9218 76.5011 34.4642 76.5074 33.0048C76.5119 27.3836 75.0261 21.8616 72.2015 17.0016H82.3268C82.5179 17.0017 82.7071 16.9641 82.8836 16.891C83.0601 16.8179 83.2205 16.7107 83.3556 16.5756C83.4908 16.4405 83.5979 16.2801 83.671 16.1036C83.7441 15.927 83.7817 15.7378 83.7816 15.5468ZM6.67514 9.7274C6.09966 9.7274 5.5371 9.55675 5.05861 9.23703C4.58012 8.91731 4.20717 8.46288 3.98695 7.93121C3.76672 7.39953 3.7091 6.81449 3.82137 6.25007C3.93364 5.68565 4.21076 5.16719 4.61769 4.76027C5.02461 4.35334 5.54307 4.07622 6.10749 3.96395C6.67191 3.85168 7.25695 3.9093 7.78863 4.12953C8.3203 4.34975 8.77473 4.7227 9.09445 5.20119C9.41417 5.67968 9.58482 6.24224 9.58482 6.81772C9.58394 7.58915 9.2771 8.32872 8.73162 8.8742C8.18614 9.41968 7.44657 9.72652 6.67514 9.7274ZM3.76546 47.5532C3.76546 46.9778 3.93611 46.4152 4.25583 45.9367C4.57555 45.4582 5.02998 45.0853 5.56165 44.865C6.09333 44.6448 6.67837 44.5872 7.24279 44.6995C7.80721 44.8117 8.32567 45.0889 8.7326 45.4958C9.13952 45.9027 9.41664 46.4212 9.52891 46.9856C9.64118 47.55 9.58356 48.1351 9.36333 48.6667C9.14311 49.1984 8.77017 49.6528 8.29167 49.9726C7.81318 50.2923 7.25062 50.4629 6.67514 50.4629C5.90372 50.462 5.16414 50.1552 4.61866 49.6097C4.07318 49.0642 3.76634 48.3247 3.76546 47.5532ZM8.12998 81.0146C7.5545 81.0146 6.99194 80.8439 6.51345 80.5242C6.03496 80.2045 5.66201 79.75 5.44179 79.2184C5.22156 78.6867 5.16394 78.1017 5.27621 77.5372C5.38848 76.9728 5.6656 76.4544 6.07253 76.0474C6.47945 75.6405 6.99791 75.3634 7.56233 75.2511C8.12675 75.1388 8.71179 75.1965 9.24347 75.4167C9.77514 75.6369 10.2296 76.0099 10.5493 76.4884C10.869 76.9668 11.0397 77.5294 11.0397 78.1049C11.0388 78.8763 10.7319 79.6159 10.1865 80.1614C9.64098 80.7068 8.90141 81.0137 8.12998 81.0146ZM82.3268 72.2855C82.9023 72.2855 83.4648 72.4562 83.9433 72.7759C84.4218 73.0956 84.7948 73.55 85.015 74.0817C85.2352 74.6134 85.2928 75.1984 85.1806 75.7629C85.0683 76.3273 84.7912 76.8457 84.3843 77.2527C83.9773 77.6596 83.4589 77.9367 82.8945 78.049C82.33 78.1612 81.745 78.1036 81.2133 77.8834C80.6816 77.6632 80.2272 77.2902 79.9075 76.8117C79.5878 76.3332 79.4171 75.7707 79.4171 75.1952C79.418 74.4238 79.7248 73.6842 80.2703 73.1387C80.8158 72.5932 81.5554 72.2864 82.3268 72.2855ZM85.2365 49.0081C85.2365 49.5836 85.0658 50.1461 84.7461 50.6246C84.4264 51.1031 83.972 51.4761 83.4403 51.6963C82.9086 51.9165 82.3236 51.9741 81.7592 51.8619C81.1947 51.7496 80.6763 51.4725 80.2694 51.0655C79.8624 50.6586 79.5853 50.1402 79.473 49.5757C79.3608 49.0113 79.4184 48.4263 79.6386 47.8946C79.8588 47.3629 80.2318 46.9085 80.7103 46.5888C81.1888 46.2691 81.7513 46.0984 82.3268 46.0984C83.0982 46.0993 83.8378 46.4061 84.3833 46.9516C84.9288 47.4971 85.2356 48.2367 85.2365 49.0081ZM56.1397 84.2027C56.1394 84.5147 56.0153 84.8139 55.7946 85.0345C55.5739 85.255 55.2746 85.379 54.9626 85.3791H34.0393C33.7273 85.379 33.4281 85.255 33.2074 85.0345C32.9867 84.8139 32.8626 84.5147 32.8623 84.2027V83.6458C32.8626 83.3338 32.9867 83.0346 33.2074 82.814C33.4281 82.5935 33.7273 82.4695 34.0393 82.4694H54.9626C55.2746 82.4695 55.5739 82.5935 55.7946 82.814C56.0153 83.0346 56.1394 83.3338 56.1397 83.6458V84.2027ZM57.5945 79.5597H31.4074C31.0216 79.5597 30.6515 79.4064 30.3787 79.1336C30.1059 78.8608 29.9526 78.4907 29.9526 78.1049C29.9526 77.719 30.1059 77.349 30.3787 77.0762C30.6515 76.8033 31.0216 76.65 31.4074 76.65H57.5945C57.9804 76.65 58.3504 76.8033 58.6233 77.0762C58.8961 77.349 59.0494 77.719 59.0494 78.1049C59.0494 78.4907 58.8961 78.8608 58.6233 79.1336C58.3504 79.4064 57.9804 79.5597 57.5945 79.5597ZM73.5978 33.0048C73.2808 42.7393 69.6363 52.0709 63.2718 59.4434C59.7847 63.4097 57.7804 68.4622 57.6002 73.7404H31.4017C31.2216 68.4622 29.2173 63.4097 25.7301 59.4434C19.3657 52.0709 15.7211 42.7393 15.4042 33.0048C15.4042 25.2879 18.4697 17.887 23.9264 12.4303C29.3831 6.97359 36.784 3.90804 44.501 3.90804C52.2179 3.90804 59.6188 6.97359 65.0755 12.4303C70.5322 17.887 73.5978 25.2879 73.5978 33.0048ZM79.4171 6.81772C79.4171 6.24224 79.5878 5.67968 79.9075 5.20119C80.2272 4.7227 80.6816 4.34975 81.2133 4.12953C81.745 3.9093 82.33 3.85168 82.8945 3.96395C83.4589 4.07622 83.9773 4.35334 84.3843 4.76027C84.7912 5.16719 85.0683 5.68565 85.1806 6.25007C85.2928 6.81449 85.2352 7.39953 85.015 7.93121C84.7948 8.46288 84.4218 8.91731 83.9433 9.23703C83.4648 9.55675 82.9023 9.7274 82.3268 9.7274C81.5554 9.72652 80.8158 9.41968 80.2703 8.8742C79.7248 8.32872 79.418 7.58915 79.4171 6.81772Z"/>
</mask>
<path d="M83.7816 15.5468V12.4305C85.1531 12.0764 86.3483 11.2343 87.1432 10.062C87.9381 8.88972 88.2783 7.46776 88.0998 6.06266C87.9213 4.65755 87.2365 3.36577 86.1737 2.42945C85.111 1.49314 83.7432 0.976563 82.3268 0.976562C80.9104 0.976563 79.5426 1.49314 78.4799 2.42945C77.4171 3.36577 76.7323 4.65755 76.5538 6.06266C76.3754 7.46776 76.7155 8.88972 77.5104 10.062C78.3054 11.2343 79.5006 12.0764 80.872 12.4305V14.0919H70.3007C67.6325 10.442 64.22 7.39995 60.2888 5.16692C56.3575 2.93388 51.9971 1.56071 47.4957 1.13818C42.9943 0.715642 38.4544 1.25337 34.1763 2.71581C29.8982 4.17825 25.9792 6.53209 22.6784 9.62174V6.81772C22.6784 6.62665 22.6408 6.43745 22.5677 6.26092C22.4946 6.08439 22.3875 5.92399 22.2524 5.78888C22.1173 5.65378 21.9569 5.54662 21.7803 5.47352C21.6038 5.40043 21.4146 5.36283 21.2235 5.36288H12.2879C11.9338 3.99146 11.0917 2.79627 9.91942 2.00133C8.74714 1.20638 7.32518 0.866271 5.92008 1.04474C4.51497 1.22321 3.22319 1.90802 2.28688 2.97079C1.35056 4.03356 0.833984 5.40133 0.833984 6.81772C0.833984 8.23411 1.35056 9.60189 2.28688 10.6647C3.22319 11.7274 4.51497 12.4122 5.92008 12.5907C7.32518 12.7692 8.74714 12.4291 9.91942 11.6341C11.0917 10.8392 11.9338 9.64398 12.2879 8.27256H19.7687V12.6371H19.83C15.0824 18.362 12.4874 25.5675 12.4945 33.0048C12.7152 41.2887 15.2349 49.348 19.7721 56.2823H8.12998V53.166C9.5014 52.8119 10.6966 51.9698 11.4915 50.7975C12.2865 49.6252 12.6266 48.2033 12.4481 46.7982C12.2696 45.3931 11.5848 44.1013 10.5221 43.165C9.45931 42.2287 8.09153 41.7121 6.67514 41.7121C5.25875 41.7121 3.89098 42.2287 2.82821 43.165C1.76544 44.1013 1.08064 45.3931 0.902165 46.7982C0.723693 48.2033 1.0638 49.6252 1.85875 50.7975C2.65369 51.9698 3.84888 52.8119 5.2203 53.166V57.7371C5.22025 57.9282 5.25785 58.1174 5.33094 58.2939C5.40404 58.4705 5.5112 58.6309 5.6463 58.766C5.78141 58.9011 5.94181 59.0082 6.11834 59.0813C6.29487 59.1544 6.48408 59.192 6.67514 59.192H21.8027C22.3592 59.928 22.9291 60.6512 23.5266 61.3444C24.495 62.4749 25.342 63.704 26.0538 65.0113H18.3139C18.1228 65.0113 17.9336 65.0489 17.7571 65.122C17.5805 65.1951 17.4201 65.3022 17.285 65.4373C17.1499 65.5724 17.0428 65.7328 16.9697 65.9094C16.8966 66.0859 16.859 66.2751 16.859 66.4662V76.65H13.7428C13.3887 75.2786 12.5465 74.0834 11.3743 73.2885C10.202 72.4935 8.78002 72.1534 7.37492 72.3319C5.96981 72.5104 4.67803 73.1952 3.74172 74.2579C2.8054 75.3207 2.28882 76.6885 2.28882 78.1049C2.28882 79.5213 2.8054 80.8891 3.74172 81.9518C4.67803 83.0146 5.96981 83.6994 7.37492 83.8779C8.78002 84.0563 10.202 83.7162 11.3743 82.9213C12.5465 82.1263 13.3887 80.9311 13.7428 79.5597H18.3139C18.5049 79.5598 18.6941 79.5222 18.8707 79.4491C19.0472 79.376 19.2076 79.2688 19.3427 79.1337C19.4778 78.9986 19.585 78.8382 19.6581 78.6617C19.7312 78.4852 19.7687 78.296 19.7687 78.1049V67.921H27.3693C28.1047 69.9419 28.4865 72.0743 28.4977 74.2248V74.8755C27.9163 75.3916 27.4846 76.0549 27.248 76.7955C27.0115 77.5361 26.9789 78.3268 27.1535 79.0844C27.3282 79.842 27.7037 80.5385 28.2407 81.1008C28.7776 81.6631 29.4561 82.0704 30.2048 82.2798C30.0425 82.7171 29.9571 83.1793 29.9526 83.6458V84.2027C29.9539 85.2861 30.3849 86.3248 31.1511 87.0908C31.9172 87.8568 32.9559 88.2876 34.0393 88.2888H54.9626C56.046 88.2876 57.0847 87.8568 57.8509 87.0908C58.617 86.3248 59.0481 85.2861 59.0494 84.2027V83.6458C59.0448 83.1793 58.9595 82.7172 58.7971 82.2798C59.5458 82.0704 60.2243 81.6631 60.7613 81.1008C61.2982 80.5385 61.6738 79.842 61.8484 79.0844C62.0231 78.3268 61.9904 77.5361 61.7539 76.7955C61.5174 76.0549 61.0857 75.3916 60.5042 74.8755V74.2248C60.5667 69.4748 62.3305 64.9047 65.4754 61.3444C65.6714 61.1171 65.8576 60.879 66.0492 60.6468H70.6881V75.1952C70.688 75.3863 70.7256 75.5755 70.7987 75.752C70.8718 75.9285 70.979 76.0889 71.1141 76.224C71.2492 76.3591 71.4096 76.4663 71.5861 76.5394C71.7627 76.6125 71.9519 76.6501 72.1429 76.65H76.714C77.0681 78.0215 77.9102 79.2167 79.0825 80.0116C80.2548 80.8065 81.6768 81.1467 83.0819 80.9682C84.487 80.7897 85.7788 80.1049 86.7151 79.0421C87.6514 77.9794 88.168 76.6116 88.168 75.1952C88.168 73.7788 87.6514 72.411 86.7151 71.3483C85.7788 70.2855 84.487 69.6007 83.0819 69.4222C81.6768 69.2438 80.2548 69.5839 79.0825 70.3788C77.9102 71.1738 77.0681 72.3689 76.714 73.7404H73.5978V59.192C73.5978 59.0009 73.5602 58.8117 73.4871 58.6352C73.414 58.4586 73.3069 58.2982 73.1718 58.1631C73.0367 58.028 72.8763 57.9209 72.6997 57.8478C72.5232 57.7747 72.334 57.7371 72.1429 57.7371H68.2558C71.909 52.4839 74.4604 46.5451 75.7562 40.279H80.872V43.3953C79.5006 43.7494 78.3054 44.5915 77.5104 45.7638C76.7155 46.9361 76.3754 48.358 76.5538 49.7631C76.7323 51.1683 77.4171 52.46 78.4799 53.3964C79.5426 54.3327 80.9104 54.8492 82.3268 54.8492C83.7432 54.8492 85.111 54.3327 86.1737 53.3964C87.2365 52.46 87.9213 51.1683 88.0998 49.7631C88.2783 48.358 87.9381 46.9361 87.1432 45.7638C86.3483 44.5915 85.1531 43.7494 83.7816 43.3953V38.8242C83.7817 38.6331 83.7441 38.4439 83.671 38.2674C83.5979 38.0909 83.4908 37.9305 83.3556 37.7954C83.2205 37.6603 83.0601 37.5531 82.8836 37.48C82.7071 37.4069 82.5179 37.3693 82.3268 37.3694H76.2194C76.4049 35.9218 76.5011 34.4642 76.5074 33.0048C76.5119 27.3836 75.0261 21.8616 72.2015 17.0016H82.3268C82.5179 17.0017 82.7071 16.9641 82.8836 16.891C83.0601 16.8179 83.2205 16.7107 83.3556 16.5756C83.4908 16.4405 83.5979 16.2801 83.671 16.1036C83.7441 15.927 83.7817 15.7378 83.7816 15.5468ZM6.67514 9.7274C6.09966 9.7274 5.5371 9.55675 5.05861 9.23703C4.58012 8.91731 4.20717 8.46288 3.98695 7.93121C3.76672 7.39953 3.7091 6.81449 3.82137 6.25007C3.93364 5.68565 4.21076 5.16719 4.61769 4.76027C5.02461 4.35334 5.54307 4.07622 6.10749 3.96395C6.67191 3.85168 7.25695 3.9093 7.78863 4.12953C8.3203 4.34975 8.77473 4.7227 9.09445 5.20119C9.41417 5.67968 9.58482 6.24224 9.58482 6.81772C9.58394 7.58915 9.2771 8.32872 8.73162 8.8742C8.18614 9.41968 7.44657 9.72652 6.67514 9.7274ZM3.76546 47.5532C3.76546 46.9778 3.93611 46.4152 4.25583 45.9367C4.57555 45.4582 5.02998 45.0853 5.56165 44.865C6.09333 44.6448 6.67837 44.5872 7.24279 44.6995C7.80721 44.8117 8.32567 45.0889 8.7326 45.4958C9.13952 45.9027 9.41664 46.4212 9.52891 46.9856C9.64118 47.55 9.58356 48.1351 9.36333 48.6667C9.14311 49.1984 8.77017 49.6528 8.29167 49.9726C7.81318 50.2923 7.25062 50.4629 6.67514 50.4629C5.90372 50.462 5.16414 50.1552 4.61866 49.6097C4.07318 49.0642 3.76634 48.3247 3.76546 47.5532ZM8.12998 81.0146C7.5545 81.0146 6.99194 80.8439 6.51345 80.5242C6.03496 80.2045 5.66201 79.75 5.44179 79.2184C5.22156 78.6867 5.16394 78.1017 5.27621 77.5372C5.38848 76.9728 5.6656 76.4544 6.07253 76.0474C6.47945 75.6405 6.99791 75.3634 7.56233 75.2511C8.12675 75.1388 8.71179 75.1965 9.24347 75.4167C9.77514 75.6369 10.2296 76.0099 10.5493 76.4884C10.869 76.9668 11.0397 77.5294 11.0397 78.1049C11.0388 78.8763 10.7319 79.6159 10.1865 80.1614C9.64098 80.7068 8.90141 81.0137 8.12998 81.0146ZM82.3268 72.2855C82.9023 72.2855 83.4648 72.4562 83.9433 72.7759C84.4218 73.0956 84.7948 73.55 85.015 74.0817C85.2352 74.6134 85.2928 75.1984 85.1806 75.7629C85.0683 76.3273 84.7912 76.8457 84.3843 77.2527C83.9773 77.6596 83.4589 77.9367 82.8945 78.049C82.33 78.1612 81.745 78.1036 81.2133 77.8834C80.6816 77.6632 80.2272 77.2902 79.9075 76.8117C79.5878 76.3332 79.4171 75.7707 79.4171 75.1952C79.418 74.4238 79.7248 73.6842 80.2703 73.1387C80.8158 72.5932 81.5554 72.2864 82.3268 72.2855ZM85.2365 49.0081C85.2365 49.5836 85.0658 50.1461 84.7461 50.6246C84.4264 51.1031 83.972 51.4761 83.4403 51.6963C82.9086 51.9165 82.3236 51.9741 81.7592 51.8619C81.1947 51.7496 80.6763 51.4725 80.2694 51.0655C79.8624 50.6586 79.5853 50.1402 79.473 49.5757C79.3608 49.0113 79.4184 48.4263 79.6386 47.8946C79.8588 47.3629 80.2318 46.9085 80.7103 46.5888C81.1888 46.2691 81.7513 46.0984 82.3268 46.0984C83.0982 46.0993 83.8378 46.4061 84.3833 46.9516C84.9288 47.4971 85.2356 48.2367 85.2365 49.0081ZM56.1397 84.2027C56.1394 84.5147 56.0153 84.8139 55.7946 85.0345C55.5739 85.255 55.2746 85.379 54.9626 85.3791H34.0393C33.7273 85.379 33.4281 85.255 33.2074 85.0345C32.9867 84.8139 32.8626 84.5147 32.8623 84.2027V83.6458C32.8626 83.3338 32.9867 83.0346 33.2074 82.814C33.4281 82.5935 33.7273 82.4695 34.0393 82.4694H54.9626C55.2746 82.4695 55.5739 82.5935 55.7946 82.814C56.0153 83.0346 56.1394 83.3338 56.1397 83.6458V84.2027ZM57.5945 79.5597H31.4074C31.0216 79.5597 30.6515 79.4064 30.3787 79.1336C30.1059 78.8608 29.9526 78.4907 29.9526 78.1049C29.9526 77.719 30.1059 77.349 30.3787 77.0762C30.6515 76.8033 31.0216 76.65 31.4074 76.65H57.5945C57.9804 76.65 58.3504 76.8033 58.6233 77.0762C58.8961 77.349 59.0494 77.719 59.0494 78.1049C59.0494 78.4907 58.8961 78.8608 58.6233 79.1336C58.3504 79.4064 57.9804 79.5597 57.5945 79.5597ZM73.5978 33.0048C73.2808 42.7393 69.6363 52.0709 63.2718 59.4434C59.7847 63.4097 57.7804 68.4622 57.6002 73.7404H31.4017C31.2216 68.4622 29.2173 63.4097 25.7301 59.4434C19.3657 52.0709 15.7211 42.7393 15.4042 33.0048C15.4042 25.2879 18.4697 17.887 23.9264 12.4303C29.3831 6.97359 36.784 3.90804 44.501 3.90804C52.2179 3.90804 59.6188 6.97359 65.0755 12.4303C70.5322 17.887 73.5978 25.2879 73.5978 33.0048ZM79.4171 6.81772C79.4171 6.24224 79.5878 5.67968 79.9075 5.20119C80.2272 4.7227 80.6816 4.34975 81.2133 4.12953C81.745 3.9093 82.33 3.85168 82.8945 3.96395C83.4589 4.07622 83.9773 4.35334 84.3843 4.76027C84.7912 5.16719 85.0683 5.68565 85.1806 6.25007C85.2928 6.81449 85.2352 7.39953 85.015 7.93121C84.7948 8.46288 84.4218 8.91731 83.9433 9.23703C83.4648 9.55675 82.9023 9.7274 82.3268 9.7274C81.5554 9.72652 80.8158 9.41968 80.2703 8.8742C79.7248 8.32872 79.418 7.58915 79.4171 6.81772Z" stroke="url(#paint1_linear_28_84)" stroke-width="156" mask="url(#path-3-inside-2_28_84)"/>
<mask id="path-4-inside-3_28_84" fill="white">
<path d="M48.853 65H45.9434V67.9097H48.853V65Z"/>
</mask>
<path d="M45.9434 65V-13H-32.0566V65H45.9434ZM48.853 65H126.853V-13H48.853V65ZM48.853 67.9097V145.91H126.853V67.9097H48.853ZM45.9434 67.9097H-32.0566V145.91H45.9434V67.9097ZM45.9434 143H48.853V-13H45.9434V143ZM-29.147 65V67.9097H126.853V65H-29.147ZM48.853 -10.0903H45.9434V145.91H48.853V-10.0903ZM123.943 67.9097V65H-32.0566V67.9097H123.943Z" fill="url(#paint2_linear_28_84)" mask="url(#path-4-inside-3_28_84)"/>
<mask id="path-6-inside-4_28_84" fill="white">
<path d="M45.9487 62.1152H43.0391V65.0249H45.9487V62.1152Z"/>
</mask>
<path d="M43.0391 62.1152V-15.8848H-34.9609V62.1152H43.0391ZM45.9487 62.1152H123.949V-15.8848H45.9487V62.1152ZM45.9487 65.0249V143.025H123.949V65.0249H45.9487ZM43.0391 65.0249H-34.9609V143.025H43.0391V65.0249ZM43.0391 140.115H45.9487V-15.8848H43.0391V140.115ZM-32.0513 62.1152V65.0249H123.949V62.1152H-32.0513ZM45.9487 -12.9751H43.0391V143.025H45.9487V-12.9751ZM121.039 65.0249V62.1152H-34.9609V65.0249H121.039Z" fill="url(#paint3_linear_28_84)" mask="url(#path-6-inside-4_28_84)"/>
<mask id="path-8-inside-5_28_84" fill="white">
<path d="M43.0523 65H40.1426V67.9097H43.0523V65Z"/>
</mask>
<path d="M40.1426 65V-13H-37.8574V65H40.1426ZM43.0523 65H121.052V-13H43.0523V65ZM43.0523 67.9097V145.91H121.052V67.9097H43.0523ZM40.1426 67.9097H-37.8574V145.91H40.1426V67.9097ZM40.1426 143H43.0523V-13H40.1426V143ZM-34.9477 65V67.9097H121.052V65H-34.9477ZM43.0523 -10.0903H40.1426V145.91H43.0523V-10.0903ZM118.143 67.9097V65H-37.8574V67.9097H118.143Z" fill="url(#paint4_linear_28_84)" mask="url(#path-8-inside-5_28_84)"/>
<mask id="path-10-inside-6_28_84" fill="white">
<path d="M51.7691 67.9307H48.8594V70.8403H51.7691V67.9307Z"/>
</mask>
<path d="M48.8594 67.9307V-10.0693H-29.1406V67.9307H48.8594ZM51.7691 67.9307H129.769V-10.0693H51.7691V67.9307ZM51.7691 70.8403V148.84H129.769V70.8403H51.7691ZM48.8594 70.8403H-29.1406V148.84H48.8594V70.8403ZM48.8594 145.931H51.7691V-10.0693H48.8594V145.931ZM-26.2309 67.9307V70.8403H129.769V67.9307H-26.2309ZM51.7691 -7.15966H48.8594V148.84H51.7691V-7.15966ZM126.859 70.8403V67.9307H-29.1406V70.8403H126.859Z" fill="url(#paint5_linear_28_84)" mask="url(#path-10-inside-6_28_84)"/>
<mask id="path-12-inside-7_28_84" fill="white">
<path d="M40.1519 67.9307H37.2422V70.8403H40.1519V67.9307Z"/>
</mask>
<path d="M37.2422 67.9307V-10.0693H-40.7578V67.9307H37.2422ZM40.1519 67.9307H118.152V-10.0693H40.1519V67.9307ZM40.1519 70.8403V148.84H118.152V70.8403H40.1519ZM37.2422 70.8403H-40.7578V148.84H37.2422V70.8403ZM37.2422 145.931H40.1519V-10.0693H37.2422V145.931ZM-37.8481 67.9307V70.8403H118.152V67.9307H-37.8481ZM40.1519 -7.15966H37.2422V148.84H40.1519V-7.15966ZM115.242 70.8403V67.9307H-40.7578V70.8403H115.242Z" fill="url(#paint6_linear_28_84)" mask="url(#path-12-inside-7_28_84)"/>
<defs>
<linearGradient id="paint0_linear_28_84" x1="17.5816" y1="6.2929" x2="79.1873" y2="112.553" gradientUnits="userSpaceOnUse">
<stop offset="0.09375" stop-color="#38D26F"/>
<stop offset="0.739583" stop-color="#357AFF"/>
</linearGradient>
<linearGradient id="paint1_linear_28_84" x1="-3.03245" y1="-2.5573" x2="105.697" y2="185.031" gradientUnits="userSpaceOnUse">
<stop offset="0.09375" stop-color="#38D26F"/>
<stop offset="0.739583" stop-color="#357AFF"/>
</linearGradient>
<linearGradient id="paint2_linear_28_84" x1="45.8145" y1="64.8822" x2="49.4384" y2="71.1328" gradientUnits="userSpaceOnUse">
<stop offset="0.09375" stop-color="#38D26F"/>
<stop offset="0.739583" stop-color="#357AFF"/>
</linearGradient>
<linearGradient id="paint3_linear_28_84" x1="42.9102" y1="61.9975" x2="46.5341" y2="68.2481" gradientUnits="userSpaceOnUse">
<stop offset="0.09375" stop-color="#38D26F"/>
<stop offset="0.739583" stop-color="#357AFF"/>
</linearGradient>
<linearGradient id="paint4_linear_28_84" x1="40.0138" y1="64.8822" x2="43.6376" y2="71.1328" gradientUnits="userSpaceOnUse">
<stop offset="0.09375" stop-color="#38D26F"/>
<stop offset="0.739583" stop-color="#357AFF"/>
</linearGradient>
<linearGradient id="paint5_linear_28_84" x1="48.7306" y1="67.8129" x2="52.3544" y2="74.0635" gradientUnits="userSpaceOnUse">
<stop offset="0.09375" stop-color="#38D26F"/>
<stop offset="0.739583" stop-color="#357AFF"/>
</linearGradient>
<linearGradient id="paint6_linear_28_84" x1="37.1134" y1="67.8129" x2="40.7372" y2="74.0635" gradientUnits="userSpaceOnUse">
<stop offset="0.09375" stop-color="#38D26F"/>
<stop offset="0.739583" stop-color="#357AFF"/>
</linearGradient>
</defs>
</svg>
