<svg width="105" height="95" viewBox="0 0 105 95" fill="none" xmlns="http://www.w3.org/2000/svg">
<path d="M35.0335 66.5482C39.1702 63.9847 41.9324 59.4055 41.9324 54.1915C41.9324 46.1806 35.4151 39.6633 27.4042 39.6633C19.3933 39.6633 12.876 46.1806 12.876 54.1915C12.876 59.4053 15.6382 63.9847 19.7746 66.5482C8.51324 69.8525 0.265625 80.2769 0.265625 92.5931C0.265625 93.026 0.437608 93.4412 0.743739 93.7473C1.04987 94.0535 1.46507 94.2254 1.89801 94.2254H52.9099C53.3429 94.2254 53.7581 94.0535 54.0642 93.7473C54.3704 93.4412 54.5423 93.026 54.5423 92.5931C54.5423 80.2771 46.2949 69.8525 35.0335 66.5482ZM16.1407 54.1915C16.1407 47.9809 21.1936 42.928 27.4042 42.928C33.6148 42.928 38.6676 47.9809 38.6676 54.1915C38.6676 60.4004 33.6176 65.4521 27.4095 65.4547H27.3991C21.1907 65.4518 16.1407 60.4004 16.1407 54.1915ZM3.58569 90.9607C4.42738 78.557 14.7861 68.7221 27.3989 68.7195L27.4042 68.7197L27.4095 68.7195C40.0221 68.7223 50.3806 78.557 51.2223 90.9607H3.58569ZM36.2627 35.6411C36.5851 35.7511 36.9337 35.7576 37.26 35.6596C37.5862 35.5616 37.8735 35.364 38.0818 35.0944L45.5563 25.4216H99.0247C102.175 25.4216 104.738 22.8585 104.738 19.7082V6.45553C104.738 3.30523 102.175 0.742188 99.0247 0.742188H40.8711C37.7208 0.742188 35.1578 3.30523 35.1578 6.45553V34.0962C35.1578 34.4368 35.2643 34.7689 35.4624 35.0459C35.6605 35.323 35.9404 35.5311 36.2627 35.6411ZM38.4226 6.45553C38.4226 5.10534 39.5209 4.00695 40.8711 4.00695H99.0247C100.375 4.00695 101.473 5.10534 101.473 6.45553V19.7082C101.473 21.0584 100.375 22.1568 99.0247 22.1568H44.7546C44.5051 22.1568 44.259 22.214 44.0351 22.3239C43.8112 22.4338 43.6155 22.5936 43.4629 22.791L38.4226 29.314V6.45553ZM99.0247 33.4882H56.1747C53.0244 33.4882 50.4614 36.0512 50.4614 39.2015V51.0712C50.4614 54.2215 53.0244 56.7845 56.1747 56.7845H94.854L101.814 65.7918C102.022 66.0614 102.31 66.259 102.636 66.357C102.962 66.4551 103.311 66.4486 103.633 66.3384C103.956 66.2285 104.235 66.0204 104.434 65.7433C104.632 65.4663 104.738 65.1342 104.738 64.7936V39.2015C104.738 36.0512 102.175 33.4882 99.0247 33.4882ZM101.473 60.0113L96.9471 54.1539C96.7946 53.9566 96.5989 53.7968 96.375 53.6869C96.1511 53.5769 95.9049 53.5198 95.6555 53.5197H56.1747C54.8245 53.5197 53.7261 52.4214 53.7261 51.0712V39.2015C53.7261 37.8513 54.8245 36.7529 56.1747 36.7529H99.0247C100.375 36.7529 101.473 37.8513 101.473 39.2015V60.0113ZM83.5055 13.0818C83.5055 12.6488 83.6775 12.2336 83.9836 11.9275C84.2897 11.6214 84.7049 11.4494 85.1379 11.4494H92.9033C93.3362 11.4494 93.7515 11.6214 94.0576 11.9275C94.3637 12.2336 94.5357 12.6488 94.5357 13.0818C94.5357 13.5147 94.3637 13.9299 94.0576 14.236C93.7515 14.5422 93.3362 14.7142 92.9033 14.7142H85.1381C84.9237 14.7142 84.7114 14.672 84.5133 14.59C84.3153 14.5079 84.1353 14.3877 83.9837 14.2361C83.8321 14.0845 83.7118 13.9046 83.6298 13.7065C83.5477 13.5084 83.5055 13.2962 83.5055 13.0818ZM45.3602 13.0818C45.3602 12.6488 45.5322 12.2336 45.8383 11.9275C46.1444 11.6214 46.5596 11.4494 46.9926 11.4494H61.3657C61.7986 11.4494 62.2138 11.6214 62.52 11.9275C62.8261 12.2336 62.9981 12.6488 62.9981 13.0818C62.9981 13.5147 62.8261 13.9299 62.52 14.236C62.2138 14.5422 61.7986 14.7142 61.3657 14.7142H46.9926C46.5596 14.7142 46.1444 14.5422 45.8383 14.236C45.5322 13.9299 45.3602 13.5147 45.3602 13.0818ZM66.8056 13.0818C66.8056 12.6488 66.9776 12.2336 67.2837 11.9275C67.5898 11.6214 68.0051 11.4494 68.438 11.4494H78.8063C79.2392 11.4494 79.6544 11.6214 79.9605 11.9275C80.2667 12.2336 80.4386 12.6488 80.4386 13.0818C80.4386 13.5147 80.2667 13.9299 79.9605 14.236C79.6544 14.5422 79.2392 14.7142 78.8063 14.7142H68.438C68.0051 14.7142 67.5898 14.5422 67.2837 14.236C66.9776 13.9299 66.8056 13.5147 66.8056 13.0818ZM95.1389 45.1362C95.1389 45.5692 94.9669 45.9844 94.6607 46.2905C94.3546 46.5966 93.9394 46.7686 93.5065 46.7686H83.1382C82.7053 46.7686 82.2901 46.5966 81.9839 46.2905C81.6778 45.9844 81.5058 45.5692 81.5058 45.1362C81.5058 44.7033 81.6778 44.2881 81.9839 43.982C82.2901 43.6758 82.7053 43.5039 83.1382 43.5039H93.5065C93.9394 43.5039 94.3546 43.6758 94.6607 43.982C94.9669 44.2881 95.1389 44.7033 95.1389 45.1362ZM77.6985 45.1362C77.6985 45.5692 77.5265 45.9844 77.2204 46.2905C76.9142 46.5966 76.499 46.7686 76.0661 46.7686H61.6928C61.2598 46.7686 60.8446 46.5966 60.5385 46.2905C60.2324 45.9844 60.0604 45.5692 60.0604 45.1362C60.0604 44.7033 60.2324 44.2881 60.5385 43.982C60.8446 43.6758 61.2598 43.5039 61.6928 43.5039H76.0661C76.499 43.5039 76.9142 43.6758 77.2204 43.982C77.5265 44.2881 77.6985 44.7033 77.6985 45.1362Z" fill="url(#paint0_linear_772_1648)"/>
<defs>
<linearGradient id="paint0_linear_772_1648" x1="-4.35957" y1="-3.04144" x2="105.322" y2="208.38" gradientUnits="userSpaceOnUse">
<stop offset="0.09375" stop-color="#38D26F"/>
<stop offset="0.739583" stop-color="#357AFF"/>
</linearGradient>
</defs>
</svg>
