<svg width="44" height="39" viewBox="0 0 44 39" fill="none" xmlns="http://www.w3.org/2000/svg">
<path d="M39.4883 13.6513L39.237 13.041C39.5906 13.041 39.9407 12.9714 40.2673 12.8361C40.594 12.7008 40.8908 12.5024 41.1408 12.2524C41.3908 12.0024 41.5891 11.7056 41.7244 11.379C41.8597 11.0523 41.9294 10.7022 41.9294 10.3486C41.9294 9.99506 41.8597 9.64496 41.7244 9.3183C41.5891 8.99165 41.3908 8.69484 41.1408 8.44483C40.8908 8.19482 40.594 7.9965 40.2673 7.86119C39.9407 7.72589 39.5906 7.65625 39.237 7.65625H37.0292L35.0189 2.64842C34.6187 1.98737 34.0551 1.44038 33.3825 1.06003C32.7098 0.679682 31.9506 0.478755 31.1778 0.476562H11.9003C11.1022 0.484564 10.3202 0.702813 9.63322 1.10932C8.94626 1.51582 8.37859 2.09621 7.9874 2.79201L6.03094 7.65625H3.80523C3.45167 7.65625 3.10156 7.72589 2.7749 7.86119C2.44825 7.9965 2.15144 8.19482 1.90143 8.44483C1.65142 8.69484 1.4531 8.99165 1.3178 9.3183C1.18249 9.64496 1.11285 9.99506 1.11285 10.3486C1.11285 10.7022 1.18249 11.0523 1.3178 11.379C1.4531 11.7056 1.65142 12.0024 1.90143 12.2524C2.15144 12.5024 2.44825 12.7008 2.7749 12.8361C3.10156 12.9714 3.45167 13.041 3.80523 13.041L3.58984 13.6513C2.51636 14.1605 1.60928 14.9637 0.973868 15.9676C0.338459 16.9716 0.000773401 18.1351 9.35408e-08 19.3232V28.2978C-0.000211038 29.3323 0.356995 30.3351 1.01116 31.1364C1.66533 31.9378 2.57628 32.4885 3.58984 32.6954V35.4775C3.58984 36.1916 3.8735 36.8764 4.37842 37.3813C4.88334 37.8863 5.56816 38.1699 6.28223 38.1699H8.07715C8.79121 38.1699 9.47603 37.8863 9.98095 37.3813C10.4859 36.8764 10.7695 36.1916 10.7695 35.4775V32.7852H32.3086V35.4775C32.3086 36.1916 32.5923 36.8764 33.0972 37.3813C33.6021 37.8863 34.2869 38.1699 35.001 38.1699H36.7959C37.51 38.1699 38.1948 37.8863 38.6997 37.3813C39.2046 36.8764 39.4883 36.1916 39.4883 35.4775V32.6954C40.5018 32.4885 41.4128 31.9378 42.067 31.1364C42.7211 30.3351 43.0783 29.3323 43.0781 28.2978V19.3232C43.0774 18.1351 42.7397 16.9716 42.1043 15.9676C41.4688 14.9637 40.5618 14.1605 39.4883 13.6513ZM39.2729 9.45117C39.4411 9.45083 39.606 9.49777 39.7488 9.58663C39.8916 9.6755 40.0066 9.8027 40.0806 9.95375C40.1477 10.0907 40.1788 10.2425 40.171 10.3948C40.1631 10.5471 40.1166 10.695 40.0357 10.8243C39.9549 10.9536 39.8424 11.0602 39.709 11.134C39.5755 11.2078 39.4254 11.2464 39.2729 11.2461H38.4652L37.7472 9.45117H39.2729ZM6.03094 12.5025L7.46687 8.91269L9.58488 3.52793C9.83213 3.13888 10.1745 2.81932 10.5797 2.59947C10.9848 2.37961 11.4394 2.26673 11.9003 2.27148H31.1778C31.6203 2.26935 32.0566 2.37632 32.4479 2.58295C32.8393 2.78958 33.1736 3.08949 33.4214 3.45613L37.2626 13.041H5.81555L6.03094 12.5025ZM3.80523 11.2461C3.56721 11.2461 3.33894 11.1515 3.17063 10.9832C3.00233 10.8149 2.90777 10.5867 2.90777 10.3486C2.90777 10.1106 3.00233 9.88234 3.17063 9.71403C3.33894 9.54572 3.56721 9.45117 3.80523 9.45117H5.38477L4.6668 11.2461H3.80523ZM8.97461 35.4775C8.97461 35.7156 8.88006 35.9438 8.71175 36.1121C8.54344 36.2804 8.31517 36.375 8.07715 36.375H6.28223C6.04421 36.375 5.81593 36.2804 5.64763 36.1121C5.47932 35.9438 5.38477 35.7156 5.38477 35.4775V32.7852H8.97461V35.4775ZM13.6594 30.9902L14.7004 25.6055H28.4136L29.4547 30.9902H13.6594ZM37.6934 35.4775C37.6934 35.7156 37.5988 35.9438 37.4305 36.1121C37.2622 36.2804 37.0339 36.375 36.7959 36.375H35.001C34.763 36.375 34.5347 36.2804 34.3664 36.1121C34.1981 35.9438 34.1035 35.7156 34.1035 35.4775V32.7852H37.6934V35.4775ZM41.2832 28.2978C41.2832 29.0119 40.9995 29.6967 40.4946 30.2016C39.9897 30.7066 39.3049 30.9902 38.5908 30.9902H31.2496L30.0111 24.5465C29.9734 24.3404 29.8648 24.1541 29.7042 24.0197C29.5436 23.8853 29.341 23.8113 29.1316 23.8105H13.9465C13.7371 23.8113 13.5345 23.8853 13.3739 24.0197C13.2133 24.1541 13.1047 24.3404 13.067 24.5465L11.8285 30.9902H4.4873C3.77324 30.9902 3.08842 30.7066 2.5835 30.2016C2.07858 29.6967 1.79492 29.0119 1.79492 28.2978V19.3232C1.79492 18.1331 2.26769 16.9918 3.10922 16.1502C3.95076 15.3087 5.09212 14.8359 6.28223 14.8359H36.7959C37.986 14.8359 39.1274 15.3087 39.9689 16.1502C40.8104 16.9918 41.2832 18.1331 41.2832 19.3232V28.2978ZM11.667 16.6309H6.28223C5.56816 16.6309 4.88334 16.9145 4.37842 17.4194C3.8735 17.9244 3.58984 18.6092 3.58984 19.3232V21.1182C3.58984 21.3562 3.6844 21.5845 3.8527 21.7528C4.02101 21.9211 4.24928 22.0156 4.4873 22.0156H11.667C11.905 22.0156 12.1333 21.9211 12.3016 21.7528C12.4699 21.5845 12.5645 21.3562 12.5645 21.1182V17.5283C12.5645 17.2903 12.4699 17.062 12.3016 16.8937C12.1333 16.7254 11.905 16.6309 11.667 16.6309ZM10.7695 20.2207H5.38477V19.3232C5.38477 19.0852 5.47932 18.8569 5.64763 18.6886C5.81593 18.5203 6.04421 18.4258 6.28223 18.4258H10.7695V20.2207ZM6.28223 23.8105C5.74972 23.8105 5.22918 23.9684 4.78642 24.2643C4.34366 24.5601 3.99857 24.9806 3.79479 25.4726C3.59101 25.9646 3.53769 26.5059 3.64158 27.0282C3.74546 27.5505 4.00189 28.0302 4.37842 28.4067C4.75496 28.7833 5.2347 29.0397 5.75697 29.1436C6.27924 29.2475 6.82059 29.1941 7.31256 28.9904C7.80453 28.7866 8.22502 28.4415 8.52086 27.9987C8.8167 27.556 8.97461 27.0354 8.97461 26.5029C8.97461 25.7889 8.69095 25.104 8.18603 24.5991C7.68111 24.0942 6.99629 23.8105 6.28223 23.8105ZM6.28223 27.4004C6.10473 27.4004 5.93121 27.3478 5.78362 27.2491C5.63604 27.1505 5.52101 27.0104 5.45308 26.8464C5.38515 26.6824 5.36738 26.5019 5.40201 26.3278C5.43664 26.1537 5.52211 25.9938 5.64763 25.8683C5.77314 25.7428 5.93305 25.6573 6.10714 25.6227C6.28123 25.5881 6.46168 25.6059 6.62567 25.6738C6.78966 25.7417 6.92982 25.8567 7.02844 26.0043C7.12705 26.1519 7.17969 26.3254 7.17969 26.5029C7.17969 26.7409 7.08513 26.9692 6.91683 27.1375C6.74852 27.3058 6.52025 27.4004 6.28223 27.4004ZM26.0264 18.4258H18.8467C18.6087 18.4258 18.3804 18.5203 18.2121 18.6886C18.0438 18.8569 17.9492 19.0852 17.9492 19.3232C17.9492 19.5613 18.0438 19.7895 18.2121 19.9578C18.3804 20.1261 18.6087 20.2207 18.8467 20.2207H26.0264C26.2644 20.2207 26.4927 20.1261 26.661 19.9578C26.8293 19.7895 26.9238 19.5613 26.9238 19.3232C26.9238 19.0852 26.8293 18.8569 26.661 18.6886C26.4927 18.5203 26.2644 18.4258 26.0264 18.4258ZM36.7959 16.6309H31.4111C31.1731 16.6309 30.9448 16.7254 30.7765 16.8937C30.6082 17.062 30.5137 17.2903 30.5137 17.5283V21.1182C30.5137 21.3562 30.6082 21.5845 30.7765 21.7528C30.9448 21.9211 31.1731 22.0156 31.4111 22.0156H38.5908C38.8288 22.0156 39.0571 21.9211 39.2254 21.7528C39.3937 21.5845 39.4883 21.3562 39.4883 21.1182V19.3232C39.4883 18.6092 39.2046 17.9244 38.6997 17.4194C38.1948 16.9145 37.51 16.6309 36.7959 16.6309ZM37.6934 20.2207H32.3086V18.4258H36.7959C37.0339 18.4258 37.2622 18.5203 37.4305 18.6886C37.5988 18.8569 37.6934 19.0852 37.6934 19.3232V20.2207ZM36.7959 23.8105C36.2634 23.8105 35.7429 23.9684 35.3001 24.2643C34.8573 24.5601 34.5122 24.9806 34.3085 25.4726C34.1047 25.9646 34.0514 26.5059 34.1553 27.0282C34.2591 27.5505 34.5156 28.0302 34.8921 28.4067C35.2686 28.7833 35.7484 29.0397 36.2706 29.1436C36.7929 29.2475 37.3343 29.1941 37.8262 28.9904C38.3182 28.7866 38.7387 28.4415 39.0345 27.9987C39.3304 27.556 39.4883 27.0354 39.4883 26.5029C39.4883 25.7889 39.2046 25.104 38.6997 24.5991C38.1948 24.0942 37.51 23.8105 36.7959 23.8105ZM36.7959 27.4004C36.6184 27.4004 36.4449 27.3478 36.2973 27.2491C36.1497 27.1505 36.0347 27.0104 35.9668 26.8464C35.8988 26.6824 35.8811 26.5019 35.9157 26.3278C35.9503 26.1537 36.0358 25.9938 36.1613 25.8683C36.2868 25.7428 36.4467 25.6573 36.6208 25.6227C36.7949 25.5881 36.9753 25.6059 37.1393 25.6738C37.3033 25.7417 37.4435 25.8567 37.5421 26.0043C37.6407 26.1519 37.6934 26.3254 37.6934 26.5029C37.6934 26.7409 37.5988 26.9692 37.4305 27.1375C37.2622 27.3058 37.0339 27.4004 36.7959 27.4004Z" fill="#12AC49"/>
</svg>
