<svg width="43" height="40" viewBox="0 0 43 40" fill="none" xmlns="http://www.w3.org/2000/svg">
<path d="M21.2062 36.3139C20.4072 36.3119 19.6386 36.0071 19.0554 35.4609C18.4722 34.9147 18.1177 34.1677 18.0634 33.3705V33.3586L17.9334 30.3242C17.9303 30.253 17.9413 30.182 17.9657 30.1151C17.9901 30.0481 18.0274 29.9867 18.0756 29.9342C18.1728 29.8282 18.3082 29.7652 18.4519 29.759C18.5956 29.7529 18.7359 29.804 18.8419 29.9013C18.9479 29.9985 19.0109 30.1339 19.0171 30.2776L19.1461 33.312C19.1912 33.8275 19.428 34.3074 19.8098 34.6567C20.1917 35.006 20.6906 35.1994 21.2081 35.1985C21.7256 35.1977 22.224 35.0028 22.6047 34.6523C22.9854 34.3018 23.2207 33.8212 23.2642 33.3055L24.698 6.8096C24.7299 6.33115 24.6634 5.85123 24.5024 5.39955C24.3414 4.94787 24.0894 4.53404 23.7619 4.1837C23.4345 3.83335 23.0387 3.55394 22.5989 3.36276C22.1592 3.17159 21.6849 3.07271 21.2053 3.07227C20.7258 3.07182 20.2513 3.16981 19.8112 3.36017C19.3711 3.55053 18.9747 3.8292 18.6467 4.17894C18.3186 4.52868 18.0658 4.94203 17.904 5.39341C17.7422 5.84479 17.6747 6.32459 17.7058 6.8031L18.6866 23.4534C18.6949 23.5971 18.6458 23.7382 18.5501 23.8458C18.5027 23.899 18.4453 23.9424 18.3811 23.9734C18.3169 24.0045 18.2473 24.0226 18.1761 24.0267C18.0324 24.035 17.8913 23.9859 17.7838 23.8902C17.6763 23.7945 17.6112 23.66 17.6028 23.5163L16.6275 6.87029C16.5854 6.24325 16.6726 5.61426 16.8836 5.0223C17.0946 4.43035 17.425 3.88805 17.8543 3.42904C18.2835 2.97002 18.8025 2.60408 19.379 2.35389C19.9555 2.1037 20.5772 1.97461 21.2057 1.97461C21.8341 1.97461 22.4559 2.1037 23.0324 2.35389C23.6089 2.60408 24.1278 2.97002 24.5571 3.42904C24.9863 3.88805 25.3167 4.43035 25.5277 5.0223C25.7387 5.61426 25.8259 6.24325 25.7838 6.87029L24.349 33.364C24.2963 34.1624 23.9425 34.911 23.3591 35.4585C22.7758 36.0061 22.0063 36.3118 21.2062 36.3139Z" fill="#12AC49"/>
<path d="M41.7689 22.9762C41.7362 22.976 41.7036 22.9731 41.6714 22.9675L26.5762 20.1888L24.7751 21.3874C24.6913 21.4431 24.5937 21.4744 24.4932 21.4777C24.3928 21.4811 24.2933 21.4564 24.206 21.4065C24.1188 21.3565 24.0471 21.2833 23.9991 21.195C23.951 21.1066 23.9285 21.0067 23.9341 20.9063L24.4196 11.8789C24.4242 11.7913 24.4499 11.7062 24.4946 11.6308C24.5392 11.5554 24.6016 11.4919 24.6762 11.4459C24.7507 11.3998 24.8354 11.3726 24.9228 11.3665C25.0103 11.3603 25.0979 11.3755 25.1782 11.4107L33.3365 14.9252C33.4018 14.9537 33.4609 14.9947 33.5103 15.046C33.5598 15.0973 33.5986 15.1578 33.6247 15.2242C33.6508 15.2905 33.6635 15.3613 33.6622 15.4325C33.6609 15.5038 33.6456 15.5741 33.6171 15.6394C33.5887 15.7047 33.5476 15.7638 33.4963 15.8132C33.445 15.8627 33.3845 15.9016 33.3182 15.9276C33.2519 15.9537 33.1811 15.9664 33.1098 15.9651C33.0386 15.9638 32.9683 15.9485 32.903 15.9201L25.4567 12.7144L25.0677 19.8876L26.1514 19.1647C26.2684 19.0871 26.411 19.058 26.5491 19.0834L41.227 21.7841V19.5083L40.3416 19.1268C40.2096 19.07 40.1055 18.9631 40.0522 18.8296C39.999 18.6961 40.0009 18.5469 40.0577 18.4148C40.1145 18.2827 40.2214 18.1786 40.3549 18.1254C40.4884 18.0721 40.6376 18.0741 40.7697 18.1309L41.9835 18.6532C42.0804 18.6955 42.1628 18.7653 42.2206 18.8538C42.2784 18.9424 42.309 19.046 42.3086 19.1517V22.4343C42.3086 22.578 42.2515 22.7158 42.1499 22.8175C42.0483 22.9191 41.9104 22.9762 41.7667 22.9762H41.7689ZM0.619989 22.9762C0.476279 22.9762 0.338454 22.9191 0.236836 22.8175C0.135217 22.7158 0.0781283 22.578 0.0781283 22.4343V19.1474C0.07776 19.0416 0.108347 18.9381 0.166117 18.8495C0.223888 18.7609 0.306318 18.6912 0.403245 18.6489L17.2118 11.4118C17.2921 11.3766 17.3797 11.3614 17.4671 11.3675C17.5546 11.3737 17.6392 11.4009 17.7138 11.447C17.7884 11.493 17.8507 11.5564 17.8954 11.6319C17.9401 11.7073 17.9658 11.7924 17.9704 11.8799L18.4591 20.9063C18.4647 21.0067 18.4422 21.1066 18.3942 21.195C18.3461 21.2833 18.2745 21.3565 18.1872 21.4065C18.0999 21.4564 18.0005 21.4811 17.9 21.4777C17.7995 21.4744 17.7019 21.4431 17.6182 21.3874L15.8149 20.1888L0.71644 22.9675C0.684573 22.973 0.652319 22.9759 0.619989 22.9762ZM1.16185 19.5083V21.7841L15.8322 19.0834C15.9706 19.0585 16.1134 19.0876 16.231 19.1647L17.3147 19.8876L16.9267 12.7144L1.16185 19.5083ZM27.9298 35.5322C27.8607 35.5321 27.7923 35.5189 27.7282 35.4932L23.5992 33.8383C23.4942 33.7962 23.405 33.7222 23.3442 33.6267C23.2833 33.5313 23.2539 33.4192 23.26 33.3062L23.3738 31.2027C23.3788 31.1131 23.4059 31.0261 23.4528 30.9496C23.4997 30.8731 23.5648 30.8094 23.6424 30.7643C23.7199 30.7192 23.8075 30.694 23.8972 30.6911C23.9869 30.6882 24.0759 30.7076 24.1563 30.7475L28.166 32.7481C28.2561 32.793 28.3319 32.8621 28.3849 32.9477C28.438 33.0332 28.4661 33.1319 28.4662 33.2325V34.9903C28.4662 35.0789 28.4444 35.1661 28.4028 35.2443C28.3613 35.3225 28.3012 35.3894 28.2278 35.439C28.1397 35.4986 28.0361 35.531 27.9298 35.5322ZM24.3632 32.9768L27.3879 34.1894V33.5685L24.4109 32.0849L24.3632 32.9768ZM14.47 35.5322C14.3262 35.5322 14.1884 35.4751 14.0868 35.3735C13.9852 35.2718 13.9281 35.134 13.9281 34.9903V33.2282C13.9282 33.1275 13.9563 33.0289 14.0094 32.9433C14.0624 32.8578 14.1382 32.7887 14.2283 32.7438L18.2381 30.7432C18.3184 30.7032 18.4074 30.6838 18.4971 30.6867C18.5868 30.6897 18.6744 30.7148 18.7519 30.7599C18.8295 30.8051 18.8946 30.8688 18.9415 30.9453C18.9884 31.0218 19.0155 31.1088 19.0205 31.1984L19.1397 33.3062C19.1458 33.4192 19.1164 33.5313 19.0556 33.6267C18.9947 33.7222 18.9055 33.7962 18.8005 33.8383L14.6715 35.4932C14.6074 35.5189 14.539 35.5321 14.47 35.5322ZM15.0118 33.5685V34.1894L18.0365 32.9768L17.9888 32.0849L15.0118 33.5685ZM21.1988 39.2266C21.0551 39.2266 20.9172 39.1695 20.8156 39.0679C20.714 38.9663 20.6569 38.8284 20.6569 38.6847V32.0469C20.6569 31.9032 20.714 31.7654 20.8156 31.6638C20.9172 31.5622 21.0551 31.5051 21.1988 31.5051C21.3425 31.5051 21.4803 31.5622 21.5819 31.6638C21.6835 31.7654 21.7406 31.9032 21.7406 32.0469V38.6847C21.7406 38.8284 21.6835 38.9663 21.5819 39.0679C21.4803 39.1695 21.3425 39.2266 21.1988 39.2266ZM23.1246 6.72685C23.0305 6.72684 22.9381 6.70235 22.8564 6.65579C22.7747 6.60924 22.7065 6.54223 22.6586 6.46134C22.5957 6.35297 22.0202 5.44264 21.1522 5.47298C20.3502 5.50333 19.8365 6.30203 19.7433 6.46134C19.7097 6.52745 19.6628 6.58595 19.6056 6.6332C19.5484 6.68045 19.4821 6.71545 19.4108 6.73603C19.3395 6.75661 19.2647 6.76232 19.1912 6.75283C19.1176 6.74334 19.0467 6.71883 18.983 6.68083C18.9193 6.64283 18.864 6.59215 18.8207 6.53193C18.7773 6.4717 18.7468 6.40322 18.731 6.33073C18.7153 6.25823 18.7145 6.18326 18.7289 6.11047C18.7433 6.03768 18.7724 5.96861 18.8146 5.90756C19.0183 5.56402 19.7899 4.4402 21.1164 4.39035C22.5849 4.33074 23.4377 5.64421 23.5938 5.90756C23.6672 6.03102 23.6885 6.17856 23.6532 6.31776C23.6178 6.45695 23.5286 6.57642 23.4052 6.64991C23.3206 6.70098 23.2234 6.72762 23.1246 6.72685ZM32.6624 10.0441C32.0809 10.0441 31.5124 9.87161 31.029 9.54842C30.5455 9.22524 30.1688 8.7659 29.9465 8.22854C29.7242 7.69118 29.6664 7.09996 29.7802 6.52969C29.894 5.95943 30.1745 5.43575 30.5861 5.02493C30.9977 4.61411 31.5219 4.33462 32.0923 4.22183C32.6628 4.10904 33.2539 4.16802 33.7909 4.3913C34.3278 4.61458 34.7865 4.99213 35.1088 5.47616C35.431 5.9602 35.6025 6.52897 35.6014 7.11049C35.5991 7.88877 35.2886 8.63444 34.7377 9.18426C34.1869 9.73408 33.4407 10.0433 32.6624 10.0441ZM32.6624 5.24974C32.2957 5.24974 31.9372 5.35842 31.6322 5.56205C31.3272 5.76567 31.0894 6.05512 30.9488 6.39382C30.8082 6.73252 30.7712 7.10529 30.8423 7.46504C30.9135 7.82479 31.0896 8.15539 31.3486 8.41507C31.6075 8.67476 31.9376 8.85189 32.2971 8.92409C32.6567 8.99629 33.0295 8.96032 33.3686 8.82072C33.7078 8.68113 33.9979 8.44417 34.2024 8.13977C34.4069 7.83538 34.5166 7.47721 34.5177 7.11049C34.5181 6.86647 34.4705 6.62475 34.3775 6.39916C34.2844 6.17356 34.1479 5.9685 33.9756 5.7957C33.8033 5.6229 33.5986 5.48574 33.3733 5.39206C33.148 5.29839 32.9064 5.25002 32.6624 5.24974Z" fill="#12AC49"/>
<path d="M32.6667 5.25114C32.523 5.25114 32.3852 5.19405 32.2835 5.09243C32.1819 4.99081 32.1248 4.85299 32.1248 4.70928V2.52233C32.1248 2.37862 32.1819 2.24079 32.2835 2.13918C32.3852 2.03756 32.523 1.98047 32.6667 1.98047C32.8104 1.98047 32.9482 2.03756 33.0499 2.13918C33.1515 2.24079 33.2086 2.37862 33.2086 2.52233V4.70928C33.2086 4.85299 33.1515 4.99081 33.0499 5.09243C32.9482 5.19405 32.8104 5.25114 32.6667 5.25114ZM36.9225 7.65375H35.0639C34.9202 7.65375 34.7824 7.59666 34.6807 7.49504C34.5791 7.39343 34.522 7.2556 34.522 7.11189C34.522 6.96818 34.5791 6.83036 34.6807 6.72874C34.7824 6.62712 34.9202 6.57003 35.0639 6.57003H36.9225C37.0662 6.57003 37.204 6.62712 37.3056 6.72874C37.4072 6.83036 37.4643 6.96818 37.4643 7.11189C37.4643 7.2556 37.4072 7.39343 37.3056 7.49504C37.204 7.59666 37.0662 7.65375 36.9225 7.65375ZM32.6667 12.7256C32.523 12.7256 32.3852 12.6685 32.2835 12.5669C32.1819 12.4652 32.1248 12.3274 32.1248 12.1837V9.50366C32.1248 9.35995 32.1819 9.22213 32.2835 9.12051C32.3852 9.01889 32.523 8.9618 32.6667 8.9618C32.8104 8.9618 32.9482 9.01889 33.0499 9.12051C33.1515 9.22213 33.2086 9.35995 33.2086 9.50366V12.1837C33.2086 12.3274 33.1515 12.4652 33.0499 12.5669C32.9482 12.6685 32.8104 12.7256 32.6667 12.7256ZM30.2695 7.65375H28.2625C28.1187 7.65375 27.9809 7.59666 27.8793 7.49504C27.7777 7.39343 27.7206 7.2556 27.7206 7.11189C27.7206 6.96818 27.7777 6.83036 27.8793 6.72874C27.9809 6.62712 28.1187 6.57003 28.2625 6.57003H30.2695C30.4132 6.57003 30.551 6.62712 30.6527 6.72874C30.7543 6.83036 30.8114 6.96818 30.8114 7.11189C30.8114 7.2556 30.7543 7.39343 30.6527 7.49504C30.551 7.59666 30.4132 7.65375 30.2695 7.65375ZM34.2305 5.83202C34.1259 5.83223 34.0234 5.80213 33.9355 5.74536C33.8475 5.68859 33.7779 5.60757 33.7351 5.5121C33.6922 5.41662 33.6779 5.31078 33.6939 5.20735C33.7099 5.10392 33.7555 5.00734 33.8252 4.92928L35.3132 3.25601C35.4086 3.14851 35.5428 3.08333 35.6863 3.07479C35.8298 3.06626 35.9708 3.11507 36.0783 3.21049C36.1858 3.30592 36.2509 3.44013 36.2595 3.58362C36.268 3.72711 36.2192 3.8681 36.1238 3.9756L34.6347 5.64995C34.584 5.70708 34.5218 5.75284 34.4521 5.78422C34.3824 5.81559 34.3069 5.83188 34.2305 5.83202ZM30.8482 6.09102C30.7767 6.09101 30.7058 6.07683 30.6398 6.0493C30.5738 6.02177 30.5139 5.98144 30.4635 5.93063L28.8845 4.33865C28.8282 4.28966 28.7825 4.22956 28.7505 4.16211C28.7185 4.09466 28.7008 4.02132 28.6984 3.94669C28.6961 3.87206 28.7092 3.79776 28.7369 3.72843C28.7647 3.65911 28.8064 3.59626 28.8596 3.54384C28.9128 3.49142 28.9762 3.45056 29.0459 3.42381C29.1156 3.39706 29.1901 3.38501 29.2647 3.38841C29.3393 3.39181 29.4124 3.41058 29.4793 3.44356C29.5463 3.47654 29.6058 3.523 29.654 3.58004L31.2329 5.17203C31.3086 5.24793 31.3601 5.34458 31.3808 5.44973C31.4015 5.55489 31.3906 5.66383 31.3495 5.76278C31.3083 5.86174 31.2387 5.94625 31.1494 6.00564C31.0602 6.06504 30.9554 6.09663 30.8482 6.09644V6.09102ZM35.7185 11.0946C35.6432 11.0945 35.5688 11.0788 35.4999 11.0484C35.4311 11.0179 35.3693 10.9735 35.3186 10.9179L33.8295 9.29234C33.7327 9.18614 33.682 9.04581 33.6886 8.90222C33.6952 8.75863 33.7586 8.62355 33.8648 8.52669C33.971 8.42983 34.1113 8.37912 34.2549 8.38573C34.3985 8.39233 34.5335 8.45571 34.6304 8.56191L36.1184 10.1875C36.1891 10.2651 36.2359 10.3616 36.2528 10.4652C36.2698 10.5689 36.2562 10.6752 36.2139 10.7713C36.1715 10.8674 36.1021 10.9491 36.0142 11.0065C35.9262 11.0639 35.8235 11.0945 35.7185 11.0946ZM29.5813 11.0946C29.4758 11.0946 29.3724 11.0639 29.2841 11.006C29.1958 10.9481 29.1263 10.8658 29.0841 10.7689C29.042 10.6721 29.0291 10.5651 29.0469 10.461C29.0648 10.357 29.1127 10.2604 29.1847 10.1832L30.7073 8.55757C30.807 8.45994 30.9406 8.40454 31.0801 8.4029C31.2196 8.40126 31.3544 8.45351 31.4564 8.54878C31.5583 8.64404 31.6196 8.77496 31.6275 8.91428C31.6353 9.0536 31.5891 9.19057 31.4984 9.29667L29.9812 10.9223C29.9301 10.9771 29.8682 11.0207 29.7994 11.0503C29.7305 11.08 29.6563 11.0951 29.5813 11.0946ZM7.35855 10.569C6.60706 10.57 5.87214 10.3482 5.24677 9.93144C4.62141 9.51472 4.13371 8.92186 3.84539 8.22788C3.55706 7.5339 3.48106 6.76999 3.62702 6.03281C3.77297 5.29562 4.13431 4.6183 4.66531 4.08653C5.19632 3.55477 5.87312 3.19246 6.6101 3.04546C7.34707 2.89846 8.11109 2.97336 8.80548 3.2607C9.49987 3.54803 10.0934 4.03489 10.511 4.65965C10.9287 5.28442 11.1516 6.01903 11.1516 6.77052C11.1504 7.77664 10.7506 8.7413 10.0397 9.45325C9.32876 10.1652 8.36467 10.5664 7.35855 10.569ZM7.35855 4.0558C6.82117 4.05472 6.29556 4.21317 5.8483 4.51105C5.40103 4.80894 5.05224 5.23286 4.8461 5.72913C4.63996 6.2254 4.58574 6.77169 4.69032 7.2988C4.79489 7.82591 5.05355 8.31012 5.43354 8.69011C5.81353 9.0701 6.29774 9.32876 6.82485 9.43334C7.35196 9.53791 7.89825 9.48369 8.39452 9.27755C8.89079 9.07141 9.31472 8.72262 9.6126 8.27535C9.91049 7.82809 10.0689 7.30248 10.0679 6.7651C10.0656 6.04725 9.77939 5.35946 9.27179 4.85186C8.76419 4.34426 8.0764 4.05808 7.35855 4.0558Z" fill="#12AC49"/>
<path d="M7.34974 4.05312C7.20603 4.05312 7.0682 3.99603 6.96658 3.89441C6.86496 3.79279 6.80787 3.65497 6.80787 3.51126V0.541861C6.80787 0.39815 6.86496 0.260326 6.96658 0.158707C7.0682 0.0570883 7.20603 0 7.34974 0C7.49345 0 7.63127 0.0570883 7.73289 0.158707C7.83451 0.260326 7.8916 0.39815 7.8916 0.541861V3.51126C7.8916 3.65497 7.83451 3.79279 7.73289 3.89441C7.63127 3.99603 7.49345 4.05312 7.34974 4.05312ZM13.1303 7.3097H10.6052C10.4615 7.3097 10.3237 7.25261 10.2221 7.15099C10.1205 7.04938 10.0634 6.91155 10.0634 6.76784C10.0634 6.62413 10.1205 6.48631 10.2221 6.38469C10.3237 6.28307 10.4615 6.22598 10.6052 6.22598H13.1303C13.274 6.22598 13.4118 6.28307 13.5135 6.38469C13.6151 6.48631 13.6722 6.62413 13.6722 6.76784C13.6722 6.91155 13.6151 7.04938 13.5135 7.15099C13.4118 7.25261 13.274 7.3097 13.1303 7.3097ZM7.34974 14.2065C7.20603 14.2065 7.0682 14.1494 6.96658 14.0478C6.86496 13.9462 6.80787 13.8084 6.80787 13.6646V10.0244C6.80787 9.88071 6.86496 9.74289 6.96658 9.64127C7.0682 9.53965 7.20603 9.48256 7.34974 9.48256C7.49345 9.48256 7.63127 9.53965 7.73289 9.64127C7.83451 9.74289 7.8916 9.88071 7.8916 10.0244V13.6646C7.8916 13.8084 7.83451 13.9462 7.73289 14.0478C7.63127 14.1494 7.49345 14.2065 7.34974 14.2065ZM4.09315 7.3097H1.36217C1.21846 7.3097 1.08064 7.25261 0.979019 7.15099C0.877401 7.04938 0.820312 6.91155 0.820312 6.76784C0.820312 6.62413 0.877401 6.48631 0.979019 6.38469C1.08064 6.28307 1.21846 6.22598 1.36217 6.22598H4.09315C4.23686 6.22598 4.37469 6.28307 4.47631 6.38469C4.57792 6.48631 4.63501 6.62413 4.63501 6.76784C4.63501 6.91155 4.57792 7.04938 4.47631 7.15099C4.37469 7.25261 4.23686 7.3097 4.09315 7.3097ZM9.47275 4.84207C9.36839 4.84189 9.2663 4.81158 9.17876 4.75478C9.09121 4.69797 9.02193 4.6171 8.97924 4.52188C8.93655 4.42665 8.92226 4.32112 8.9381 4.21797C8.95394 4.11482 8.99922 4.01844 9.06852 3.94041L11.0897 1.6646C11.137 1.61144 11.1943 1.56813 11.2584 1.53713C11.3224 1.50613 11.392 1.48805 11.463 1.48392C11.5341 1.4798 11.6052 1.4897 11.6724 1.51308C11.7397 1.53646 11.8016 1.57284 11.8548 1.62016C11.9079 1.66748 11.9512 1.72481 11.9822 1.78887C12.0132 1.85293 12.0313 1.92247 12.0354 1.99352C12.0396 2.06456 12.0297 2.13573 12.0063 2.20294C11.9829 2.27016 11.9465 2.33212 11.8992 2.38527L9.87806 4.66109C9.8271 4.71816 9.76464 4.76379 9.69479 4.79498C9.62493 4.82618 9.54925 4.84223 9.47275 4.84207ZM4.87452 5.19428C4.80298 5.19426 4.73215 5.18008 4.66612 5.15255C4.60008 5.12503 4.54016 5.08469 4.48979 5.03389L2.34511 2.87186C2.24379 2.76983 2.18716 2.63172 2.18767 2.48793C2.18818 2.34414 2.24578 2.20644 2.34782 2.10513C2.44985 2.00381 2.58796 1.94718 2.73175 1.94769C2.87554 1.9482 3.01324 2.0058 3.11455 2.10784L5.25924 4.27528C5.33454 4.35124 5.38567 4.44779 5.4062 4.55276C5.42672 4.65773 5.41572 4.76643 5.37459 4.86516C5.33345 4.96389 5.26401 5.04824 5.17502 5.10758C5.08603 5.16692 4.98147 5.19859 4.87452 5.19861V5.19428ZM11.4939 11.986C11.4187 11.986 11.3443 11.9705 11.2755 11.9403C11.2066 11.91 11.1448 11.8658 11.094 11.8104L9.07285 9.60177C8.97599 9.49557 8.92529 9.35524 8.93189 9.21165C8.9385 9.06807 9.00187 8.93299 9.10807 8.83612C9.21428 8.73926 9.35461 8.68856 9.49819 8.69516C9.64178 8.70177 9.77686 8.76514 9.87372 8.87134L11.8949 11.0843C11.9657 11.162 12.0124 11.2585 12.0294 11.3623C12.0463 11.466 12.0327 11.5725 11.9902 11.6686C11.9477 11.7647 11.8781 11.8464 11.79 11.9038C11.7019 11.9611 11.599 11.9915 11.4939 11.9914V11.986ZM3.1579 11.986C3.0524 11.9858 2.94924 11.9549 2.86107 11.8969C2.77291 11.839 2.70357 11.7566 2.66157 11.6598C2.61957 11.5631 2.60673 11.4561 2.62463 11.3522C2.64253 11.2482 2.69039 11.1517 2.76234 11.0746L4.83008 8.86593C4.87655 8.80743 4.93462 8.75917 5.00064 8.72418C5.06665 8.6892 5.13919 8.66824 5.21369 8.66263C5.28819 8.65703 5.36305 8.66689 5.43356 8.69159C5.50407 8.7163 5.5687 8.75532 5.62341 8.80621C5.67812 8.85709 5.72171 8.91874 5.75145 8.98727C5.78119 9.05581 5.79643 9.12976 5.79623 9.20447C5.79602 9.27919 5.78036 9.35305 5.75024 9.42142C5.72012 9.48979 5.67619 9.55119 5.6212 9.60177L3.55454 11.8191C3.50333 11.8725 3.44172 11.9149 3.3735 11.9436C3.30528 11.9723 3.23191 11.9867 3.1579 11.986ZM36.9137 19.3087C36.3988 19.3106 35.895 19.1597 35.466 18.8751C35.037 18.5905 34.7021 18.1849 34.5038 17.7098C34.3054 17.2348 34.2525 16.7115 34.3518 16.2063C34.451 15.7012 34.698 15.2368 35.0613 14.8721C35.4247 14.5074 35.8881 14.2587 36.3929 14.1575C36.8977 14.0564 37.4212 14.1073 37.897 14.3039C38.3728 14.5004 38.7796 14.8338 39.0658 15.2617C39.352 15.6897 39.5048 16.1929 39.5048 16.7077C39.5048 17.3959 39.2322 18.0559 38.7465 18.5434C38.2608 19.0309 37.6018 19.3061 36.9137 19.3087ZM36.9137 15.1829C36.6132 15.181 36.3189 15.2683 36.0681 15.4339C35.8173 15.5994 35.6213 15.8357 35.505 16.1127C35.3887 16.3898 35.3572 16.6952 35.4147 16.9901C35.4721 17.2851 35.6158 17.5563 35.8276 17.7695C36.0394 17.9826 36.3097 18.1281 36.6043 18.1875C36.8989 18.2468 37.2044 18.2173 37.4822 18.1028C37.76 17.9882 37.9976 17.7938 38.1647 17.5441C38.3319 17.2944 38.4211 17.0006 38.4211 16.7002C38.4211 16.2994 38.2626 15.915 37.9802 15.6308C37.6978 15.3465 37.3144 15.1855 36.9137 15.1829ZM17.9128 29.1229C17.4922 29.125 17.0805 29.0022 16.7297 28.7702C16.379 28.5381 16.1051 28.2071 15.9427 27.8192C15.7802 27.4312 15.7366 27.0038 15.8173 26.591C15.8981 26.1783 16.0995 25.7988 16.3961 25.5007C16.6928 25.2025 17.0712 24.9991 17.4835 24.9163C17.8959 24.8335 18.3235 24.8749 18.7123 25.0353C19.101 25.1958 19.4334 25.468 19.6673 25.8176C19.9012 26.1671 20.026 26.5782 20.026 26.9988C20.0269 27.5605 19.8049 28.0996 19.4087 28.4978C19.0125 28.8961 18.4745 29.1208 17.9128 29.1229ZM17.9128 25.9584C17.7066 25.9562 17.5044 26.0154 17.3318 26.1284C17.1593 26.2414 17.0243 26.4032 16.9439 26.5931C16.8635 26.783 16.8413 26.9925 16.8802 27.195C16.9192 27.3975 17.0174 27.5839 17.1624 27.7305C17.3075 27.8771 17.4928 27.9772 17.6949 28.0183C17.8971 28.0593 18.1068 28.0393 18.2975 27.9609C18.4883 27.8825 18.6514 27.7492 18.7662 27.5779C18.881 27.4066 18.9423 27.205 18.9423 26.9988C18.9435 26.7244 18.8357 26.4607 18.6427 26.2657C18.4497 26.0706 18.1872 25.9601 17.9128 25.9584Z" fill="#12AC49"/>
</svg>
