<svg width="43" height="44" viewBox="0 0 43 44" fill="none" xmlns="http://www.w3.org/2000/svg">
<path d="M41.9604 36.4863H41.0693V14.2085C41.0693 13.4995 40.7877 12.8195 40.2863 12.3182C39.785 11.8168 39.105 11.5352 38.396 11.5352H35.7227V3.51514C35.7227 2.80612 35.441 2.12615 34.9397 1.6248C34.4383 1.12345 33.7583 0.841797 33.0493 0.841797L9.88037 0.841797C9.17136 0.841797 8.49138 1.12345 7.99003 1.6248C7.48869 2.12615 7.20703 2.80612 7.20703 3.51514V11.5352H4.53369C3.82468 11.5352 3.1447 11.8168 2.64335 12.3182C2.14201 12.8195 1.86035 13.4995 1.86035 14.2085V36.4863H0.969238C0.7329 36.4863 0.506242 36.5802 0.339126 36.7473C0.17201 36.9144 0.078125 37.1411 0.078125 37.3774L0.078125 39.1597C0.078125 39.7448 0.193372 40.3242 0.417285 40.8647C0.641198 41.4053 0.969393 41.8965 1.38313 42.3102C1.79687 42.724 2.28805 43.0522 2.82862 43.2761C3.36919 43.5 3.94858 43.6152 4.53369 43.6152H38.396C38.9811 43.6152 39.5605 43.5 40.1011 43.2761C40.6416 43.0522 41.1328 42.724 41.5466 42.3102C41.9603 41.8965 42.2885 41.4053 42.5124 40.8647C42.7363 40.3242 42.8516 39.7448 42.8516 39.1597V37.3774C42.8516 37.1411 42.7577 36.9144 42.5906 36.7473C42.4234 36.5802 42.1968 36.4863 41.9604 36.4863ZM8.98926 7.9707H33.9404V28.4663C33.9404 28.7026 33.8465 28.9293 33.6794 29.0964C33.5123 29.2635 33.2857 29.3574 33.0493 29.3574H9.88037C9.64403 29.3574 9.41738 29.2635 9.25026 29.0964C9.08314 28.9293 8.98926 28.7026 8.98926 28.4663V7.9707ZM8.98926 3.51514C8.98926 3.2788 9.08314 3.05214 9.25026 2.88502C9.41738 2.71791 9.64403 2.62402 9.88037 2.62402H33.0493C33.2857 2.62402 33.5123 2.71791 33.6794 2.88502C33.8465 3.05214 33.9404 3.2788 33.9404 3.51514V6.18848H8.98926V3.51514ZM3.64258 14.2085C3.64258 13.9722 3.73646 13.7455 3.90358 13.5784C4.0707 13.4113 4.29735 13.3174 4.53369 13.3174H7.20703V28.4663C7.20703 29.1753 7.48869 29.8553 7.99003 30.3566C8.49138 30.858 9.17136 31.1396 9.88037 31.1396H33.0493C33.7583 31.1396 34.4383 30.858 34.9397 30.3566C35.441 29.8553 35.7227 29.1753 35.7227 28.4663V13.3174H38.396C38.6323 13.3174 38.859 13.4113 39.0261 13.5784C39.1932 13.7455 39.2871 13.9722 39.2871 14.2085V36.4863C25.0293 36.4863 25.4749 36.2814 25.1273 36.9764L24.4768 38.2686H18.4529C17.7311 36.8339 17.6687 36.4863 17.0093 36.4863H3.64258V14.2085ZM41.0693 39.1597C41.0693 39.8687 40.7877 40.5487 40.2863 41.05C39.785 41.5514 39.105 41.833 38.396 41.833H4.53369C3.82468 41.833 3.1447 41.5514 2.64335 41.05C2.14201 40.5487 1.86035 39.8687 1.86035 39.1597V38.2686H16.4568C17.1786 39.7032 17.241 40.0508 17.9004 40.0508C25.5818 40.0508 25.4927 40.229 25.8224 39.5607L26.4729 38.2686H41.0693V39.1597Z" fill="#12AC49"/>
<path d="M11.6567 3.51367C11.4204 3.51367 11.1937 3.60756 11.0266 3.77467C10.8595 3.94179 10.7656 4.16845 10.7656 4.40479C10.7656 4.64112 10.8595 4.86778 11.0266 5.0349C11.1937 5.20201 11.4204 5.2959 11.6567 5.2959C11.8931 5.2959 12.1197 5.20201 12.2869 5.0349C12.454 4.86778 12.5479 4.64112 12.5479 4.40479C12.5479 4.16845 12.454 3.94179 12.2869 3.77467C12.1197 3.60756 11.8931 3.51367 11.6567 3.51367ZM15.2212 3.51367C14.9849 3.51367 14.7582 3.60756 14.5911 3.77467C14.424 3.94179 14.3301 4.16845 14.3301 4.40479C14.3301 4.64112 14.424 4.86778 14.5911 5.0349C14.7582 5.20201 14.9849 5.2959 15.2212 5.2959C15.4575 5.2959 15.6842 5.20201 15.8513 5.0349C16.0184 4.86778 16.1123 4.64112 16.1123 4.40479C16.1123 4.16845 16.0184 3.94179 15.8513 3.77467C15.6842 3.60756 15.4575 3.51367 15.2212 3.51367ZM18.7856 3.51367C18.5493 3.51367 18.3226 3.60756 18.1555 3.77467C17.9884 3.94179 17.8945 4.16845 17.8945 4.40479C17.8945 4.64112 17.9884 4.86778 18.1555 5.0349C18.3226 5.20201 18.5493 5.2959 18.7856 5.2959C19.022 5.2959 19.2486 5.20201 19.4158 5.0349C19.5829 4.86778 19.6768 4.64112 19.6768 4.40479C19.6768 4.16845 19.5829 3.94179 19.4158 3.77467C19.2486 3.60756 19.022 3.51367 18.7856 3.51367ZM21.459 27.5737C23.2214 27.5737 24.9443 27.0511 26.4097 26.0719C27.8752 25.0928 29.0173 23.701 29.6918 22.0727C30.3663 20.4444 30.5427 18.6527 30.1989 16.9241C29.8551 15.1955 29.0063 13.6077 27.7601 12.3615C26.5139 11.1152 24.926 10.2665 23.1975 9.92269C21.4689 9.57885 19.6771 9.75532 18.0488 10.4298C16.4205 11.1042 15.0288 12.2464 14.0496 13.7118C13.0705 15.1773 12.5479 16.9001 12.5479 18.6626C12.5479 21.026 13.4867 23.2926 15.1579 24.9637C16.829 26.6349 19.0956 27.5737 21.459 27.5737ZM14.3925 19.5537H17.9569C18.0397 21.6732 18.6524 23.7382 19.7391 25.5598C18.3471 25.2129 17.0921 24.4541 16.1382 23.3826C15.1843 22.311 14.5758 20.9766 14.3925 19.5537ZM21.459 12.3179C22.548 13.935 23.1651 15.8234 23.2412 17.7715H19.6768C19.7529 15.8234 20.37 13.935 21.459 12.3179ZM23.2412 19.5537C23.1651 21.5018 22.548 23.3902 21.459 25.0073C20.37 23.3902 19.7529 21.5018 19.6768 19.5537H23.2412ZM23.2412 25.5598C24.3279 23.7382 24.9407 21.6732 25.0234 19.5537H28.5879C28.4045 20.9766 27.7961 22.311 26.8422 23.3826C25.8883 24.4541 24.6333 25.2129 23.2412 25.5598ZM28.5255 17.7715H25.0234C24.9407 15.652 24.3279 13.587 23.2412 11.7654C24.6217 12.1231 25.8632 12.8867 26.8052 13.9573C27.7473 15.028 28.3465 16.3567 28.5255 17.7715ZM19.6768 11.7654C18.59 13.587 17.9773 15.652 17.8945 17.7715H14.3301C14.5135 16.3486 15.1219 15.0142 16.0758 13.9426C17.0297 12.8711 18.2847 12.1123 19.6768 11.7654Z" fill="#12AC49"/>
</svg>
