<svg width="48" height="45" viewBox="0 0 48 45" fill="none" xmlns="http://www.w3.org/2000/svg">
<path d="M12.6576 37.37H2.27632C1.71867 37.37 1.5318 37.37 1.5318 36.3596V33.9562C1.5318 33.7574 1.45283 33.5667 1.31227 33.4262C1.1717 33.2856 0.981062 33.2067 0.782277 33.2067C0.583493 33.2067 0.39285 33.2856 0.252289 33.4262C0.111727 33.5667 0.0327599 33.7574 0.0327599 33.9562V36.3596C-0.0237336 36.6788 -0.00699825 37.0067 0.0817034 37.3185C0.170405 37.6302 0.328756 37.9178 0.54481 38.1595C0.760864 38.4011 1.02898 38.5905 1.32892 38.7135C1.62887 38.8364 1.95281 38.8896 2.27632 38.869H12.6576C12.8564 38.869 13.0471 38.79 13.1876 38.6495C13.3282 38.5089 13.4072 38.3183 13.4072 38.1195C13.4072 37.9207 13.3282 37.7301 13.1876 37.5895C13.0471 37.4489 12.8564 37.37 12.6576 37.37ZM0.782277 31.5967C0.981062 31.5967 1.1717 31.5177 1.31227 31.3772C1.45283 31.2366 1.5318 31.046 1.5318 30.8472V6.07112L24.2172 6.1101V18.6071C24.2172 18.8058 24.2962 18.9965 24.4367 19.137C24.5773 19.2776 24.7679 19.3566 24.9667 19.3566C25.1655 19.3566 25.3561 19.2776 25.4967 19.137C25.6373 18.9965 25.7162 18.8058 25.7162 18.6071V6.1101C25.72 5.70474 25.5626 5.3145 25.2787 5.02515C24.9947 4.73581 24.6076 4.57105 24.2022 4.56709H2.16739L5.59518 1.66896H27.3812C27.6992 1.66896 28.0042 1.7953 28.2291 2.0202C28.454 2.2451 28.5804 2.55013 28.5804 2.86819V18.0784C28.5804 18.2772 28.6594 18.4678 28.7999 18.6084C28.9405 18.7489 29.1311 18.8279 29.3299 18.8279C29.5287 18.8279 29.7193 18.7489 29.8599 18.6084C30.0005 18.4678 30.0794 18.2772 30.0794 18.0784V2.86819C30.0794 2.15256 29.7951 1.46625 29.2891 0.960225C28.7831 0.454202 28.0968 0.169922 27.3812 0.169922H5.32136C5.14428 0.169815 4.9729 0.232489 4.83767 0.346808L0.385533 4.11838C0.280281 4.22633 0.198009 4.3545 0.143689 4.49514C0.0741085 4.6069 0.0357996 4.73528 0.0327599 4.8669V30.8502C0.033553 31.0484 0.11287 31.2383 0.253346 31.3782C0.393822 31.5181 0.584011 31.5967 0.782277 31.5967Z" fill="#12AC49"/>
<path d="M27.1587 18.3386C27.3575 18.3386 27.5482 18.2596 27.6887 18.1191C27.8293 17.9785 27.9082 17.7879 27.9082 17.5891V4.60643C27.9075 4.01605 27.6728 3.45001 27.2558 3.03217C26.8387 2.61434 26.2731 2.37871 25.6827 2.37687L6.94874 2.33789C6.74995 2.33789 6.55931 2.41686 6.41875 2.55742C6.27819 2.69798 6.19922 2.88862 6.19922 3.08741C6.19922 3.28619 6.27819 3.47684 6.41875 3.6174C6.55931 3.75796 6.74995 3.83693 6.94874 3.83693L25.6837 3.8759C25.8772 3.87643 26.0626 3.9536 26.1993 4.09051C26.336 4.22743 26.4129 4.41294 26.4132 4.60643V17.5891C26.4132 17.7872 26.4916 17.9772 26.6313 18.1177C26.771 18.2581 26.9606 18.3375 27.1587 18.3386ZM37.4821 32.6074C37.2833 32.6074 37.0927 32.6864 36.9521 32.8269C36.8115 32.9675 36.7326 33.1581 36.7326 33.3569V39.5889C36.734 39.7352 36.6997 39.8796 36.6326 40.0096C36.2109 40.8141 34.2122 43.4414 26.2173 43.4414C18.2225 43.4414 16.2238 40.8171 15.797 40.0116C15.7302 39.8819 15.6959 39.7379 15.6971 39.5919V33.6747C15.6971 33.4759 15.6181 33.2853 15.4776 33.1447C15.337 33.0042 15.1464 32.9252 14.9476 32.9252C14.7488 32.9252 14.5582 33.0042 14.4176 33.1447C14.277 33.2853 14.1981 33.4759 14.1981 33.6747V39.5889C14.196 39.9778 14.2879 40.3614 14.4659 40.7072C15.1395 41.9794 17.6229 44.9405 26.2173 44.9405C34.8118 44.9405 37.2942 41.9824 37.9628 40.7112C38.1423 40.3655 38.2349 39.9814 38.2326 39.5919V33.3569C38.2326 33.2584 38.2132 33.1609 38.1754 33.0699C38.1377 32.9789 38.0824 32.8962 38.0127 32.8266C37.943 32.757 37.8603 32.7018 37.7692 32.6642C37.6782 32.6266 37.5806 32.6073 37.4821 32.6074Z" fill="#12AC49"/>
<path d="M47.4883 26.1912L27.6591 19.5675C27.5077 19.5166 27.3437 19.5166 27.1923 19.5675L4.85573 26.7289C4.70658 26.778 4.57659 26.8726 4.48405 26.9995C4.39151 27.1263 4.34108 27.279 4.33987 27.436C4.33865 27.593 4.38671 27.7464 4.47728 27.8747C4.56785 28.003 4.69637 28.0996 4.84474 28.151L25.7313 35.2104C25.8086 35.2366 25.8896 35.2501 25.9711 35.2504C26.057 35.2503 26.1422 35.2354 26.223 35.2064L41.5541 29.732V33.3297C41.0373 33.4857 40.5843 33.8035 40.2617 34.2364C39.9391 34.6693 39.764 35.1943 39.7623 35.7341V37.2451C39.7623 37.9152 40.0284 38.5578 40.5022 39.0315C40.976 39.5053 41.6186 39.7715 42.2886 39.7715C42.9587 39.7715 43.6013 39.5053 44.0751 39.0315C44.5488 38.5578 44.815 37.9152 44.815 37.2451V35.7321C44.8136 35.1972 44.6422 34.6765 44.3255 34.2454C44.0088 33.8142 43.5632 33.4949 43.0531 33.3337V29.1963L47.5013 27.6083C47.6482 27.5559 47.7751 27.459 47.8643 27.331C47.9536 27.2031 48.0006 27.0504 47.999 26.8945C47.9973 26.7385 47.947 26.5869 47.8551 26.4608C47.7632 26.3348 47.6343 26.2405 47.4863 26.1912H47.4883ZM43.312 37.2451C43.312 37.5176 43.2037 37.7789 43.0111 37.9716C42.8184 38.1642 42.5571 38.2725 42.2846 38.2725C42.0122 38.2725 41.7509 38.1642 41.5582 37.9716C41.3655 37.7789 41.2573 37.5176 41.2573 37.2451V35.7321C41.2573 35.5972 41.2839 35.4636 41.3355 35.339C41.3871 35.2143 41.4628 35.1011 41.5582 35.0057C41.6536 34.9103 41.7668 34.8346 41.8915 34.783C42.0161 34.7313 42.1497 34.7048 42.2846 34.7048C42.4195 34.7048 42.5531 34.7313 42.6778 34.783C42.8024 34.8346 42.9157 34.9103 43.0111 35.0057C43.1065 35.1011 43.1821 35.2143 43.2338 35.339C43.2854 35.4636 43.312 35.5972 43.312 35.7321V37.2451ZM42.1967 27.9111L26.2939 26.1952C26.1948 26.1822 26.0941 26.1891 25.9977 26.2155C25.9013 26.2419 25.8112 26.2874 25.7326 26.3492C25.6541 26.411 25.5886 26.4878 25.5402 26.5753C25.4918 26.6627 25.4614 26.759 25.4507 26.8584C25.44 26.9577 25.4494 27.0583 25.4781 27.154C25.5069 27.2497 25.5545 27.3387 25.6182 27.4158C25.6818 27.4928 25.7603 27.5564 25.8489 27.6027C25.9375 27.6489 26.0344 27.677 26.134 27.6853L38.9548 29.0684L25.9631 33.7094L7.48104 27.4614L27.4162 21.0655L44.9559 26.9248L42.1967 27.9111Z" fill="#12AC49"/>
</svg>
