<svg width="89" height="64" viewBox="0 0 89 64" fill="none" xmlns="http://www.w3.org/2000/svg">
<path d="M88.72 6.64006L81.6106 0.225971C81.4542 0.0869123 81.2456 0 81.037 0C80.2722 0 52.2345 0 52.1476 0C48.8102 0 45.9073 1.94682 44.5167 4.76276C43.1261 1.94682 40.2233 0 36.8859 0C36.8685 0 7.97902 0 7.9964 0C7.63137 0 7.4054 0.243353 7.38802 0.260735L0.296024 6.64006C0.122201 6.81388 0.000524571 7.03985 0.000524571 7.2832V62.4895C-0.0168578 62.9936 0.400319 63.4108 0.869642 63.4108H88.129C88.6157 63.4108 88.9981 63.0284 88.9981 62.5417V7.2832C89.0155 7.03985 88.9112 6.7965 88.72 6.64006ZM87.2773 60.3341L81.9061 54.5632V7.2832V2.83332L87.2773 7.66561V60.3341ZM8.37881 55.7799H36.8859C40.3276 55.7799 43.1609 58.3525 43.5954 61.6726H2.86861L8.37881 55.7799ZM31.9319 32.6267C31.9319 25.6911 37.5638 20.0592 44.4993 20.0592C51.4349 20.0592 57.0668 25.6911 57.0668 32.6267C57.0668 39.5622 51.4349 45.1941 44.4993 45.1941C37.5638 45.1941 31.9319 39.5622 31.9319 32.6267ZM80.6546 55.7799L86.1474 61.6726H45.438C45.8725 58.3525 48.7059 55.7799 52.1476 55.7799H80.6546ZM52.1476 1.73823H80.1679V54.0417H52.1476C49.4011 54.0417 46.9329 55.3628 45.3858 57.3965V46.9149C50.0791 46.6368 54.1639 44.0816 56.5627 40.3444H75.4747C75.9614 40.3444 76.3438 39.962 76.3438 39.4753C76.3438 38.9886 75.9614 38.6062 75.4747 38.6062H57.5013C58.3357 36.7984 58.805 34.7647 58.805 32.644V32.6267H75.4573C75.944 32.6267 76.3264 32.2442 76.3264 31.7575C76.3264 31.2708 75.944 30.8884 75.4573 30.8884H58.7007C58.44 28.6983 57.6751 26.6819 56.5279 24.9089H75.4573C75.944 24.9089 76.3264 24.5265 76.3264 24.0398C76.3264 23.5531 75.944 23.1707 75.4573 23.1707H55.2069C52.7733 20.4069 49.2795 18.5991 45.3684 18.3731V8.51735C45.3858 4.78014 48.4104 1.73823 52.1476 1.73823ZM43.6476 8.51735V18.3731C39.7366 18.5991 36.2427 20.4243 33.8092 23.1707H13.5588C13.072 23.1707 12.6896 23.5531 12.6896 24.0398C12.6896 24.5265 13.072 24.9089 13.5588 24.9089H32.4707C31.3235 26.6819 30.5761 28.6983 30.298 30.8884H13.5588C13.072 30.8884 12.6896 31.2708 12.6896 31.7575C12.6896 32.2442 13.072 32.6267 13.5588 32.6267H30.1937V32.644C30.1937 34.7647 30.663 36.781 31.4973 38.6062H13.5588C13.072 38.6062 12.6896 38.9886 12.6896 39.4753C12.6896 39.962 13.072 40.3444 13.5588 40.3444H32.4534C34.8521 44.0816 38.937 46.6368 43.6302 46.9149V57.3965C42.0832 55.3628 39.6149 54.0417 36.8685 54.0417H8.86552V1.73823H36.8859C40.6057 1.73823 43.6476 4.78014 43.6476 8.51735ZM7.12729 2.83332V7.2832V54.5632L1.75614 60.3167V7.66561L7.12729 2.83332Z" fill="white"/>
<path d="M50.0808 9.45698H75.4591C75.9458 9.45698 76.3282 9.07457 76.3282 8.58787C76.3282 8.10116 75.9458 7.71875 75.4591 7.71875H50.0808C49.5941 7.71875 49.2117 8.10116 49.2117 8.58787C49.2117 9.07457 49.5941 9.45698 50.0808 9.45698ZM50.0808 17.1747H75.4591C75.9458 17.1747 76.3282 16.7923 76.3282 16.3056C76.3282 15.8189 75.9458 15.4365 75.4591 15.4365H50.0808C49.5941 15.4365 49.2117 15.8189 49.2117 16.3056C49.2117 16.7923 49.5941 17.1747 50.0808 17.1747ZM75.4591 46.3076H62.7699C62.2832 46.3076 61.9008 46.69 61.9008 47.1767C61.9008 47.6634 62.2832 48.0458 62.7699 48.0458H75.4591C75.9458 48.0458 76.3282 47.6634 76.3282 47.1767C76.3282 46.7073 75.9458 46.3076 75.4591 46.3076ZM21.8171 9.45698H30.6821C31.1688 9.45698 31.5513 9.07457 31.5513 8.58787C31.5513 8.10116 31.1688 7.71875 30.6821 7.71875H21.8171C21.3304 7.71875 20.948 8.10116 20.948 8.58787C20.948 9.07457 21.3304 9.45698 21.8171 9.45698ZM13.5605 17.1747H38.9387C39.4255 17.1747 39.8079 16.7923 39.8079 16.3056C39.8079 15.8189 39.4255 15.4365 38.9387 15.4365H13.5605C13.0738 15.4365 12.6914 15.8189 12.6914 16.3056C12.6914 16.7923 13.0912 17.1747 13.5605 17.1747ZM13.5605 48.0458H26.2496C26.7363 48.0458 27.1188 47.6634 27.1188 47.1767C27.1188 46.69 26.7363 46.3076 26.2496 46.3076H13.5605C13.0738 46.3076 12.6914 46.69 12.6914 47.1767C12.6914 47.6634 13.0912 48.0458 13.5605 48.0458ZM41.0246 40.2411C41.7547 40.6409 42.6412 40.5888 43.3191 40.1368L51.8538 34.5049C52.4796 34.0878 52.862 33.3925 52.862 32.6276C52.862 31.8802 52.4796 31.1675 51.8538 30.7504L43.3191 25.1185C41.8242 24.1451 39.8426 25.2054 39.8426 26.9958V38.2421C39.8426 39.0939 40.2946 39.8413 41.0246 40.2411ZM41.5809 27.0132C41.5809 26.6134 42.0328 26.37 42.3631 26.596L50.8978 32.2279C51.1064 32.3669 51.1238 32.5755 51.1238 32.6624C51.1238 32.7493 51.1064 32.9579 50.8978 33.097L42.3631 38.7289C42.0154 38.9548 41.5809 38.7115 41.5809 38.3117V27.0132Z" fill="white"/>
</svg>
