<svg width="42" height="39" viewBox="0 0 42 39" fill="none" xmlns="http://www.w3.org/2000/svg">
<path d="M23.0819 21.375C21.5814 21.3743 20.1072 21.7684 18.8072 22.5177C18.733 22.5605 18.6681 22.6175 18.616 22.6855C18.5639 22.7534 18.5257 22.8309 18.5036 22.9136C18.4814 22.9963 18.4758 23.0825 18.487 23.1674C18.4982 23.2522 18.526 23.3341 18.5688 23.4082C18.6116 23.4823 18.6686 23.5473 18.7365 23.5994C18.8045 23.6515 18.882 23.6897 18.9647 23.7118C19.0474 23.7339 19.1336 23.7396 19.2185 23.7284C19.3033 23.7172 19.3851 23.6894 19.4593 23.6465C21.0557 22.7235 22.9436 22.4426 24.7396 22.8608C26.5357 23.279 28.1052 24.365 29.1297 25.8983C30.1543 27.4316 30.5569 29.2973 30.2559 31.1167C29.9549 32.936 28.9729 34.5727 27.5092 35.6943C26.0454 36.816 24.2097 37.3387 22.3747 37.1562C20.5397 36.9737 18.8429 36.0997 17.6287 34.7117C16.4146 33.3238 15.7741 31.5258 15.8374 29.6828C15.9006 27.8398 16.6628 26.0899 17.9692 24.7884C18.0315 24.7285 18.0813 24.6567 18.1156 24.5773C18.1499 24.498 18.1681 24.4126 18.169 24.3261C18.17 24.2396 18.1537 24.1539 18.1211 24.0738C18.0886 23.9937 18.0404 23.9208 17.9794 23.8596C17.9184 23.7983 17.8458 23.7497 17.7659 23.7168C17.6859 23.6839 17.6002 23.6672 17.5137 23.6677C17.4273 23.6683 17.3418 23.686 17.2623 23.72C17.1827 23.7539 17.1108 23.8033 17.0505 23.8654C15.6477 25.2613 14.7725 27.1007 14.5743 29.0698C14.376 31.039 14.867 33.0159 15.9635 34.6635C17.0599 36.311 18.694 37.5272 20.587 38.1047C22.4799 38.6821 24.5146 38.585 26.3439 37.8299C28.1733 37.0748 29.6841 35.7085 30.6187 33.964C31.5532 32.2195 31.8537 30.2048 31.4689 28.2635C31.084 26.3222 30.0376 24.5746 28.5082 23.3185C26.9788 22.0625 25.061 21.3759 23.0819 21.3759V21.375Z" fill="#12AC49"/>
<path d="M23.7861 32.4989H22.151C22.0246 32.4991 21.8994 32.4744 21.7825 32.4262C21.6656 32.378 21.5594 32.3072 21.4699 32.218C21.3804 32.1287 21.3093 32.0227 21.2608 31.9059C21.2123 31.7892 21.1873 31.664 21.1872 31.5376C21.1872 31.3649 21.1186 31.1992 20.9964 31.0771C20.8743 30.955 20.7086 30.8864 20.5359 30.8864C20.3632 30.8864 20.1976 30.955 20.0754 31.0771C19.9533 31.1992 19.8847 31.3649 19.8847 31.5376C19.8854 32.1378 20.1241 32.7132 20.5485 33.1375C20.9729 33.5619 21.5482 33.8007 22.1484 33.8013H22.316V35.05C22.316 35.2227 22.3846 35.3884 22.5067 35.5105C22.6289 35.6326 22.7945 35.7012 22.9672 35.7012C23.14 35.7012 23.3056 35.6326 23.4277 35.5105C23.5499 35.3884 23.6185 35.2227 23.6185 35.05V33.8013H23.7843C24.3847 33.8013 24.9605 33.5628 25.385 33.1383C25.8096 32.7138 26.0481 32.138 26.0481 31.5376C26.0481 30.9372 25.8096 30.3614 25.385 29.9369C24.9605 29.5124 24.3847 29.2739 23.7843 29.2739H22.151C21.901 29.2664 21.6637 29.1618 21.4895 28.9822C21.3152 28.8027 21.2178 28.5624 21.2178 28.3122C21.2178 28.0621 21.3152 27.8217 21.4895 27.6422C21.6637 27.4627 21.901 27.3581 22.151 27.3505H23.7861C24.0409 27.3508 24.2853 27.4521 24.4655 27.6323C24.6457 27.8126 24.7471 28.0569 24.7473 28.3118C24.7473 28.4845 24.8159 28.6501 24.9381 28.7723C25.0602 28.8944 25.2258 28.963 25.3986 28.963C25.5713 28.963 25.7369 28.8944 25.8591 28.7723C25.9812 28.6501 26.0498 28.4845 26.0498 28.3118C26.0491 27.7116 25.8104 27.1362 25.386 26.7118C24.9616 26.2875 24.3862 26.0487 23.7861 26.048H23.6185V24.7985C23.6185 24.6258 23.5499 24.4602 23.4277 24.338C23.3056 24.2159 23.14 24.1473 22.9672 24.1473C22.7945 24.1473 22.6289 24.2159 22.5067 24.338C22.3846 24.4602 22.316 24.6258 22.316 24.7985V26.048H22.151C21.5582 26.0597 20.9936 26.3033 20.5784 26.7267C20.1633 27.15 19.9308 27.7193 19.9308 28.3122C19.9308 28.9051 20.1633 29.4744 20.5784 29.8978C20.9936 30.3211 21.5582 30.5648 22.151 30.5764H23.7861C24.041 30.5764 24.2855 30.6776 24.4658 30.8579C24.646 31.0382 24.7473 31.2827 24.7473 31.5376C24.7473 31.7925 24.646 32.037 24.4658 32.2173C24.2855 32.3976 24.041 32.4989 23.7861 32.4989ZM38.5685 11.9794C38.404 11.9391 38.2302 11.9644 38.0841 12.0501C37.938 12.1357 37.8309 12.2749 37.7858 12.4382C37.7406 12.6014 37.7608 12.7759 37.842 12.9245C37.9233 13.0731 38.0593 13.1841 38.2211 13.2342C39.983 13.7239 40.3798 14.2761 40.3798 14.4255C40.3798 14.9691 37.8313 16.2438 32.8905 16.2438C27.9497 16.2438 25.4003 14.9691 25.4003 14.4255C25.4003 13.8819 27.948 12.6072 32.8905 12.6072C34.0594 12.603 35.227 12.6851 36.3838 12.853C36.5522 12.873 36.7218 12.8266 36.8567 12.7236C36.9915 12.6207 37.0808 12.4692 37.1058 12.3014C37.1308 12.1336 37.0894 11.9627 36.9904 11.8249C36.8914 11.6871 36.7427 11.5934 36.5757 11.5635C35.3553 11.3869 34.1236 11.2998 32.8905 11.303C28.6557 11.303 24.0978 12.2799 24.0978 14.4238V19.4904C24.0978 21.6343 28.6557 22.6112 32.8905 22.6112C35.7369 22.6112 38.7239 22.1675 40.3798 21.2262V22.0234C40.3798 22.5669 37.8313 23.8416 32.8905 23.8416C32.3235 23.8416 31.7712 23.8243 31.2407 23.7895C31.0683 23.7795 30.8989 23.8376 30.7689 23.9513C30.639 24.065 30.5589 24.2252 30.546 24.3974C30.54 24.4829 30.551 24.5689 30.5783 24.6502C30.6057 24.7315 30.6488 24.8066 30.7053 24.8712C30.7618 24.9358 30.8305 24.9885 30.9075 25.0264C30.9845 25.0643 31.0682 25.0866 31.1538 25.092C31.7139 25.1285 32.2948 25.1476 32.8905 25.1476C35.7369 25.1476 38.7239 24.7039 40.3798 23.7583V24.5554C40.3798 25.099 37.8313 26.3789 32.8905 26.3789H32.676C32.6395 26.3789 32.6187 26.3789 32.5023 26.3789C32.3315 26.38 32.1675 26.4458 32.0432 26.5629C31.9188 26.6799 31.8434 26.8397 31.832 27.0102C31.8271 27.1829 31.8909 27.3506 32.0094 27.4764C32.1278 27.6022 32.2914 27.6759 32.4641 27.6814C32.551 27.6814 32.6057 27.6814 32.6421 27.6814H32.729H32.8974C35.7438 27.6814 38.7309 27.2368 40.3868 26.292V27.0892C40.3868 27.6327 37.8382 28.9075 32.8974 28.9075C32.7247 28.9075 32.5591 28.9761 32.4369 29.0982C32.3148 29.2203 32.2462 29.386 32.2462 29.5587C32.2462 29.7314 32.3148 29.8971 32.4369 30.0192C32.5591 30.1413 32.7247 30.2099 32.8974 30.2099C35.7438 30.2099 38.7309 29.7654 40.3868 28.825V29.6855C40.3868 30.229 37.8382 31.5037 32.8974 31.5037H32.6639C32.494 31.5111 32.3329 31.5809 32.2114 31.6999C32.0899 31.8188 32.0166 31.9784 32.0057 32.148C32.004 32.3207 32.071 32.487 32.1917 32.6103C32.3125 32.7337 32.4773 32.8042 32.65 32.8062H32.8974C37.1218 32.8088 41.6797 31.832 41.6797 29.6881V14.4255C41.6797 13.7048 41.1396 12.6958 38.5685 11.9794ZM32.8879 17.5463C35.7343 17.5463 38.7213 17.1025 40.3772 16.1613V16.9584C40.3772 17.502 37.8287 18.7819 32.8879 18.7819C27.9471 18.7819 25.3977 17.5063 25.3977 16.9584V16.1613C27.0536 17.1025 30.0441 17.5463 32.8879 17.5463ZM32.8879 21.3105C27.9454 21.3105 25.3977 20.0358 25.3977 19.4922V18.6951C27.0536 19.6363 30.0398 20.0844 32.8879 20.0844C35.736 20.0844 38.7213 19.6407 40.3772 18.6951V19.4922C40.3772 20.0358 37.8287 21.3105 32.8879 21.3105ZM13.7196 33.3776C13.4903 33.3863 13.2594 33.3915 13.0249 33.3915C6.1217 33.3915 1.30249 29.431 1.30249 23.7609C1.30249 19.137 4.42847 12.299 9.09051 9.48993C9.1539 9.45085 9.20687 9.40309 9.26418 9.35968H14.5879C14.7606 9.35968 14.9263 9.29106 15.0484 9.16893C15.1705 9.0468 15.2391 8.88115 15.2391 8.70843C15.2391 8.53571 15.1705 8.37006 15.0484 8.24793C14.9263 8.1258 14.7606 8.05719 14.5879 8.05719H10.0856C10.1745 7.56768 10.0732 7.06271 9.80254 6.64529C7.60133 3.23537 7.17325 1.70103 7.25313 1.30334C7.26152 1.30825 7.27125 1.31038 7.28092 1.30942C8.25887 1.31623 9.23072 1.46422 10.1664 1.74879C11.0716 2.02394 12.0111 2.17009 12.9572 2.18296C14.0267 2.15672 15.089 1.99984 16.1205 1.7158C16.9379 1.49071 17.7772 1.35446 18.6239 1.30942C18.6004 1.80002 18.1142 3.24926 16.4322 6.11995H11.4619C11.2892 6.11995 11.1235 6.18856 11.0014 6.3107C10.8793 6.43283 10.8107 6.59847 10.8107 6.7712C10.8107 6.94392 10.8793 7.10956 11.0014 7.23169C11.1235 7.35383 11.2892 7.42244 11.4619 7.42244H15.8574C15.8253 7.66516 15.8394 7.91177 15.8991 8.14923C15.9688 8.41899 16.0918 8.67209 16.2608 8.89367C16.4297 9.11526 16.6412 9.30085 16.8829 9.43956C19.2272 10.9664 21.1282 13.0834 22.395 15.5778C22.4346 15.6551 22.4893 15.7237 22.5559 15.7796C22.6224 15.8355 22.6995 15.8775 22.7825 15.9031C22.8656 15.9288 22.9529 15.9375 23.0394 15.9289C23.1258 15.9202 23.2097 15.8944 23.286 15.8528C23.3624 15.8113 23.4296 15.7549 23.4838 15.6869C23.538 15.619 23.578 15.5409 23.6015 15.4572C23.6251 15.3736 23.6316 15.2861 23.6208 15.1998C23.61 15.1136 23.5821 15.0304 23.5386 14.9552C22.1599 12.2545 20.0932 9.96533 17.5471 8.31855C17.4538 8.26666 17.3717 8.19671 17.3057 8.11278C17.2396 8.02885 17.191 7.93262 17.1625 7.82969C17.1403 7.74325 17.1358 7.6532 17.1494 7.565C17.163 7.47679 17.1943 7.39226 17.2415 7.3165C20.5099 1.87904 19.9819 0.945591 19.7596 0.543555C19.6606 0.372276 19.5168 0.231236 19.3436 0.135611C19.1704 0.0399859 18.9744 -0.00660493 18.7767 0.000851213C17.7783 0.0295664 16.7871 0.178546 15.8244 0.444566C14.8904 0.705175 13.9282 0.850972 12.9589 0.878729C12.1254 0.863919 11.2981 0.731495 10.5015 0.485378C9.45674 0.173375 8.37302 0.0108326 7.28266 0.00258784C7.04973 -0.0124991 6.81728 0.0386057 6.61216 0.150001C6.40704 0.261396 6.23761 0.428537 6.12344 0.632125C5.90462 1.03416 5.32284 2.1022 8.71019 7.34863C8.76113 7.42421 8.79584 7.50953 8.81214 7.59921C8.82843 7.68888 8.82594 7.78096 8.80483 7.86963C8.7779 7.97537 8.72986 8.07457 8.66361 8.16127C8.59735 8.24796 8.51425 8.32037 8.4193 8.37413C3.38647 11.4107 0 18.7819 0 23.7609C0 30.0953 5.47914 34.6975 13.0249 34.6975C13.275 34.6975 13.5233 34.6922 13.7699 34.6818C13.8555 34.6785 13.9395 34.6583 14.0172 34.6224C14.0949 34.5866 14.1648 34.5358 14.2229 34.473C14.281 34.4101 14.3262 34.3364 14.3558 34.2561C14.3854 34.1758 14.3989 34.0905 14.3956 34.005C14.3922 33.9194 14.372 33.8354 14.3362 33.7577C14.3003 33.68 14.2496 33.6101 14.1867 33.552C14.1238 33.4939 14.0502 33.4487 13.9699 33.4191C13.8896 33.3895 13.8042 33.376 13.7187 33.3793L13.7196 33.3776Z" fill="#12AC49"/>
</svg>
