<svg width="89" height="70" viewBox="0 0 89 70" fill="none" xmlns="http://www.w3.org/2000/svg">
<path d="M87.8412 12.7759L44.9449 0.0658896C44.6494 -0.0219632 44.3347 -0.0219632 44.0393 0.0658896L1.14287 12.7759C0.821333 12.8699 0.537742 13.0632 0.332626 13.3281C0.127509 13.5929 0.0113657 13.9159 0.000791928 14.2507C-0.0097818 14.5855 0.0857562 14.9151 0.273752 15.1924C0.461748 15.4697 0.73258 15.6804 1.04755 15.7946L22.2574 23.7066V41.3735C20.9933 41.3735 19.781 41.8757 18.8872 42.7695C17.9933 43.6634 17.4912 44.8757 17.4912 46.1398C17.4912 47.4039 17.9933 48.6162 18.8872 49.51C19.781 50.4039 20.9933 50.9061 22.2574 50.9061H22.5116C23.3133 56.1633 25.9721 60.9593 30.006 64.4247C34.04 67.8901 39.182 69.7955 44.5 69.7955C49.818 69.7955 54.96 67.8901 58.994 64.4247C63.0279 60.9593 65.6867 56.1633 66.4884 50.9061H66.7426C68.0067 50.9061 69.219 50.4039 70.1128 49.51C71.0067 48.6162 71.5088 47.4039 71.5088 46.1398C71.5088 44.8757 71.0067 43.6634 70.1128 42.7695C69.219 41.8757 68.0067 41.3735 66.7426 41.3735V23.7066L73.0976 21.3552V25.7719C72.3498 26.0408 71.6811 26.4923 71.1523 27.0854C70.6235 27.6786 70.2513 28.3946 70.0698 29.1682C69.8882 29.9418 69.9029 30.7486 70.1127 31.5151C70.3224 32.2815 70.7204 32.9834 71.2705 33.5569L70.0948 35.8923C70.001 36.079 69.9448 36.2824 69.9295 36.4909C69.9142 36.6993 69.9401 36.9088 70.0058 37.1072C70.0714 37.3056 70.1755 37.4892 70.3121 37.6474C70.4487 37.8056 70.6151 37.9353 70.8018 38.0292C70.9886 38.1231 71.192 38.1793 71.4004 38.1946C71.6089 38.2098 71.8183 38.1839 72.0167 38.1183C72.2151 38.0526 72.3987 37.9485 72.5569 37.8119C72.7151 37.6753 72.8448 37.5089 72.9387 37.3222L74.1144 35.0185C74.4918 35.0955 74.8809 35.0955 75.2583 35.0185L76.4499 37.3858C76.6395 37.7629 76.9711 38.0492 77.3719 38.1818C77.7726 38.3144 78.2096 38.2824 78.5867 38.0927C78.9639 37.9031 79.2502 37.5715 79.3828 37.1707C79.5154 36.77 79.4834 36.333 79.2937 35.9559L78.1181 33.6204C78.6826 33.0466 79.0926 32.3392 79.3099 31.5642C79.5272 30.7891 79.5446 29.9716 79.3606 29.188C79.1766 28.4044 78.7972 27.6801 78.2576 27.0828C77.7181 26.4854 77.036 26.0345 76.2751 25.7719V20.1795L87.9525 15.8581C88.2674 15.744 88.5383 15.5332 88.7262 15.256C88.9142 14.9787 89.0098 14.6491 88.9992 14.3142C88.9886 13.9794 88.8725 13.6565 88.6674 13.3916C88.4623 13.1267 88.1787 12.9335 87.8571 12.8395L87.8412 12.7759ZM22.2574 47.7285C21.8361 47.7285 21.432 47.5612 21.134 47.2632C20.8361 46.9653 20.6687 46.5612 20.6687 46.1398C20.6687 45.7184 20.8361 45.3143 21.134 45.0164C21.432 44.7184 21.8361 44.551 22.2574 44.551V47.7285ZM63.5651 47.7285C63.5651 52.7849 61.5564 57.6342 57.981 61.2096C54.4056 64.785 49.5564 66.7936 44.5 66.7936C39.4436 66.7936 34.5944 64.785 31.019 61.2096C27.4436 57.6342 25.4349 52.7849 25.4349 47.7285V46.0127C31.1299 49.6462 37.7446 51.5767 44.5 51.5767C51.2554 51.5767 57.8701 49.6462 63.5651 46.0127V47.7285ZM63.5651 42.1679C58.0328 46.2164 51.3554 48.3986 44.5 48.3986C37.6446 48.3986 30.9672 46.2164 25.4349 42.1679V41.2464C31.1299 44.88 37.7446 46.8104 44.5 46.8104C51.2554 46.8104 57.8701 44.88 63.5651 41.2464V42.1679ZM63.5651 37.4016C58.0328 41.4501 51.3554 43.6323 44.5 43.6323C37.6446 43.6323 30.9672 41.4501 25.4349 37.4016V24.8822L43.9439 31.7457C44.3025 31.8797 44.6975 31.8797 45.0561 31.7457L63.5651 24.8822V37.4016ZM68.3313 46.1398C68.3313 46.5612 68.1639 46.9653 67.866 47.2632C67.568 47.5612 67.1639 47.7285 66.7426 47.7285V44.551C67.1639 44.551 67.568 44.7184 67.866 45.0164C68.1639 45.3143 68.3313 45.7184 68.3313 46.1398ZM74.6863 31.841C74.3721 31.841 74.065 31.7478 73.8037 31.5732C73.5424 31.3987 73.3388 31.1505 73.2185 30.8602C73.0983 30.5699 73.0668 30.2505 73.1281 29.9423C73.1894 29.6341 73.3407 29.351 73.5629 29.1288C73.7851 28.9066 74.0682 28.7553 74.3764 28.694C74.6846 28.6327 75.004 28.6642 75.2943 28.7844C75.5846 28.9047 75.8328 29.1083 76.0074 29.3696C76.1819 29.6308 76.2751 29.938 76.2751 30.2522C76.2751 30.6736 76.1077 31.0777 75.8098 31.3757C75.5118 31.6736 75.1077 31.841 74.6863 31.841ZM74.4163 17.5422L44.7542 12.7759C44.3328 12.7106 43.9028 12.8154 43.5587 13.0671C43.2145 13.3189 42.9845 13.6971 42.9192 14.1184C42.8539 14.5398 42.9586 14.9698 43.2104 15.314C43.4622 15.6581 43.8403 15.8881 44.2617 15.9534L68.3313 19.7347L44.5 28.5523L6.62408 14.5394L44.5 3.2434L82.3759 14.46L74.4163 17.5422Z" fill="white"/>
<path d="M41.322 57.2615V55.6727C41.322 55.2514 41.1547 54.8473 40.8567 54.5493C40.5588 54.2514 40.1547 54.084 39.7333 54.084C39.3119 54.084 38.9078 54.2514 38.6099 54.5493C38.3119 54.8473 38.1445 55.2514 38.1445 55.6727V57.2615C38.1445 58.947 38.8141 60.5634 40.0059 61.7552C41.1977 62.947 42.8141 63.6165 44.4996 63.6165C46.185 63.6165 47.8014 62.947 48.9932 61.7552C50.185 60.5634 50.8546 58.947 50.8546 57.2615V55.6727C50.8546 55.2514 50.6872 54.8473 50.3892 54.5493C50.0913 54.2514 49.6872 54.084 49.2658 54.084C48.8445 54.084 48.4403 54.2514 48.1424 54.5493C47.8444 54.8473 47.6771 55.2514 47.6771 55.6727V57.2615C47.6771 58.1042 47.3423 58.9124 46.7464 59.5083C46.1505 60.1042 45.3423 60.439 44.4996 60.439C43.6568 60.439 42.8486 60.1042 42.2527 59.5083C41.6568 58.9124 41.322 58.1042 41.322 57.2615Z" fill="white"/>
</svg>
