<svg width="41" height="41" viewBox="0 0 41 41" fill="none" xmlns="http://www.w3.org/2000/svg">
<path d="M5.73294 0.228845C5.70469 0.230033 5.67654 0.232896 5.64863 0.23742H0.792658C0.603152 0.23742 0.421408 0.312701 0.287407 0.446702C0.153406 0.580702 0.078125 0.762447 0.078125 0.951952C0.078125 1.14146 0.153406 1.3232 0.287407 1.4572C0.421408 1.5912 0.603152 1.66649 0.792658 1.66649H5.20419L6.08163 5.30918C6.08429 5.31876 6.08715 5.32829 6.09021 5.33776L10.2702 22.7409L12.1209 30.4436C10.0273 31.0409 8.47675 32.9559 8.47675 35.2367C8.47675 37.9905 10.7232 40.2384 13.477 40.2384C16.2294 40.2384 18.4788 37.9905 18.4788 35.2367C18.4788 33.8462 17.9029 32.5886 16.9825 31.6812H26.9431C26.4702 32.1447 26.0943 32.6979 25.8377 33.3084C25.581 33.9189 25.4487 34.5744 25.4483 35.2367C25.4483 37.9905 27.6963 40.2384 30.4501 40.2384C31.7754 40.2354 33.0456 39.7074 33.9825 38.7699C34.9194 37.8325 35.4467 36.562 35.4489 35.2367C35.4489 32.6958 33.5297 30.6065 31.0717 30.2964C31.0464 30.2873 31.0207 30.2797 30.9945 30.2735C30.9487 30.2618 30.9018 30.2546 30.8545 30.2521C30.8379 30.2506 30.8212 30.2496 30.8045 30.2492H30.5901C30.5415 30.2478 30.4972 30.2349 30.4501 30.2349C30.4015 30.2349 30.3572 30.2478 30.31 30.2492H13.6185C13.5928 30.2492 13.5671 30.2407 13.5414 30.2407L11.8193 23.0696H33.7941C33.9445 23.0692 34.091 23.0213 34.2126 22.9328C34.3342 22.8443 34.4248 22.7196 34.4715 22.5766L40.0434 5.41635C40.0781 5.30922 40.0869 5.1954 40.0693 5.08418C40.0516 4.97296 40.0079 4.86749 39.9417 4.77638C39.8756 4.68526 39.7888 4.61108 39.6885 4.55988C39.5882 4.50867 39.4772 4.4819 39.3646 4.48175H8.2138L7.34636 4.44745L6.46462 0.783323C6.4592 0.759175 6.45252 0.735325 6.44461 0.711869C6.39478 0.564732 6.29835 0.437845 6.16993 0.350428C6.04151 0.263011 5.8881 0.219827 5.73294 0.227416V0.228845ZM7.69076 5.89223L8.1695 5.91224C8.1795 5.91245 8.18951 5.91245 8.19951 5.91224H38.3814L36.0592 13.0676H20.9339C20.9096 13.0663 20.8853 13.0663 20.861 13.0676C20.7672 13.0723 20.6752 13.0954 20.5903 13.1356C20.5054 13.1759 20.4293 13.2325 20.3662 13.3021C20.3032 13.3718 20.2545 13.4532 20.2229 13.5417C20.1914 13.6302 20.1775 13.724 20.1822 13.8178C20.1869 13.9117 20.21 14.0037 20.2503 14.0886C20.2905 14.1734 20.3471 14.2496 20.4168 14.3126C20.4864 14.3757 20.5678 14.4243 20.6563 14.4559C20.7448 14.4875 20.8387 14.5013 20.9325 14.4966H35.5947L33.2753 21.6448H11.6221C11.5742 21.6438 11.5263 21.6477 11.4792 21.6563L7.69076 5.89223ZM13.3056 31.6826H13.6514C14.5674 31.722 15.4326 32.1141 16.0662 32.7767C16.6998 33.4394 17.0527 34.3213 17.0511 35.2381C17.0511 37.2202 15.4592 38.8108 13.4785 38.8108C13.009 38.8123 12.5439 38.7209 12.1099 38.5418C11.6759 38.3628 11.2817 38.0996 10.9499 37.7676C10.618 37.4355 10.3552 37.041 10.1765 36.6069C9.99781 36.1728 9.90678 35.7076 9.90867 35.2381C9.9067 34.3217 10.2591 33.4399 10.8922 32.7773C11.5252 32.1147 12.39 31.7224 13.3056 31.6826ZM30.2786 31.6826H30.6244C31.54 31.7224 32.4047 32.1147 33.0378 32.7773C33.6709 33.4399 34.0233 34.3217 34.0213 35.2381C34.0232 35.7076 33.9322 36.1728 33.7535 36.6069C33.5748 37.041 33.3119 37.4355 32.9801 37.7676C32.6483 38.0996 32.254 38.3628 31.8201 38.5418C31.3861 38.7209 30.921 38.8123 30.4515 38.8108C29.982 38.8121 29.5168 38.7206 29.0827 38.5415C28.6487 38.3624 28.2543 38.0993 27.9223 37.7673C27.5903 37.4353 27.3272 37.0409 27.1481 36.6069C26.969 36.1728 26.8775 35.7076 26.8788 35.2381C26.8772 34.3213 27.2302 33.4394 27.8638 32.7767C28.4974 32.1141 29.3626 31.722 30.2786 31.6826Z" fill="#12AC49"/>
</svg>
