<svg width="48" height="48" viewBox="0 0 48 48" fill="none" xmlns="http://www.w3.org/2000/svg">
<path d="M47.2258 12.3871C46.7613 12.3871 46.4516 12.6968 46.4516 13.1613V19.3548C46.4516 19.8194 46.1419 20.129 45.6774 20.129C45.2129 20.129 44.9032 19.8194 44.9032 19.3548V10.0645C44.9032 9.6 45.2129 9.29032 45.6774 9.29032C46.1419 9.29032 46.4516 9.6 46.4516 10.0645C46.4516 10.529 46.7613 10.8387 47.2258 10.8387C47.6903 10.8387 48 10.529 48 10.0645C48 8.74839 46.9935 7.74194 45.6774 7.74194C44.3613 7.74194 43.3548 8.74839 43.3548 10.0645V13.9355H35.6129V11.4581C35.6129 10.3742 35.3032 9.29032 34.6839 8.43871L30.1161 1.54839C30.1161 1.54839 30.9677 1.54839 30.9677 0.774194C30.9677 0.309677 30.6581 0 30.1935 0H17.8065C17.3419 0 17.0323 0.309677 17.0323 0.774194C17.0323 1.54839 17.8839 1.54839 17.8839 1.54839L15.1742 5.57419C14.9419 5.96129 15.0194 6.42581 15.4065 6.65806C15.871 6.96774 16.3355 6.65806 16.4903 6.42581L19.7419 1.54839H28.1806L33.3677 9.29032C33.6774 9.75484 33.9097 10.2968 33.9871 10.8387H14.0129C14.0903 10.2968 14.3226 9.75484 14.6323 9.29032C14.8645 8.90323 14.7871 8.43871 14.4 8.20645C14.0129 7.97419 13.5484 8.05161 13.3161 8.43871C12.6968 9.36774 12.3871 10.3742 12.3871 11.4581V13.9355H9.29032V11.6129C9.29032 11.1484 8.98065 10.8387 8.51613 10.8387C3.79355 10.8387 0 14.6323 0 19.3548V22.3742C0 22.8387 0.309677 23.1484 0.774194 23.1484C1.23871 23.1484 1.54839 22.8387 1.54839 22.3742V19.3548C1.54839 15.7935 4.25806 12.8516 7.74194 12.4645V27.871H1.54839V25.5484C1.54839 25.0839 1.23871 24.7742 0.774194 24.7742C0.309677 24.7742 0 25.0839 0 25.5484V28.6452C0 29.1097 0.309677 29.4194 0.774194 29.4194H7.74194V40.3355C5.96129 40.7226 4.64516 42.271 4.64516 44.129C4.64516 44.9806 4.95484 45.8323 5.41935 46.4516H0.774194C0.309677 46.4516 0 46.7613 0 47.2258C0 47.6903 0.309677 48 0.774194 48H30.1935C30.6581 48 30.9677 47.6903 30.9677 47.2258C30.9677 46.7613 30.6581 46.4516 30.1935 46.4516H11.6129C12.0774 45.8323 12.3871 44.9806 12.3871 44.129C12.3871 42.271 11.071 40.7226 9.29032 40.3355V35.6129H11.6129C12.0774 35.6129 12.3871 35.3032 12.3871 34.8387C12.3871 34.3742 12.0774 34.0645 11.6129 34.0645H9.29032V32.5161H38.7097V34.0645H19.0452C18.5806 34.0645 18.271 34.3742 18.271 34.8387C18.271 35.3032 18.5806 35.6129 19.0452 35.6129H38.7097V40.3355C36.929 40.7226 35.6129 42.271 35.6129 44.129C35.6129 44.9806 35.9226 45.8323 36.3871 46.4516H33.1355C32.671 46.4516 32.3613 46.7613 32.3613 47.2258C32.3613 47.6903 32.671 48 33.1355 48H42.5806C43.0452 48 43.3548 47.6903 43.3548 47.2258C43.3548 46.7613 43.0452 46.4516 42.5806 46.4516C43.0452 45.8323 43.3548 44.9806 43.3548 44.129C43.3548 42.271 42.0387 40.7226 40.2581 40.3355V15.4839H43.3548V19.3548C43.3548 20.671 44.3613 21.6774 45.6774 21.6774C46.9935 21.6774 48 20.671 48 19.3548V13.1613C48 12.6968 47.6903 12.3871 47.2258 12.3871ZM10.8387 44.129C10.8387 45.4452 9.83226 46.4516 8.51613 46.4516C7.2 46.4516 6.19355 45.4452 6.19355 44.129C6.19355 42.8129 7.2 41.8064 8.51613 41.8064C9.83226 41.8064 10.8387 42.8129 10.8387 44.129ZM13.9355 18.5806H28.4903C28.9548 18.5806 29.2645 18.271 29.2645 17.8065C29.2645 17.3419 28.9548 17.0323 28.4903 17.0323H13.9355V12.3871H34.0645V17.0323H31.4323C30.9677 17.0323 30.6581 17.3419 30.6581 17.8065C30.6581 18.271 30.9677 18.5806 31.4323 18.5806H34.0645V23.6903C34.0645 26.0129 32.2064 27.871 29.8839 27.871H18.1161C15.7935 27.871 13.9355 26.0129 13.9355 23.6903V18.5806ZM9.29032 30.9677V15.4839H12.3871V23.6903C12.3871 26.8645 14.9419 29.4194 18.1161 29.4194H29.8839C33.0581 29.4194 35.6129 26.8645 35.6129 23.6903V15.4839H38.7097V30.9677H9.29032ZM41.8064 44.129C41.8064 45.4452 40.8 46.4516 39.4839 46.4516C38.1677 46.4516 37.1613 45.4452 37.1613 44.129C37.1613 42.8129 38.1677 41.8064 39.4839 41.8064C40.8 41.8064 41.8064 42.8129 41.8064 44.129Z" fill="#12AC49"/>
</svg>
