<svg width="48" height="47" viewBox="0 0 48 47" fill="none" xmlns="http://www.w3.org/2000/svg">
<path d="M6.55 22.2046V24.8046C6.55 24.9046 6.5 24.9546 6.4 24.9546H4.45C4.2 23.9546 3.3 23.2046 2.25 23.2046C1 23.2046 0 24.2046 0 25.4546C0 26.7046 1 27.7046 2.25 27.7046C3.3 27.7046 4.2 26.9546 4.45 25.9546H6.4C7.05 25.9546 7.55 25.4546 7.55 24.8046V22.2046C7.55 22.1046 7.6 22.0546 7.7 22.0546H9.3C9.85 23.5046 10.6 24.9046 11.6 26.1546C13 28.0046 14.2 30.2046 15.15 32.6546L15.8 34.4546C16.2 35.5046 17.05 36.3546 18.1 36.7046V38.0046H16.5C16.2 38.0046 16 38.2046 16 38.5046C16 38.8046 16.2 39.0046 16.5 39.0046H18.1V40.3046H16.5C16.2 40.3046 16 40.5046 16 40.8046C16 41.1046 16.2 41.3046 16.5 41.3046H18.1V41.8046C18.1 42.8046 18.9 43.6546 19.95 43.6546H20.8C21.05 45.1546 22.35 46.3046 24 46.3046C24.85 46.3046 25.65 45.9546 26.25 45.3546C26.75 44.9046 27.05 44.3046 27.15 43.6546H28C29 43.6546 29.85 42.8546 29.85 41.8046V41.3046H31.45C31.75 41.3046 31.95 41.1046 31.95 40.8046C31.95 40.5046 31.75 40.3046 31.45 40.3046H29.85V39.0046H31.45C31.75 39.0046 31.95 38.8046 31.95 38.5046C31.95 38.2046 31.75 38.0046 31.45 38.0046H29.85V36.7546C30.95 36.4046 31.85 35.5546 32.25 34.4546L32.9 32.7546C33.2 31.9546 33.5 31.1546 33.85 30.4046C34.6 28.8546 35.45 27.4546 36.4 26.2046C37.4 24.9546 38.15 23.5546 38.7 22.0546H40.3C40.4 22.0546 40.45 22.1046 40.45 22.2046V24.8046C40.45 25.4546 40.95 25.9546 41.6 25.9546H43.55C43.8 26.9546 44.7 27.7046 45.75 27.7046C47 27.7046 48 26.7046 48 25.4546C48 24.2046 47 23.2046 45.75 23.2046C44.7 23.2046 43.8 23.9546 43.55 24.9546H41.6C41.5 24.9546 41.45 24.9046 41.45 24.8046V22.2046C41.45 21.5546 40.95 21.0546 40.3 21.0546H39C39.4 19.6046 39.65 18.1546 39.65 16.6046V16.1046H43.55C43.8 17.1046 44.7 17.8546 45.75 17.8546C47 17.8546 48 16.8546 48 15.6046C48 14.3546 47 13.3546 45.75 13.3546C44.65 13.3546 43.8 14.1046 43.55 15.1046H39.6C39.45 13.4046 39 11.7046 38.3 10.1546H40.3C40.95 10.1546 41.45 9.65461 41.45 9.00461V6.40461C41.45 6.30461 41.5 6.25461 41.6 6.25461H43.55C43.8 7.25461 44.7 8.00461 45.75 8.00461C47 8.00461 48 7.00461 48 5.75461C48 4.50461 47 3.50461 45.75 3.50461C44.7 3.50461 43.8 4.25461 43.55 5.25461H41.6C40.95 5.25461 40.45 5.75461 40.45 6.40461V9.00461C40.45 9.10461 40.4 9.15461 40.3 9.15461H37.8C37 7.70461 36 6.35461 34.75 5.20461C31.55 2.20461 27.4 0.704612 23.05 0.954612C17.5 1.30461 12.75 4.50461 10.25 9.15461H7.75C7.65 9.15461 7.6 9.10461 7.6 9.00461V6.40461C7.6 5.75461 7.1 5.25461 6.45 5.25461H4.5C4.25 4.25461 3.35 3.50461 2.3 3.50461C1 3.50461 0 4.50461 0 5.75461C0 7.00461 1 8.00461 2.25 8.00461C3.3 8.00461 4.2 7.25461 4.45 6.25461H6.4C6.5 6.25461 6.55 6.30461 6.55 6.40461V9.00461C6.55 9.65461 7.05 10.1546 7.7 10.1546H9.7C9 11.7046 8.55 13.3546 8.4 15.1046H4.45C4.2 14.1046 3.3 13.3546 2.25 13.3546C1 13.3546 0 14.3546 0 15.6046C0 16.8546 1 17.8546 2.25 17.8546C3.3 17.8546 4.2 17.1046 4.45 16.1046H8.35C8.3 17.8046 8.5 19.4546 9 21.0546H7.75C7.1 21.0546 6.55 21.5546 6.55 22.2046ZM2.25 26.7046C1.55 26.7046 1 26.1546 1 25.4546C1 24.7546 1.55 24.2046 2.25 24.2046C2.95 24.2046 3.5 24.7546 3.5 25.4546C3.5 26.1546 2.95 26.7046 2.25 26.7046ZM45.75 24.2046C46.45 24.2046 47 24.7546 47 25.4546C47 26.1546 46.45 26.7046 45.75 26.7046C45.05 26.7046 44.5 26.1546 44.5 25.4546C44.5 24.7546 45.05 24.2046 45.75 24.2046ZM45.75 14.3546C46.45 14.3546 47 14.9046 47 15.6046C47 16.3046 46.45 16.8546 45.75 16.8546C45.05 16.8546 44.5 16.3046 44.5 15.6046C44.5 14.9046 45.05 14.3546 45.75 14.3546ZM45.75 4.50461C46.45 4.50461 47 5.05461 47 5.75461C47 6.45461 46.45 7.00461 45.75 7.00461C45.05 7.00461 44.5 6.45461 44.5 5.75461C44.5 5.05461 45.05 4.50461 45.75 4.50461ZM2.25 7.00461C1.55 7.00461 1 6.45461 1 5.75461C1 5.05461 1.55 4.50461 2.25 4.50461C2.95 4.50461 3.5 5.05461 3.5 5.75461C3.5 6.45461 2.95 7.00461 2.25 7.00461ZM21 26.0046H19.2C18.2 26.0046 17.4 25.2046 17.4 24.2046C17.4 23.2046 18.2 22.4046 19.2 22.4046C20.2 22.4046 21 23.2046 21 24.2046V26.0046ZM22 27.0046H26V35.9546H22V27.0046ZM25.5 44.6046C25.1 45.0046 24.55 45.2546 23.9 45.2546C22.85 45.2546 22 44.5546 21.75 43.6046H26.1C26 44.0046 25.8 44.3546 25.5 44.6046ZM28.8 41.8046C28.8 42.2546 28.45 42.6546 27.95 42.6546H19.9C19.45 42.6546 19.05 42.3046 19.05 41.8046V41.3046H28.8V41.8046ZM28.8 40.3046H19.05V39.0046H28.8V40.3046ZM19.05 38.0046V36.9546H28.8V38.0046H19.05ZM23.1 1.95461C23.4 1.95461 23.7 1.90461 24 1.90461C27.75 1.90461 31.3 3.30461 34.05 5.90461C35.3 7.05461 36.25 8.40461 37 9.80461C37 9.80461 37 9.85461 37.05 9.85461C37.95 11.6546 38.5 13.6046 38.65 15.6046C38.65 15.9046 38.7 16.2546 38.7 16.6046C38.7 18.2546 38.45 19.8546 37.9 21.3546V21.4046C37.4 22.9046 36.6 24.3046 35.65 25.6046C34.65 26.9046 33.75 28.4046 33 30.0046C32.65 30.7546 32.3 31.6046 32 32.4046L31.3 34.1046C30.95 35.0046 30.15 35.7046 29.25 35.9046C29.15 35.9046 29.05 35.9546 28.9 35.9546H27V27.0046H28.8C30.35 27.0046 31.6 25.7546 31.6 24.2046C31.6 22.6546 30.35 21.4046 28.8 21.4046C27.25 21.4046 26 22.6546 26 24.2046V26.0046H22V24.2046C22 22.6546 20.75 21.4046 19.2 21.4046C17.65 21.4046 16.4 22.6546 16.4 24.2046C16.4 25.7546 17.65 27.0046 19.2 27.0046H21V35.9546H19.35C19.1 35.9546 18.9 35.9046 18.65 35.8546C17.75 35.6046 17 34.9546 16.7 34.1046L16.05 32.3546C15.1 29.7546 13.85 27.5046 12.35 25.5546C10.2 22.7546 9.1 19.3046 9.3 15.7546C9.75 8.45461 15.8 2.40461 23.1 1.95461ZM27 26.0046V24.2046C27 23.2046 27.8 22.4046 28.8 22.4046C29.8 22.4046 30.6 23.2046 30.6 24.2046C30.6 25.2046 29.8 26.0046 28.8 26.0046H27ZM2.25 16.8546C1.55 16.8546 1 16.3046 1 15.6046C1 14.9046 1.55 14.3546 2.25 14.3546C2.95 14.3546 3.5 14.9046 3.5 15.6046C3.5 16.3046 2.95 16.8546 2.25 16.8546Z" fill="#12AC49"/>
</svg>
