<svg width="89" height="84" viewBox="0 0 89 84" fill="none" xmlns="http://www.w3.org/2000/svg">
<path d="M23.4694 68.9751H4.22067C3.18671 68.9751 2.8402 68.9751 2.8402 67.1017V62.6453C2.8402 62.2768 2.69379 61.9233 2.43316 61.6627C2.17254 61.402 1.81905 61.2556 1.45047 61.2556C1.08189 61.2556 0.72841 61.402 0.467785 61.6627C0.20716 61.9233 0.0607423 62.2768 0.0607423 62.6453V67.1017C-0.0440061 67.6936 -0.0129759 68.3015 0.151492 68.8796C0.315959 69.4577 0.609569 69.9909 1.01017 70.4389C1.41077 70.887 1.9079 71.2382 2.46405 71.4661C3.0202 71.694 3.62084 71.7927 4.22067 71.7546H23.4694C23.8379 71.7546 24.1914 71.6081 24.452 71.3475C24.7127 71.0869 24.8591 70.7334 24.8591 70.3648C24.8591 69.9963 24.7127 69.6428 24.452 69.3821C24.1914 69.1215 23.8379 68.9751 23.4694 68.9751ZM1.45047 58.2705C1.81905 58.2705 2.17254 58.1241 2.43316 57.8634C2.69379 57.6028 2.8402 57.2493 2.8402 56.8807V10.9418L44.9027 11.0141V34.1855C44.9027 34.5541 45.0491 34.9076 45.3098 35.1682C45.5704 35.4288 45.9239 35.5752 46.2924 35.5752C46.661 35.5752 47.0145 35.4288 47.2751 35.1682C47.5358 34.9076 47.6822 34.5541 47.6822 34.1855V11.0141C47.6891 10.2625 47.3973 9.5389 46.8708 9.00241C46.3444 8.46592 45.6265 8.16042 44.8749 8.15308H4.01869L10.3744 2.77946H50.7692C51.359 2.77946 51.9245 3.01373 52.3415 3.43073C52.7585 3.84773 52.9928 4.4133 52.9928 5.00303V33.2053C52.9928 33.5739 53.1392 33.9274 53.3998 34.188C53.6605 34.4486 54.0139 34.595 54.3825 34.595C54.7511 34.595 55.1046 34.4486 55.3652 34.188C55.6258 33.9274 55.7723 33.5739 55.7723 33.2053V5.00303C55.7723 3.67614 55.2452 2.4036 54.3069 1.46535C53.3687 0.527104 52.0961 2.54704e-07 50.7692 2.54704e-07H9.86668C9.53835 -0.000198568 9.22058 0.11601 8.96984 0.327976L0.714842 7.3211C0.519688 7.52125 0.367142 7.7589 0.266422 8.01967C0.137409 8.22689 0.0663785 8.46494 0.0607423 8.70898V56.8863C0.0622128 57.2539 0.209279 57.606 0.469745 57.8654C0.730211 58.1248 1.08285 58.2705 1.45047 58.2705Z" fill="white"/>
<path d="M50.3546 33.6894C50.7232 33.6894 51.0767 33.543 51.3373 33.2824C51.5979 33.0218 51.7443 32.6683 51.7443 32.2997V8.22774C51.7429 7.13307 51.3079 6.08354 50.5345 5.3088C49.7612 4.53406 48.7124 4.09718 47.6178 4.09375L12.8819 4.02148C12.5133 4.02148 12.1599 4.1679 11.8992 4.42853C11.6386 4.68915 11.4922 5.04264 11.4922 5.41121C11.4922 5.77979 11.6386 6.13328 11.8992 6.3939C12.1599 6.65453 12.5133 6.80095 12.8819 6.80095L47.6196 6.87321C47.9784 6.87419 48.3222 7.01727 48.5757 7.27114C48.8292 7.525 48.9718 7.86896 48.9723 8.22774V32.2997C48.9723 32.667 49.1177 33.0194 49.3767 33.2798C49.6357 33.5402 49.9873 33.6875 50.3546 33.6894ZM69.4958 60.1462C69.1273 60.1462 68.7738 60.2926 68.5131 60.5533C68.2525 60.8139 68.1061 61.1674 68.1061 61.5359V73.0911C68.1087 73.3623 68.0451 73.6301 67.9208 73.8712C67.1389 75.3628 63.4329 80.2343 48.6091 80.2343C33.7853 80.2343 30.0794 75.3684 29.2881 73.8749C29.1642 73.6344 29.1006 73.3673 29.1029 73.0966V62.1252C29.1029 61.7566 28.9564 61.4031 28.6958 61.1425C28.4352 60.8819 28.0817 60.7355 27.7131 60.7355C27.3445 60.7355 26.9911 60.8819 26.7304 61.1425C26.4698 61.4031 26.3234 61.7566 26.3234 62.1252V73.0911C26.3195 73.8121 26.4899 74.5235 26.82 75.1646C28.0689 77.5234 32.6735 83.0138 48.6091 83.0138C64.5447 83.0138 69.1475 77.529 70.3871 75.172C70.7199 74.5311 70.8916 73.8188 70.8874 73.0966V61.5359C70.8874 61.3533 70.8514 61.1724 70.7814 61.0037C70.7115 60.835 70.609 60.6817 70.4797 60.5526C70.3505 60.4235 70.197 60.3212 70.0282 60.2515C69.8594 60.1817 69.6785 60.146 69.4958 60.1462Z" fill="white"/>
<path d="M88.0513 48.2489L51.2846 35.9673C51.0039 35.8729 50.6999 35.8729 50.4192 35.9673L9.00342 49.2458C8.72687 49.3368 8.48584 49.5122 8.31426 49.7474C8.14267 49.9826 8.04917 50.2657 8.04692 50.5568C8.04467 50.848 8.13378 51.1325 8.30171 51.3703C8.46964 51.6081 8.70793 51.7873 8.98303 51.8825L47.7102 64.9719C47.8535 65.0204 48.0036 65.0454 48.1549 65.0461C48.3141 65.0458 48.472 65.0182 48.6218 64.9645L77.0483 54.8139V61.4846C76.0901 61.774 75.2501 62.3633 74.652 63.1659C74.0539 63.9685 73.7293 64.942 73.7259 65.9429V68.7446C73.7259 69.987 74.2195 71.1784 75.0979 72.0569C75.9764 72.9354 77.1679 73.4289 78.4103 73.4289C79.6526 73.4289 80.8441 72.9354 81.7226 72.0569C82.6011 71.1784 83.0946 69.987 83.0946 68.7446V65.9392C83.092 64.9473 82.7741 63.9819 82.1869 63.1825C81.5997 62.3831 80.7735 61.7911 79.8278 61.4921V53.8207L88.0754 50.8764C88.3478 50.7792 88.5831 50.5995 88.7486 50.3622C88.914 50.1249 89.0012 49.8419 88.9982 49.5527C88.9951 49.2635 88.9019 48.9824 88.7315 48.7487C88.5611 48.515 88.322 48.3402 88.0476 48.2489H88.0513ZM80.3077 68.7446C80.3077 69.2498 80.107 69.7343 79.7498 70.0915C79.3926 70.4488 78.908 70.6495 78.4028 70.6495C77.8976 70.6495 77.4131 70.4488 77.0559 70.0915C76.6987 69.7343 76.498 69.2498 76.498 68.7446V65.9392C76.498 65.689 76.5473 65.4413 76.643 65.2102C76.7387 64.9791 76.879 64.7691 77.0559 64.5923C77.2328 64.4154 77.4428 64.2751 77.6739 64.1793C77.905 64.0836 78.1527 64.0343 78.4028 64.0343C78.653 64.0343 78.9007 64.0836 79.1318 64.1793C79.3629 64.2751 79.5729 64.4154 79.7498 64.5923C79.9267 64.7691 80.067 64.9791 80.1627 65.2102C80.2584 65.4413 80.3077 65.689 80.3077 65.9392V68.7446ZM78.2398 51.4378L48.7534 48.2563C48.5697 48.232 48.3829 48.2448 48.2042 48.2938C48.0255 48.3428 47.8583 48.4271 47.7127 48.5417C47.567 48.6562 47.4457 48.7988 47.3559 48.9609C47.2661 49.1231 47.2097 49.3015 47.1899 49.4858C47.1701 49.6701 47.1874 49.8564 47.2408 50.0339C47.2941 50.2114 47.3824 50.3765 47.5004 50.5193C47.6185 50.6622 47.7639 50.78 47.9282 50.8658C48.0925 50.9516 48.2722 51.0037 48.4569 51.0191L72.2287 53.5836L48.1401 62.1888L13.8712 50.604L50.8343 38.745L83.3558 49.6089L78.2398 51.4378Z" fill="white"/>
</svg>
