<svg width="39" height="39" viewBox="0 0 39 39" fill="none" xmlns="http://www.w3.org/2000/svg">
<path d="M37.2631 29.9829L35.8435 15.7866C35.814 15.6247 35.7317 15.4771 35.6093 15.367C35.487 15.2569 35.3316 15.1905 35.1675 15.1782H29.8946C29.7304 15.1905 29.575 15.2569 29.4527 15.367C29.3304 15.4771 29.248 15.6247 29.2186 15.7866L27.8665 29.3745H26.5145L25.0949 8.35044C25.0781 8.18311 24.9995 8.02806 24.8745 7.91556C24.7495 7.80306 24.587 7.74119 24.4189 7.74203H16.9827C16.8145 7.74119 16.6521 7.80306 16.5271 7.91556C16.4021 8.02806 16.3235 8.18311 16.3067 8.35044L15.2927 23.3579L10.9662 20.0455C10.8547 19.9457 10.7102 19.8905 10.5606 19.8905C10.4109 19.8905 10.2665 19.9457 10.155 20.0455L0.352789 27.4816C0.264488 27.5404 0.193081 27.6212 0.145649 27.7161C0.0982165 27.8109 0.0764071 27.9165 0.0823837 28.0224V38.1626C0.0715131 38.254 0.0815189 38.3467 0.111648 38.4337C0.141777 38.5206 0.191244 38.5996 0.256325 38.6647C0.321405 38.7298 0.400403 38.7792 0.487369 38.8094C0.574335 38.8395 0.667004 38.8495 0.758397 38.8386H36.5871C36.6785 38.8495 36.7712 38.8395 36.8581 38.8094C36.9451 38.7792 37.0241 38.7298 37.0892 38.6647C37.1543 38.5996 37.2037 38.5206 37.2339 38.4337C37.264 38.3467 37.274 38.254 37.2631 38.1626V30.0505V29.9829ZM30.503 16.5302H34.5591L35.8435 29.3745H29.2186L30.503 16.5302ZM17.5911 9.09406H23.8105L25.1625 29.3745H21.0388V28.0224C21.0448 27.9165 21.023 27.8109 20.9755 27.7161C20.9281 27.6212 20.8567 27.5404 20.7684 27.4816L16.5771 24.3044L17.5911 9.09406ZM1.43441 28.3604L10.5606 21.4651L19.6868 28.3604V37.4866H14.2787V31.4025C14.2895 31.3111 14.2795 31.2184 14.2494 31.1315C14.2193 31.0445 14.1698 30.9655 14.1047 30.9004C14.0396 30.8353 13.9606 30.7859 13.8737 30.7557C13.7867 30.7256 13.694 30.7156 13.6027 30.7265H8.19454C8.10315 30.7156 8.01048 30.7256 7.92352 30.7557C7.83655 30.7859 7.75755 30.8353 7.69247 30.9004C7.62739 30.9655 7.57792 31.0445 7.5478 31.1315C7.51767 31.2184 7.50766 31.3111 7.51853 31.4025V37.4866H1.43441V28.3604ZM8.87056 37.4866V32.0785H12.9266V37.4866H8.87056ZM35.9111 37.4866H21.0388V30.7265H35.9111V37.4866ZM20.9036 1.99592C21.3992 1.77752 21.8048 1.39573 22.0528 0.914295L20.9036 0.238281C20.7511 0.509732 20.5135 0.723511 20.2276 0.846693C19.735 1.06957 19.3307 1.45013 19.0784 1.92831C18.7908 2.41921 18.65 2.98227 18.6728 3.55075C18.723 3.85061 18.6756 4.15866 18.5375 4.42956C18.3816 4.68263 18.1427 4.87376 17.8615 4.97037C17.3585 5.23504 16.9377 5.63252 16.6447 6.1196L17.8615 6.79561C17.9884 6.52889 18.2032 6.31402 18.4699 6.1872C18.9848 5.97244 19.4131 5.59173 19.6868 5.10558C19.9973 4.62562 20.1178 4.04717 20.0248 3.48315C19.9951 3.17595 20.0662 2.86743 20.2276 2.60433C20.3839 2.33591 20.6203 2.12315 20.9036 1.99592ZM26.2441 2.40152C26.7471 2.13686 27.168 1.73938 27.4609 1.2523L26.2441 0.576288C26.1173 0.843009 25.9024 1.05788 25.6357 1.1847C25.1208 1.39945 24.6925 1.78017 24.4189 2.26632C24.1434 2.76 24.0254 3.32613 24.0809 3.88875C24.1059 4.19562 24.035 4.50269 23.8781 4.76757C23.8087 4.89941 23.7128 5.0155 23.5965 5.10856C23.4802 5.20162 23.3459 5.26965 23.202 5.30838C22.7218 5.58014 22.3246 5.9774 22.0528 6.4576L23.202 7.13362C23.3546 6.86217 23.5921 6.64839 23.8781 6.5252C24.3706 6.30233 24.775 5.92177 25.0273 5.44358C25.3149 4.95269 25.4556 4.38962 25.4329 3.82115C25.3827 3.52129 25.4301 3.21324 25.5681 2.94233C25.7241 2.68927 25.963 2.49813 26.2441 2.40152Z" fill="#12AC49"/>
<path d="M33.7472 9.43146C34.2427 9.21307 34.6484 8.83128 34.8964 8.34984L33.7472 7.67383C33.5946 7.94528 33.3571 8.15906 33.0712 8.28224C32.5786 8.50512 32.1742 8.88567 31.9219 9.36386C31.6343 9.85475 31.4936 10.4178 31.5163 10.9863C31.5665 11.2862 31.5191 11.5942 31.3811 11.8651C31.2252 12.1182 30.9862 12.3093 30.7051 12.4059C30.2021 12.6706 29.7812 13.0681 29.4883 13.5551L30.7051 14.2312C30.8319 13.9644 31.0468 13.7496 31.3135 13.6227C31.8284 13.408 32.2567 13.0273 32.5303 12.5411C32.8408 12.0612 32.9614 11.4827 32.8683 10.9187C32.8386 10.6115 32.9098 10.303 33.0712 10.0399C33.2274 9.77146 33.4638 9.5587 33.7472 9.43146ZM37.1272 8.62025C36.6124 8.835 36.184 9.21572 35.9104 9.70187C35.6349 10.1955 35.517 10.7617 35.5724 11.3243C35.5974 11.6312 35.5265 11.9382 35.3696 12.2031C35.3002 12.335 35.2044 12.451 35.0881 12.5441C34.9717 12.6372 34.8374 12.7052 34.6936 12.7439C34.2134 13.0157 33.8161 13.4129 33.5444 13.8932L34.6936 14.5692C34.8461 14.2977 35.0836 14.0839 35.3696 13.9608C35.8622 13.7379 36.2665 13.3573 36.5188 12.8791C36.8064 12.3882 36.9472 11.8252 36.9244 11.2567C36.8742 10.9568 36.9216 10.6488 37.0596 10.3779C37.2156 10.1248 37.4545 9.93368 37.7356 9.83707C38.2387 9.5724 38.6595 9.17493 38.9525 8.68785L37.7356 8.01183C37.6088 8.27856 37.394 8.49342 37.1272 8.62025Z" fill="#12AC49"/>
</svg>
