<svg width="48" height="49" viewBox="0 0 48 49" fill="none" xmlns="http://www.w3.org/2000/svg">
<path d="M43.3825 12.2515C42.8694 12.1747 42.4007 11.9169 42.0611 11.5246C41.7216 11.1323 41.5336 10.6314 41.5312 10.1126V9.26367H41.7656C42.1873 9.26401 42.5993 9.13787 42.9486 8.90156C43.2978 8.66525 43.5681 8.32963 43.7246 7.93808C43.881 7.54653 43.9165 7.11704 43.8263 6.70514C43.7361 6.29324 43.5245 5.91785 43.2188 5.62748V2.2793C43.2181 1.72005 42.9957 1.1839 42.6002 0.788456C42.2048 0.393011 41.6686 0.170567 41.1094 0.169922H32.2031C31.6439 0.170567 31.1077 0.393011 30.7123 0.788456C30.3168 1.1839 30.0944 1.72005 30.0938 2.2793V5.62748C29.788 5.91786 29.5764 6.29325 29.4863 6.70514C29.3962 7.11703 29.4316 7.54649 29.5881 7.93802C29.7445 8.32955 30.0148 8.66515 30.364 8.90147C30.7132 9.13779 31.1252 9.26396 31.5469 9.26367H31.7812V10.1126C31.7789 10.6314 31.5909 11.1323 31.2514 11.5246C30.9118 11.9169 30.4431 12.1747 29.93 12.2515C28.9552 12.3937 28.0386 12.8022 27.2812 13.4321V10.4355C27.2799 9.25492 26.8103 8.12302 25.9755 7.28819C25.1406 6.45336 24.0088 5.98376 22.8281 5.98242H4.45312C3.27249 5.98376 2.1406 6.45336 1.30577 7.28819C0.470937 8.12302 0.00133991 9.25492 0 10.4355L0 43.7168C0.00133991 44.8974 0.470937 46.0293 1.30577 46.8642C2.1406 47.699 3.27249 48.1686 4.45312 48.1699H22.8281C23.5604 48.1682 24.2811 47.9866 24.9267 47.6411C25.5724 47.2956 26.1233 46.7967 26.531 46.1884C27.0357 46.8077 27.672 47.3068 28.3937 47.6495C29.1153 47.9922 29.9042 48.17 30.7031 48.1699H42.5987C42.6478 48.1714 42.6968 48.1722 42.7456 48.1722C45.5631 48.172 47.9047 45.7965 47.9996 42.8017C47.9999 42.7942 48 42.7867 48 42.7793V17.5864C47.9942 16.2923 47.5254 15.043 46.6785 14.0645C45.8315 13.086 44.6624 12.4429 43.3825 12.2515ZM25.875 15.2049C25.5055 15.9444 25.313 16.7597 25.3125 17.5864V42.7793C25.3123 43.4578 25.4408 44.1301 25.6913 44.7606C25.4759 45.347 25.086 45.8534 24.5741 46.2115C24.0622 46.5696 23.4529 46.7623 22.8281 46.7637H4.45312C3.64533 46.7628 2.87087 46.4414 2.29967 45.8702C1.72847 45.299 1.40717 44.5246 1.40625 43.7168V10.4355C1.40717 9.62775 1.72847 8.8533 2.29967 8.28209C2.87087 7.71089 3.64533 7.38959 4.45312 7.38867H22.8281C23.6359 7.38959 24.4104 7.71089 24.9816 8.28209C25.5528 8.8533 25.8741 9.62775 25.875 10.4355V15.2049ZM40.4062 1.57617H41.1094C41.2958 1.57637 41.4745 1.65051 41.6063 1.78233C41.7382 1.91415 41.8123 2.09288 41.8125 2.2793V5.04614C41.7968 5.04577 41.7814 5.04492 41.7656 5.04492H40.4062V1.57617ZM37.3594 1.57617H39V5.04492H37.3594V1.57617ZM34.3125 1.57617H35.9531V5.04492H34.3125V1.57617ZM31.5 2.2793C31.5002 2.09288 31.5743 1.91415 31.7062 1.78233C31.838 1.65051 32.0167 1.57637 32.2031 1.57617H32.9062V5.04492H31.5469C31.5311 5.04492 31.5157 5.04586 31.5 5.04614V2.2793ZM31.5469 7.85742C31.3604 7.85742 31.1816 7.78334 31.0497 7.65148C30.9178 7.51962 30.8438 7.34078 30.8438 7.1543C30.8438 6.96782 30.9178 6.78897 31.0497 6.65711C31.1816 6.52525 31.3604 6.45117 31.5469 6.45117H41.7656C41.9521 6.45117 42.131 6.52525 42.2628 6.65711C42.3947 6.78897 42.4688 6.96782 42.4688 7.1543C42.4688 7.34078 42.3947 7.51962 42.2628 7.65148C42.131 7.78334 41.9521 7.85742 41.7656 7.85742H31.5469ZM46.5938 42.7678C46.5176 44.9979 44.8045 46.766 42.7453 46.7658C42.7075 46.7658 42.6694 46.7653 42.6315 46.764C42.6241 46.7638 42.6168 46.7637 42.6094 46.7637H30.7031C29.6468 46.7625 28.634 46.3423 27.8871 45.5954C27.1401 44.8484 26.7199 43.8357 26.7188 42.7793V38.5137H46.5938V42.7678ZM46.5938 37.1074H26.7188V21.5449H46.5938V37.1074ZM46.5938 20.1387H26.7188V17.5864C26.7231 16.6299 27.0696 15.7066 27.6955 14.9833C28.3215 14.2601 29.1856 13.7848 30.1316 13.6433C30.9786 13.5166 31.7524 13.0909 32.3128 12.4434C32.8733 11.7958 33.1836 10.969 33.1875 10.1126V9.26367H40.125V10.1126C40.1289 10.969 40.4392 11.7958 40.9997 12.4434C41.5602 13.091 42.3339 13.5166 43.181 13.6433C44.1269 13.7848 44.991 14.2601 45.617 14.9834C46.243 15.7066 46.5894 16.6299 46.5938 17.5864V20.1387ZM8.15625 10.248C7.46093 10.248 6.78121 10.4542 6.20307 10.8405C5.62493 11.2268 5.17433 11.7759 4.90824 12.4183C4.64215 13.0607 4.57253 13.7676 4.70818 14.4495C4.84383 15.1315 5.17866 15.7579 5.67033 16.2496C6.162 16.7413 6.78842 17.0761 7.47039 17.2117C8.15235 17.3474 8.85923 17.2778 9.50162 17.0117C10.144 16.7456 10.6931 16.295 11.0794 15.7168C11.4657 15.1387 11.6719 14.459 11.6719 13.7637C11.6708 12.8316 11.3001 11.938 10.641 11.2789C9.98194 10.6198 9.08833 10.2491 8.15625 10.248ZM8.15625 15.873C7.79993 15.8731 7.4494 15.7829 7.13739 15.6108C6.82537 15.4387 6.56204 15.1904 6.37199 14.889C6.18193 14.5876 6.07133 14.243 6.05053 13.8873C6.02973 13.5315 6.0994 13.1764 6.25303 12.8549L9.06506 15.667C8.78142 15.803 8.47081 15.8734 8.15625 15.873ZM10.0595 14.6726L7.24744 11.8605C7.641 11.6724 8.08319 11.611 8.5131 11.6847C8.94301 11.7585 9.33948 11.9637 9.64791 12.2721C9.95633 12.5805 10.1615 12.977 10.2352 13.4069C10.3089 13.8368 10.2475 14.279 10.0595 14.6726ZM8.15625 19.0605C7.46093 19.0605 6.78121 19.2667 6.20307 19.653C5.62493 20.0393 5.17433 20.5884 4.90824 21.2308C4.64215 21.8732 4.57253 22.5801 4.70818 23.262C4.84383 23.944 5.17866 24.5704 5.67033 25.0621C6.162 25.5538 6.78842 25.8886 7.47039 26.0242C8.15235 26.1599 8.85923 26.0903 9.50162 25.8242C10.144 25.5581 10.6931 25.1075 11.0794 24.5293C11.4657 23.9512 11.6719 23.2715 11.6719 22.5762C11.6708 21.6441 11.3001 20.7505 10.641 20.0914C9.98194 19.4323 9.08833 19.0616 8.15625 19.0605ZM8.15625 24.6855C7.79993 24.6856 7.4494 24.5954 7.13739 24.4233C6.82537 24.2512 6.56204 24.0029 6.37199 23.7015C6.18193 23.4001 6.07133 23.0555 6.05053 22.6998C6.02973 22.344 6.0994 21.9889 6.25303 21.6674L9.06506 24.4795C8.78142 24.6155 8.47081 24.6859 8.15625 24.6855ZM10.0595 23.4851L7.24744 20.673C7.641 20.4849 8.08319 20.4235 8.5131 20.4972C8.94301 20.571 9.33948 20.7762 9.64791 21.0846C9.95633 21.393 10.1615 21.7895 10.2352 22.2194C10.3089 22.6493 10.2475 23.0915 10.0595 23.4851ZM8.15625 27.873C7.46093 27.873 6.78121 28.0792 6.20307 28.4655C5.62493 28.8518 5.17433 29.4009 4.90824 30.0433C4.64215 30.6857 4.57253 31.3926 4.70818 32.0745C4.84383 32.7565 5.17866 33.3829 5.67033 33.8746C6.162 34.3663 6.78842 34.7011 7.47039 34.8367C8.15235 34.9724 8.85923 34.9028 9.50162 34.6367C10.144 34.3706 10.6931 33.92 11.0794 33.3418C11.4657 32.7637 11.6719 32.084 11.6719 31.3887C11.6708 30.4566 11.3001 29.563 10.641 28.9039C9.98194 28.2448 9.08833 27.8741 8.15625 27.873ZM8.15625 33.498C7.79993 33.4981 7.4494 33.4079 7.13739 33.2358C6.82537 33.0637 6.56204 32.8154 6.37199 32.514C6.18193 32.2126 6.07133 31.868 6.05053 31.5123C6.02973 31.1565 6.0994 30.8014 6.25303 30.4799L9.06506 33.292C8.78142 33.428 8.47081 33.4984 8.15625 33.498ZM10.0595 32.2976L7.24744 29.4855C7.641 29.2974 8.08319 29.236 8.5131 29.3097C8.94301 29.3834 9.33948 29.5887 9.64791 29.8971C9.95633 30.2055 10.1615 30.602 10.2352 31.0319C10.3089 31.4618 10.2475 31.904 10.0595 32.2976ZM8.15625 36.6855C7.46093 36.6855 6.78121 36.8917 6.20307 37.278C5.62493 37.6643 5.17433 38.2134 4.90824 38.8558C4.64215 39.4982 4.57253 40.2051 4.70818 40.887C4.84383 41.569 5.17866 42.1954 5.67033 42.6871C6.162 43.1788 6.78842 43.5136 7.47039 43.6492C8.15235 43.7849 8.85923 43.7153 9.50162 43.4492C10.144 43.1831 10.6931 42.7325 11.0794 42.1543C11.4657 41.5762 11.6719 40.8965 11.6719 40.2012C11.6708 39.2691 11.3001 38.3755 10.641 37.7164C9.98194 37.0573 9.08833 36.6866 8.15625 36.6855ZM8.15625 42.3105C7.79993 42.3106 7.4494 42.2204 7.13739 42.0483C6.82537 41.8762 6.56204 41.6279 6.37199 41.3265C6.18193 41.0251 6.07133 40.6805 6.05053 40.3248C6.02973 39.969 6.0994 39.6139 6.25303 39.2924L9.06506 42.1045C8.78142 42.2405 8.47081 42.3109 8.15625 42.3105ZM10.0595 41.1101L7.24744 38.298C7.641 38.1099 8.08319 38.0485 8.5131 38.1222C8.94301 38.1959 9.33948 38.4012 9.64791 38.7096C9.95633 39.018 10.1615 39.4145 10.2352 39.8444C10.3089 40.2743 10.2475 40.7165 10.0595 41.1101ZM19.125 10.248C18.4297 10.248 17.75 10.4542 17.1718 10.8405C16.5937 11.2268 16.1431 11.7759 15.877 12.4183C15.6109 13.0607 15.5413 13.7676 15.6769 14.4495C15.8126 15.1315 16.1474 15.7579 16.6391 16.2496C17.1307 16.7413 17.7572 17.0761 18.4391 17.2117C19.1211 17.3474 19.828 17.2778 20.4704 17.0117C21.1128 16.7456 21.6618 16.295 22.0481 15.7168C22.4344 15.1387 22.6406 14.459 22.6406 13.7637C22.6396 12.8316 22.2689 11.938 21.6098 11.2789C20.9507 10.6198 20.0571 10.2491 19.125 10.248ZM19.125 15.873C18.7687 15.8731 18.4181 15.7829 18.1061 15.6108C17.7941 15.4387 17.5308 15.1904 17.3407 14.889C17.1507 14.5876 17.0401 14.243 17.0193 13.8873C16.9985 13.5315 17.0681 13.1764 17.2218 12.8549L20.0338 15.667C19.7502 15.803 19.4396 15.8734 19.125 15.873ZM21.0282 14.6726L18.2162 11.8605C18.6098 11.6724 19.0519 11.611 19.4819 11.6847C19.9118 11.7585 20.3082 11.9637 20.6167 12.2721C20.9251 12.5805 21.1303 12.977 21.204 13.4069C21.2777 13.8368 21.2163 14.279 21.0282 14.6726ZM19.125 19.0605C18.4297 19.0605 17.75 19.2667 17.1718 19.653C16.5937 20.0393 16.1431 20.5884 15.877 21.2308C15.6109 21.8732 15.5413 22.5801 15.6769 23.262C15.8126 23.944 16.1474 24.5704 16.6391 25.0621C17.1307 25.5538 17.7572 25.8886 18.4391 26.0242C19.1211 26.1599 19.828 26.0903 20.4704 25.8242C21.1128 25.5581 21.6618 25.1075 22.0481 24.5293C22.4344 23.9512 22.6406 23.2715 22.6406 22.5762C22.6396 21.6441 22.2689 20.7505 21.6098 20.0914C20.9507 19.4323 20.0571 19.0616 19.125 19.0605ZM19.125 24.6855C18.7687 24.6856 18.4181 24.5954 18.1061 24.4233C17.7941 24.2512 17.5308 24.0029 17.3407 23.7015C17.1507 23.4001 17.0401 23.0555 17.0193 22.6998C16.9985 22.344 17.0681 21.9889 17.2218 21.6674L20.0338 24.4795C19.7502 24.6155 19.4396 24.6859 19.125 24.6855ZM21.0282 23.4851L18.2162 20.673C18.6098 20.4849 19.0519 20.4235 19.4819 20.4972C19.9118 20.571 20.3082 20.7762 20.6167 21.0846C20.9251 21.393 21.1303 21.7895 21.204 22.2194C21.2777 22.6493 21.2163 23.0915 21.0282 23.4851ZM19.125 27.873C18.4297 27.873 17.75 28.0792 17.1718 28.4655C16.5937 28.8518 16.1431 29.4009 15.877 30.0433C15.6109 30.6857 15.5413 31.3926 15.6769 32.0745C15.8126 32.7565 16.1474 33.3829 16.6391 33.8746C17.1307 34.3663 17.7572 34.7011 18.4391 34.8367C19.1211 34.9724 19.828 34.9028 20.4704 34.6367C21.1128 34.3706 21.6618 33.92 22.0481 33.3418C22.4344 32.7637 22.6406 32.084 22.6406 31.3887C22.6396 30.4566 22.2689 29.563 21.6098 28.9039C20.9507 28.2448 20.0571 27.8741 19.125 27.873ZM19.125 33.498C18.7687 33.4981 18.4181 33.4079 18.1061 33.2358C17.7941 33.0637 17.5308 32.8154 17.3407 32.514C17.1507 32.2126 17.0401 31.868 17.0193 31.5123C16.9985 31.1565 17.0681 30.8014 17.2218 30.4799L20.0338 33.292C19.7502 33.428 19.4396 33.4984 19.125 33.498ZM21.0282 32.2976L18.2162 29.4855C18.6098 29.2974 19.0519 29.236 19.4819 29.3097C19.9118 29.3834 20.3082 29.5887 20.6167 29.8971C20.9251 30.2055 21.1303 30.602 21.204 31.0319C21.2777 31.4618 21.2163 31.904 21.0282 32.2976ZM19.125 36.6855C18.4297 36.6855 17.75 36.8917 17.1718 37.278C16.5937 37.6643 16.1431 38.2134 15.877 38.8558C15.6109 39.4982 15.5413 40.2051 15.6769 40.887C15.8126 41.569 16.1474 42.1954 16.6391 42.6871C17.1307 43.1788 17.7572 43.5136 18.4391 43.6492C19.1211 43.7849 19.828 43.7153 20.4704 43.4492C21.1128 43.1831 21.6618 42.7325 22.0481 42.1543C22.4344 41.5762 22.6406 40.8965 22.6406 40.2012C22.6396 39.2691 22.2689 38.3755 21.6098 37.7164C20.9507 37.0573 20.0571 36.6866 19.125 36.6855ZM19.125 42.3105C18.7687 42.3106 18.4181 42.2204 18.1061 42.0483C17.7941 41.8762 17.5308 41.6279 17.3407 41.3265C17.1507 41.0251 17.0401 40.6805 17.0193 40.3248C16.9985 39.969 17.0681 39.6139 17.2218 39.2924L20.0338 42.1045C19.7502 42.2405 19.4396 42.3109 19.125 42.3105ZM21.0282 41.1101L18.2162 38.298C18.6098 38.1099 19.0519 38.0485 19.4819 38.1222C19.9118 38.1959 20.3082 38.4012 20.6167 38.7096C20.9251 39.018 21.1303 39.4145 21.204 39.8444C21.2777 40.2743 21.2163 40.7165 21.0282 41.1101Z" fill="#12AC49"/>
</svg>
