<svg width="89" height="77" viewBox="0 0 89 77" fill="none" xmlns="http://www.w3.org/2000/svg">
<path d="M80.2566 37.7488H73.6524C73.2701 37.7488 72.9399 37.4359 72.9399 37.0362V10.1676C72.9399 9.78529 73.2527 9.45508 73.6524 9.45508H80.2566C80.639 9.45508 80.9692 9.76791 80.9692 10.1676V37.0536C80.9692 37.4359 80.6564 37.7488 80.2566 37.7488ZM74.365 36.341H79.5615V10.8628H74.365V36.341ZM67.3785 37.7488H60.7743C60.392 37.7488 60.0617 37.4359 60.0617 37.0362V15.4684C60.0617 15.086 60.3746 14.7558 60.7743 14.7558H67.3785C67.7608 14.7558 68.091 15.0686 68.091 15.4684V37.0362C68.091 37.4359 67.7782 37.7488 67.3785 37.7488ZM61.4869 36.341H66.6833V16.1809H61.4869V36.341ZM54.5003 37.7488H47.8962C47.5138 37.7488 47.1836 37.4359 47.1836 37.0362V20.7691C47.1836 20.3867 47.4964 20.0565 47.8962 20.0565H54.5003C54.8827 20.0565 55.2129 20.3694 55.2129 20.7691V37.0362C55.2129 37.4359 54.9001 37.7488 54.5003 37.7488ZM48.6261 36.341H53.8052V21.4816H48.6261V36.341Z" fill="white"/>
<path d="M87.2621 7.2646C88.2179 7.2646 88.9826 6.4999 88.9826 5.54403V1.72056C88.9826 0.764695 88.2179 0 87.2621 0H28.8498C27.9113 0 27.1293 0.764695 27.1293 1.72056V5.54403C27.1293 6.48252 27.894 7.2646 28.8498 7.2646H30.553V25.5477H20.4034C21.1334 24.4702 21.5679 23.1494 21.5679 21.759V15.5893L26.521 8.20309C26.66 7.99453 26.6774 7.71646 26.5558 7.49053C26.4341 7.2646 26.1908 7.12556 25.9475 7.12556H11.5399C9.6282 7.12556 8.08143 8.63757 7.99453 10.5319C7.99453 10.5667 7.97715 10.5841 7.97715 10.6188V21.759C7.97715 23.1841 8.42902 24.505 9.17633 25.5999C4.0494 26.017 0 30.3097 0 35.5583V49.514C0 52.3294 2.29408 54.6061 5.09217 54.6061H6.20445V71.4642C6.20445 74.0711 8.32474 76.174 10.9143 76.174H19.604C22.1935 76.174 24.3138 74.0537 24.3138 71.4642V37.2615C24.3138 37.2441 24.3138 37.2441 24.3138 37.2267V34.2896H30.553V40.3898H28.8498C27.9113 40.3898 27.1293 41.1545 27.1293 42.1103V45.9338C27.1293 46.8723 27.894 47.637 28.8498 47.637H41.5021L31.7001 68.6835C31.5958 68.892 31.6132 69.1527 31.7522 69.3439C31.8739 69.5524 32.0998 69.6741 32.3431 69.6741H37.5569C37.835 69.6741 38.0783 69.5177 38.1826 69.2744L48.2453 47.6544H54.7452V68.9963C54.7452 69.3786 55.058 69.6915 55.4403 69.6915H60.6542C61.0365 69.6915 61.3493 69.3786 61.3493 68.9963V47.6544H67.8493L77.9293 69.2917C78.0336 69.5351 78.2769 69.6915 78.555 69.6915H83.7688C84.0121 69.6915 84.2207 69.5698 84.3597 69.3613C84.4814 69.1701 84.4987 68.9094 84.3945 68.7009L74.6272 47.6544H87.2794C88.2353 47.6544 89 46.8897 89 45.9512V42.1277C89 41.1892 88.2353 40.4071 87.2794 40.4071H85.5763V7.2646H87.2621ZM9.36751 10.671C9.36751 9.47178 10.3408 8.49854 11.5399 8.49854H24.644L20.5077 14.6856H9.36751V10.671ZM9.36751 16.076H20.1775V21.759C20.1775 24.7483 17.7444 27.164 14.7725 27.164C11.7832 27.164 9.36751 24.7309 9.36751 21.759V16.076ZM20.3861 26.9729L15.2591 37.5395L10.1148 26.9729H10.445C11.6268 27.9461 13.1215 28.537 14.7725 28.537C16.4236 28.537 17.9182 27.9461 19.1 26.9729H20.3861ZM5.09217 53.1984C3.05878 53.1984 1.39035 51.5474 1.39035 49.4966V35.5409C1.39035 31.2656 4.51865 27.7202 8.60281 27.0598L14.564 39.2949V53.1984H7.57743V37.2615C7.57743 36.8791 7.2646 36.5663 6.88225 36.5663C6.4999 36.5663 6.18707 36.8791 6.18707 37.2615V53.1984H5.09217ZM7.57743 71.4642V54.5888H14.5466V74.801H10.8969C9.07206 74.801 7.57743 73.3064 7.57743 71.4642ZM19.604 74.801H15.9543V54.5888H22.9235V71.4642C22.9235 73.3064 21.4462 74.801 19.604 74.801ZM23.6186 32.9166C23.2363 32.9166 22.9235 33.2295 22.9235 33.6118V53.2158H15.9543V39.2949L21.9502 26.9555H39.0168C40.6678 26.9555 42.0061 28.2937 42.0061 29.9447C42.0061 31.5784 40.6852 32.934 39.0168 32.934H23.6186V32.9166ZM39.0168 25.5477H31.9434V7.2646H84.1685V40.3898H31.9434V34.2896H39.0168C41.4499 34.2896 43.3964 32.3083 43.3964 29.91C43.3964 27.5116 41.4325 25.5477 39.0168 25.5477ZM37.1051 68.3011H33.4206L43.0314 47.6544H46.7159L37.1051 68.3011ZM59.959 68.3011H56.1355V47.6544H59.959V68.3011ZM82.6913 68.3011H79.0068L69.396 47.6544H73.0805L82.6913 68.3011ZM87.2621 41.7801C87.4532 41.7801 87.5923 41.9192 87.5923 42.1103V45.9338C87.5923 46.1076 87.4532 46.2466 87.2621 46.2466H28.8498C28.676 46.2466 28.5196 46.1076 28.5196 45.9338V42.1103C28.5196 41.9365 28.6587 41.7801 28.8498 41.7801H87.2621ZM28.8498 5.87424C28.676 5.87424 28.5196 5.73521 28.5196 5.54403V1.72056C28.5196 1.52939 28.6587 1.39035 28.8498 1.39035H87.2794C87.4706 1.39035 87.6097 1.52939 87.6097 1.72056V5.54403C87.6097 5.71783 87.4706 5.87424 87.2794 5.87424H28.8498Z" fill="white"/>
</svg>
